<?xml version="1.0" encoding="UTF-8"?>
<svg width="19px" height="19px" viewBox="0 0 19 19" version="1.1" xmlns="http://www.w3.org/2000/svg" xmlns:xlink="http://www.w3.org/1999/xlink">
    <title>编组 21</title>
    <g id="页面-1" stroke="none" stroke-width="1" fill="none" fill-rule="evenodd">
        <g id="工作流-1" transform="translate(-2167.000000, -189.000000)">
            <g id="编组-21" transform="translate(2167.014728, 189.592250)">
                <rect id="矩形" x="0" y="-3.55271368e-15" width="18" height="18"></rect>
                <g id="quanping" transform="translate(2.500000, 3.000000)" fill="#288FFF" fill-rule="nonzero">
                    <path d="M8.09421992,7.51063575 C8.28948206,7.3153736 8.60606455,7.3153736 8.8013267,7.51063575 L8.8013267,7.51063575 L11.4951217,10.2045375 L11.4960991,8.7512706 L11.5041548,8.66139496 C11.5464908,8.42814576 11.7506392,8.2512706 11.9960991,8.2512706 C12.2722415,8.2512706 12.4960991,8.47512822 12.4960991,8.7512706 L12.4960991,8.7512706 L12.4960991,11.412515 L12.4959888,11.4230523 C12.4955448,11.4442479 12.4937609,11.4654207 12.4906373,11.4864327 L12.4880435,11.5023906 C12.4871096,11.5075358 12.486097,11.5126536 12.4850069,11.5177426 C12.481703,11.5329892 12.4776511,11.5483497 12.4728578,11.5635266 C12.468541,11.5772518 12.4636907,11.59054 12.4583069,11.6035515 C12.4527477,11.6170538 12.4463495,11.6307907 12.4392942,11.6442732 C12.4328058,11.6565616 12.4260798,11.6681974 12.4189111,11.6795253 C12.3996333,11.7101085 12.3764868,11.7392341 12.3496525,11.7660684 L12.3945164,11.7146589 C12.3841789,11.7282692 12.3731599,11.7413336 12.3615104,11.7538014 L12.3496525,11.7660684 C12.3455649,11.770156 12.3414241,11.774158 12.3372324,11.7780745 C12.3249178,11.7895758 12.3118534,11.8005947 12.2982431,11.8109322 C12.2867083,11.8197404 12.2749338,11.8279056 12.2629057,11.8355079 C12.2517816,11.8424956 12.2401458,11.8492216 12.2282264,11.8554806 C12.2143748,11.8627654 12.200638,11.8691635 12.1866942,11.8749044 C12.1741242,11.8801065 12.160836,11.8849569 12.1472983,11.8892465 C12.1319338,11.8940669 12.1165734,11.8981188 12.1010862,11.9014293 C12.0673998,11.9086898 12.0321962,11.912515 11.9960991,11.912515 L12.0700169,11.9070531 C12.0490049,11.9101768 12.0278321,11.9119606 12.0066365,11.9124046 L11.9960991,11.912515 L9.33485477,11.912515 L9.24497913,11.9044593 C9.01172993,11.8621233 8.83485477,11.6579749 8.83485477,11.412515 L8.83485477,11.412515 L8.84291043,11.3226393 C8.8852464,11.0893901 9.08939488,10.912515 9.33485477,10.912515 L9.33485477,10.912515 L10.7891217,10.9125375 L8.09421992,8.21774253 L8.03636447,8.14849464 C7.90136842,7.9536265 7.92065357,7.6842021 8.09421992,7.51063575 Z M5.25300088,7.51063575 C5.44826302,7.70589789 5.44826302,8.02248038 5.25300088,8.21774253 L2.55712166,10.9125375 L4.01236603,10.912515 C4.25782592,10.912515 4.4619744,11.0893901 4.50431036,11.3226393 L4.51236603,11.412515 C4.51236603,11.6579749 4.33549087,11.8621233 4.10224166,11.9044593 L4.01236603,11.912515 L1.35112166,11.912515 L1.34058431,11.9124046 C1.31938868,11.9119606 1.2982159,11.9101768 1.27720389,11.9070531 L1.35112166,11.912515 C1.31502462,11.912515 1.27982099,11.9086898 1.24589401,11.9014227 C1.23064741,11.8981188 1.21528696,11.8940669 1.20011002,11.8892736 C1.18638481,11.8849569 1.17309659,11.8801065 1.1600851,11.8747227 C1.1465828,11.8691635 1.13284597,11.8627654 1.11936347,11.85571 C1.10707499,11.8492216 1.09543919,11.8424956 1.08411134,11.835327 C1.07228702,11.8279056 1.06051251,11.8197404 1.04902915,11.8110124 C1.03536742,11.8005947 1.02230298,11.7895758 1.00983523,11.7779262 C1.00579666,11.774158 1.00165588,11.770156 0.99756827,11.7660684 L0.985710409,11.7538014 C0.974060863,11.7413336 0.963041913,11.7282692 0.952704394,11.7146589 L0.99756827,11.7660684 C0.970733998,11.7392341 0.947587477,11.7101085 0.928128707,11.6793215 C0.921140996,11.6681974 0.914415002,11.6565616 0.908156,11.6446422 C0.900871268,11.6307907 0.894473133,11.6170538 0.88873222,11.6031101 C0.883530115,11.59054 0.878679755,11.5772518 0.874390083,11.5637141 C0.869569682,11.5483497 0.865517794,11.5329892 0.862207342,11.517502 C0.861123829,11.5126536 0.860111211,11.5075358 0.85917733,11.5023906 L0.856583531,11.4864327 C0.853459863,11.4654207 0.851676025,11.4442479 0.851232016,11.4230523 L0.85112166,11.412515 L0.85112166,8.7512706 C0.85112166,8.47512822 1.07497929,8.2512706 1.35112166,8.2512706 C1.59658155,8.2512706 1.80073003,8.42814576 1.84306599,8.66139496 L1.85112166,8.7512706 L1.85112166,10.2045375 L4.54589409,7.51063575 C4.74115624,7.3153736 5.05773873,7.3153736 5.25300088,7.51063575 Z M11.9960991,0.26753749 L12.0066365,0.267647846 C12.0278321,0.268091855 12.0490049,0.269875693 12.0700169,0.272999361 L11.9960991,0.26753749 C12.0321962,0.26753749 12.0673998,0.271362645 12.1013268,0.278629721 C12.1165734,0.281933624 12.1319338,0.285985512 12.1471108,0.290778835 C12.160836,0.295095586 12.1741242,0.299945945 12.1871357,0.305329728 C12.200638,0.310888963 12.2143748,0.317287098 12.2278573,0.324342458 C12.2401458,0.330830832 12.2517816,0.337556826 12.2631095,0.344725496 C12.2749338,0.352146838 12.2867083,0.360312026 12.2981916,0.3690401 C12.3118534,0.379457743 12.3249178,0.390476693 12.3373856,0.402126239 C12.3414241,0.405894443 12.3455649,0.409896486 12.3496525,0.4139841 L12.3615104,0.426251061 C12.3731599,0.438718806 12.3841789,0.451783255 12.3945164,0.465393572 L12.3496525,0.4139841 C12.3764868,0.440818371 12.3996333,0.469943917 12.4190921,0.500730973 C12.4260798,0.511855022 12.4328058,0.523490819 12.4390648,0.535410246 C12.4463495,0.549261804 12.4527477,0.562998627 12.4584886,0.57694239 C12.4636907,0.589512422 12.468541,0.60280064 12.4728307,0.616338318 C12.4776511,0.631702785 12.481703,0.647063239 12.4850135,0.662550438 C12.486097,0.667398883 12.4871096,0.672516655 12.4880435,0.677661858 L12.4906373,0.693619721 C12.4937609,0.714631732 12.4955448,0.73580451 12.4959888,0.75700014 L12.4960991,0.76753749 L12.4960991,3.42878186 C12.4960991,3.70492423 12.2722415,3.92878186 11.9960991,3.92878186 C11.7506392,3.92878186 11.5464908,3.7519067 11.5041548,3.51865749 L11.4960991,3.42878186 L11.4951217,1.97453749 L8.8013267,4.66941671 C8.60606455,4.86467885 8.28948206,4.86467885 8.09421992,4.66941671 C7.92065357,4.49585035 7.90136842,4.22642595 8.03636447,4.03155781 L8.09421992,3.96230992 L10.7891217,1.26653749 L9.33485477,1.26753749 C9.08939488,1.26753749 8.8852464,1.09066233 8.84291043,0.857413123 L8.83485477,0.76753749 C8.83485477,0.522077602 9.01172993,0.31792912 9.24497913,0.27559316 L9.33485477,0.26753749 L11.9960991,0.26753749 Z M4.01236603,0.26753749 L4.10224166,0.27559316 C4.33549087,0.31792912 4.51236603,0.522077602 4.51236603,0.76753749 L4.51236603,0.76753749 L4.50431036,0.857413123 C4.4619744,1.09066233 4.25782592,1.26753749 4.01236603,1.26753749 L4.01236603,1.26753749 L2.55712166,1.26653749 L5.25300088,3.96230992 L5.31085633,4.03155781 C5.44585238,4.22642595 5.42656723,4.49585035 5.25300088,4.66941671 C5.05773873,4.86467885 4.74115624,4.86467885 4.54589409,4.66941671 L4.54589409,4.66941671 L1.85112166,1.97453749 L1.85112166,3.42878186 L1.84306599,3.51865749 C1.80073003,3.7519067 1.59658155,3.92878186 1.35112166,3.92878186 C1.07497929,3.92878186 0.85112166,3.70492423 0.85112166,3.42878186 L0.85112166,3.42878186 L0.85112166,0.76753749 L0.851232016,0.75700014 C0.851676025,0.73580451 0.853459863,0.714631732 0.856583531,0.693619721 L0.85917733,0.677661858 C0.860111211,0.672516655 0.861123829,0.667398883 0.862213891,0.662309836 C0.865517794,0.647063239 0.869569682,0.631702785 0.874363005,0.61652585 C0.878679755,0.60280064 0.883530115,0.589512422 0.888913898,0.576500927 C0.894473133,0.562998627 0.900871268,0.549261804 0.907926628,0.535779301 C0.914415002,0.523490819 0.921140996,0.511855022 0.928309666,0.500527171 C0.947587477,0.469943917 0.970733998,0.440818371 0.99756827,0.4139841 L0.952704394,0.465393572 C0.963041913,0.451783255 0.974060863,0.438718806 0.985710409,0.426251061 L0.99756827,0.4139841 C1.00165588,0.409896486 1.00579666,0.405894443 1.00998838,0.40197797 C1.02230298,0.390476693 1.03536742,0.379457743 1.04897774,0.369120224 C1.06051251,0.360312026 1.07228702,0.352146838 1.08431514,0.344544538 C1.09543919,0.337556826 1.10707499,0.330830832 1.11899442,0.32457183 C1.13284597,0.317287098 1.1465828,0.310888963 1.16052656,0.305148051 C1.17309659,0.299945945 1.18638481,0.295095586 1.19992249,0.290805914 C1.21528696,0.285985512 1.23064741,0.281933624 1.24613461,0.278623172 C1.27982099,0.271362645 1.31502462,0.26753749 1.35112166,0.26753749 L1.27720389,0.272999361 C1.2982159,0.269875693 1.31938868,0.268091855 1.34058431,0.267647846 L1.35112166,0.26753749 L4.01236603,0.26753749 Z" id="形状结合"></path>
                </g>
            </g>
        </g>
    </g>
</svg>