<?xml version="1.0" encoding="UTF-8"?>
<svg width="19px" height="19px" viewBox="0 0 19 19" version="1.1" xmlns="http://www.w3.org/2000/svg" xmlns:xlink="http://www.w3.org/1999/xlink">
    <title>全屏</title>
    <g id="页面-1" stroke="none" stroke-width="1" fill="none" fill-rule="evenodd">
        <g id="工作流-1" transform="translate(-1721.000000, -94.000000)">
            <g id="全屏" transform="translate(1721.514728, 94.592250)">
                <rect id="矩形" x="0" y="-3.55271368e-15" width="18" height="18"></rect>
                <path d="M10.5942199,10.5106357 C10.7894821,10.3153736 11.1060646,10.3153736 11.3013267,10.5106357 L11.3013267,10.5106357 L13.9951217,13.2045375 L13.9960991,11.7512706 L14.0041548,11.661395 C14.0464908,11.4281458 14.2506392,11.2512706 14.4960991,11.2512706 C14.7722415,11.2512706 14.9960991,11.4751282 14.9960991,11.7512706 L14.9960991,11.7512706 L14.9960991,14.412515 L14.9959888,14.4230523 C14.9955448,14.4442479 14.9937609,14.4654207 14.9906373,14.4864327 L14.9880435,14.5023906 C14.9871096,14.5075358 14.986097,14.5126536 14.9850069,14.5177426 C14.981703,14.5329892 14.9776511,14.5483497 14.9728578,14.5635266 C14.968541,14.5772518 14.9636907,14.59054 14.9583069,14.6035515 C14.9527477,14.6170538 14.9463495,14.6307907 14.9392942,14.6442732 C14.9328058,14.6565616 14.9260798,14.6681974 14.9189111,14.6795253 C14.8996333,14.7101085 14.8764868,14.7392341 14.8496525,14.7660684 L14.8945164,14.7146589 C14.8841789,14.7282692 14.8731599,14.7413336 14.8615104,14.7538014 L14.8496525,14.7660684 C14.8455649,14.770156 14.8414241,14.774158 14.8372324,14.7780745 C14.8249178,14.7895758 14.8118534,14.8005947 14.7982431,14.8109322 C14.7867083,14.8197404 14.7749338,14.8279056 14.7629057,14.8355079 C14.7517816,14.8424956 14.7401458,14.8492216 14.7282264,14.8554806 C14.7143748,14.8627654 14.700638,14.8691635 14.6866942,14.8749044 C14.6741242,14.8801065 14.660836,14.8849569 14.6472983,14.8892465 C14.6319338,14.8940669 14.6165734,14.8981188 14.6010862,14.9014293 C14.5673998,14.9086898 14.5321962,14.912515 14.4960991,14.912515 L14.5700169,14.9070531 C14.5490049,14.9101768 14.5278321,14.9119606 14.5066365,14.9124046 L14.4960991,14.912515 L11.8348548,14.912515 L11.7449791,14.9044593 C11.5117299,14.8621233 11.3348548,14.6579749 11.3348548,14.412515 L11.3348548,14.412515 L11.3429104,14.3226393 C11.3852464,14.0893901 11.5893949,13.912515 11.8348548,13.912515 L11.8348548,13.912515 L13.2891217,13.9125375 L10.5942199,11.2177425 L10.5363645,11.1484946 C10.4013684,10.9536265 10.4206536,10.6842021 10.5942199,10.5106357 Z M7.75300088,10.5106357 C7.94826302,10.7058979 7.94826302,11.0224804 7.75300088,11.2177425 L5.05712166,13.9125375 L6.51236603,13.912515 C6.75782592,13.912515 6.9619744,14.0893901 7.00431036,14.3226393 L7.01236603,14.412515 C7.01236603,14.6579749 6.83549087,14.8621233 6.60224166,14.9044593 L6.51236603,14.912515 L3.85112166,14.912515 L3.84058431,14.9124046 C3.81938868,14.9119606 3.7982159,14.9101768 3.77720389,14.9070531 L3.85112166,14.912515 C3.81502462,14.912515 3.77982099,14.9086898 3.74589401,14.9014227 C3.73064741,14.8981188 3.71528696,14.8940669 3.70011002,14.8892736 C3.68638481,14.8849569 3.67309659,14.8801065 3.6600851,14.8747227 C3.6465828,14.8691635 3.63284597,14.8627654 3.61936347,14.85571 C3.60707499,14.8492216 3.59543919,14.8424956 3.58411134,14.835327 C3.57228702,14.8279056 3.56051251,14.8197404 3.54902915,14.8110124 C3.53536742,14.8005947 3.52230298,14.7895758 3.50983523,14.7779262 C3.50579666,14.774158 3.50165588,14.770156 3.49756827,14.7660684 L3.48571041,14.7538014 C3.47406086,14.7413336 3.46304191,14.7282692 3.45270439,14.7146589 L3.49756827,14.7660684 C3.470734,14.7392341 3.44758748,14.7101085 3.42812871,14.6793215 C3.421141,14.6681974 3.414415,14.6565616 3.408156,14.6446422 C3.40087127,14.6307907 3.39447313,14.6170538 3.38873222,14.6031101 C3.38353011,14.59054 3.37867976,14.5772518 3.37439008,14.5637141 C3.36956968,14.5483497 3.36551779,14.5329892 3.36220734,14.517502 C3.36112383,14.5126536 3.36011121,14.5075358 3.35917733,14.5023906 L3.35658353,14.4864327 C3.35345986,14.4654207 3.35167602,14.4442479 3.35123202,14.4230523 L3.35112166,14.412515 L3.35112166,11.7512706 C3.35112166,11.4751282 3.57497929,11.2512706 3.85112166,11.2512706 C4.09658155,11.2512706 4.30073003,11.4281458 4.34306599,11.661395 L4.35112166,11.7512706 L4.35112166,13.2045375 L7.04589409,10.5106357 C7.24115624,10.3153736 7.55773873,10.3153736 7.75300088,10.5106357 Z M14.4960991,3.26753749 L14.5066365,3.26764785 C14.5278321,3.26809186 14.5490049,3.26987569 14.5700169,3.27299936 L14.4960991,3.26753749 C14.5321962,3.26753749 14.5673998,3.27136265 14.6013268,3.27862972 C14.6165734,3.28193362 14.6319338,3.28598551 14.6471108,3.29077884 C14.660836,3.29509559 14.6741242,3.29994595 14.6871357,3.30532973 C14.700638,3.31088896 14.7143748,3.3172871 14.7278573,3.32434246 C14.7401458,3.33083083 14.7517816,3.33755683 14.7631095,3.3447255 C14.7749338,3.35214684 14.7867083,3.36031203 14.7981916,3.3690401 C14.8118534,3.37945774 14.8249178,3.39047669 14.8373856,3.40212624 C14.8414241,3.40589444 14.8455649,3.40989649 14.8496525,3.4139841 L14.8615104,3.42625106 C14.8731599,3.43871881 14.8841789,3.45178326 14.8945164,3.46539357 L14.8496525,3.4139841 C14.8764868,3.44081837 14.8996333,3.46994392 14.9190921,3.50073097 C14.9260798,3.51185502 14.9328058,3.52349082 14.9390648,3.53541025 C14.9463495,3.5492618 14.9527477,3.56299863 14.9584886,3.57694239 C14.9636907,3.58951242 14.968541,3.60280064 14.9728307,3.61633832 C14.9776511,3.63170279 14.981703,3.64706324 14.9850135,3.66255044 C14.986097,3.66739888 14.9871096,3.67251665 14.9880435,3.67766186 L14.9906373,3.69361972 C14.9937609,3.71463173 14.9955448,3.73580451 14.9959888,3.75700014 L14.9960991,3.76753749 L14.9960991,6.42878186 C14.9960991,6.70492423 14.7722415,6.92878186 14.4960991,6.92878186 C14.2506392,6.92878186 14.0464908,6.7519067 14.0041548,6.51865749 L13.9960991,6.42878186 L13.9951217,4.97453749 L11.3013267,7.66941671 C11.1060646,7.86467885 10.7894821,7.86467885 10.5942199,7.66941671 C10.4206536,7.49585035 10.4013684,7.22642595 10.5363645,7.03155781 L10.5942199,6.96230992 L13.2891217,4.26653749 L11.8348548,4.26753749 C11.5893949,4.26753749 11.3852464,4.09066233 11.3429104,3.85741312 L11.3348548,3.76753749 C11.3348548,3.5220776 11.5117299,3.31792912 11.7449791,3.27559316 L11.8348548,3.26753749 L14.4960991,3.26753749 Z M6.51236603,3.26753749 L6.60224166,3.27559316 C6.83549087,3.31792912 7.01236603,3.5220776 7.01236603,3.76753749 L7.01236603,3.76753749 L7.00431036,3.85741312 C6.9619744,4.09066233 6.75782592,4.26753749 6.51236603,4.26753749 L6.51236603,4.26753749 L5.05712166,4.26653749 L7.75300088,6.96230992 L7.81085633,7.03155781 C7.94585238,7.22642595 7.92656723,7.49585035 7.75300088,7.66941671 C7.55773873,7.86467885 7.24115624,7.86467885 7.04589409,7.66941671 L7.04589409,7.66941671 L4.35112166,4.97453749 L4.35112166,6.42878186 L4.34306599,6.51865749 C4.30073003,6.7519067 4.09658155,6.92878186 3.85112166,6.92878186 C3.57497929,6.92878186 3.35112166,6.70492423 3.35112166,6.42878186 L3.35112166,6.42878186 L3.35112166,3.76753749 L3.35123202,3.75700014 C3.35167602,3.73580451 3.35345986,3.71463173 3.35658353,3.69361972 L3.35917733,3.67766186 C3.36011121,3.67251665 3.36112383,3.66739888 3.36221389,3.66230984 C3.36551779,3.64706324 3.36956968,3.63170279 3.37436301,3.61652585 C3.37867976,3.60280064 3.38353011,3.58951242 3.3889139,3.57650093 C3.39447313,3.56299863 3.40087127,3.5492618 3.40792663,3.5357793 C3.414415,3.52349082 3.421141,3.51185502 3.42830967,3.50052717 C3.44758748,3.46994392 3.470734,3.44081837 3.49756827,3.4139841 L3.45270439,3.46539357 C3.46304191,3.45178326 3.47406086,3.43871881 3.48571041,3.42625106 L3.49756827,3.4139841 C3.50165588,3.40989649 3.50579666,3.40589444 3.50998838,3.40197797 C3.52230298,3.39047669 3.53536742,3.37945774 3.54897774,3.36912022 C3.56051251,3.36031203 3.57228702,3.35214684 3.58431514,3.34454454 C3.59543919,3.33755683 3.60707499,3.33083083 3.61899442,3.32457183 C3.63284597,3.3172871 3.6465828,3.31088896 3.66052656,3.30514805 C3.67309659,3.29994595 3.68638481,3.29509559 3.69992249,3.29080591 C3.71528696,3.28598551 3.73064741,3.28193362 3.74613461,3.27862317 C3.77982099,3.27136265 3.81502462,3.26753749 3.85112166,3.26753749 L3.77720389,3.27299936 C3.7982159,3.26987569 3.81938868,3.26809186 3.84058431,3.26764785 L3.85112166,3.26753749 L6.51236603,3.26753749 Z" id="形状结合" fill="#666666" fill-rule="nonzero"></path>
            </g>
        </g>
    </g>
</svg>