<?xml version="1.0" encoding="utf-8"?>
<!-- Generator: Adobe Illustrator 18.0.0, SVG Export Plug-In . SVG Version: 6.00 Build 0)  -->
<!DOCTYPE svg PUBLIC "-//W3C//DTD SVG 1.1//EN" "http://www.w3.org/Graphics/SVG/1.1/DTD/svg11.dtd">
<svg version="1.1" id="图层_1" xmlns="http://www.w3.org/2000/svg" xmlns:xlink="http://www.w3.org/1999/xlink" x="0px" y="0px"
	 viewBox="0 0 960 560" enable-background="new 0 0 960 560" xml:space="preserve">
<g>
	<polygon fill="#00A0E9" points="65.2,379.2 0,341.3 0,204.4 119.1,137 235,206.7 235,344.4 171.3,378.5 159.9,358 211,330.4 
		211,219.9 118.2,164 23,218 23,327.9 76.7,359.1 	"/>
	<path fill="#00A0E9" d="M100.2,213.1c1.9-12.6,30.6-32.4,49.8-1.7c22.4-2.7,27,21,22,26.3c17.7-6.1,50.3,32.3,10.3,52.3h-124
		c-34.1-7-28-57.3,7.1-58.4C72.3,208.1,92.4,208.9,100.2,213.1z"/>
	<polygon fill="#EEAF00" points="126.8,404.8 117.2,410.2 107.4,404.4 107.2,239.8 126.6,239.8 	"/>
	<g>
		<circle fill="#FFFFFF" cx="117" cy="244.4" r="14.7"/>
		<path fill="#EEAF00" d="M117,262.3c-9.8,0-17.9-8-17.9-17.9c0-9.8,8-17.9,17.9-17.9s17.9,8,17.9,17.9
			C134.8,254.3,126.8,262.3,117,262.3z M117,232.8c-6.4,0-11.6,5.2-11.6,11.6c0,6.4,5.2,11.7,11.6,11.7s11.6-5.2,11.6-11.6
			C128.6,238.1,123.4,232.8,117,232.8z"/>
	</g>
	<polygon fill="#EEAF00" points="80.4,389.8 61.8,378.1 61.8,264.7 80.4,264.7 	"/>
	<polygon fill="#EEAF00" points="175.1,377.4 156.5,387.4 156.5,263.8 175.1,263.8 	"/>
	<g>
		<circle fill="#FFFFFF" cx="165.7" cy="264.6" r="14.7"/>
		<path fill="#EEAF00" d="M165.7,282.4c-9.8,0-17.9-8-17.9-17.9c0-9.8,8-17.9,17.9-17.9c9.8,0,17.9,8,17.9,17.9
			C183.6,274.4,175.5,282.4,165.7,282.4z M165.7,253c-6.4,0-11.6,5.2-11.6,11.6s5.2,11.6,11.6,11.6s11.6-5.2,11.6-11.6
			S172.1,253,165.7,253z"/>
	</g>
	<rect x="68.1" y="340.1" fill="none" width="102.1" height="90"/>
	<g>
		<circle fill="#FFFFFF" cx="71.2" cy="264.6" r="14.7"/>
		<path fill="#EEAF00" d="M71.2,282.4c-9.8,0-17.9-8-17.9-17.9c0-9.8,8-17.9,17.9-17.9s17.9,8,17.9,17.9S81,282.4,71.2,282.4z
			 M71.2,253c-6.4,0-11.6,5.2-11.6,11.6s5.2,11.6,11.6,11.6s11.6-5.2,11.6-11.6S77.6,253,71.2,253z"/>
	</g>
</g>
<g enable-background="new    ">
	<path fill="#333333" d="M271.1,333.8v-50.8c-1.3,0.5-2.5,1.1-3.9,1.6c-2.8-4-5.7-7.6-8.5-10.6c11.6-4.6,18.8-9.5,21.5-14.8h-20.5
		v-11.2h7.1c-2.3-3.6-4.5-6.8-6.7-9.5c4.1-4,8.2-9.8,12.4-17.7h14.7c-1.3,2.8-2.6,5.5-3.9,8h31.9v11.3h-15.9
		c-0.2,2.8-0.5,5.4-0.9,7.9h20.2v11.2h-17.7l16.2,10.8l-7.4,8.4h48.8v55.4h-15.3v-5h-56.8v5H271.1z M269.3,247.9h14.4
		c0.4-2.4,0.6-5,0.8-7.9h-8.3C274,243,271.7,245.6,269.3,247.9z M279.8,278.4h26.2c-4.8-4.5-9.3-8.5-13.4-12
		C289.7,270.8,285.4,274.8,279.8,278.4z M343.2,290.3h-56.8v8h56.8V290.3z M286.4,316.8h56.8v-7.4h-56.8V316.8z M320.4,229.3h45.5
		v42.6h-45.5V229.3z M351.7,259.8v-18.5h-17.2v18.5H351.7z"/>
	<path fill="#333333" d="M377.4,243.7h8.9c-2-4.1-4.7-8.4-8.1-13l10.3-6.4c2.4,2.8,5.5,7.2,9.6,13.2l-10.3,6.2h12.8v-22.3H415v22.3
		h12l-9.5-6.2c3.8-4.6,7-9.2,9.6-13.6l10.7,6.4c-2.5,4.3-5.7,8.8-9.5,13.3h6.6v11.6H415v8l3.9-5.2c4.7,2.5,9.2,5.1,13.5,7.5
		c6.2-11.5,11.6-26.5,16.1-44.8l15.6,1.5c-1.5,5.9-3.1,11.5-4.8,16.9h28.5v13.9h-4.6c-1.6,20.1-5.9,36.7-12.8,49.6
		c4.9,5.7,10.8,10.5,17.9,14.6c-2.7,3.1-6,8.2-9.9,15.2c-6.6-4.4-12.4-9.8-17.3-16.2c-6.3,7.4-13.5,13.3-21.8,17.9
		c-3.1-4.4-6.5-8.5-10.2-12.3l-4,6.7c-4.6-2.6-9.5-5.3-14.9-8c-8.3,5.5-18.3,9.5-29.9,11.9c-1.4-4.2-3.4-8.9-6-14
		c7.9-0.8,14.9-2.4,21-4.8c-5.2-2.3-10.8-4.7-16.6-7.1c2.6-3.8,4.9-7.5,7-11.3h-9.3v-11.6h15c1.3-3,2.3-6,3.2-9l6.2,0.6v-10.9
		c-5.6,5.9-12.7,11.4-21.2,16.5c-1.6-5.1-3.4-9.6-5.4-13.7c7.6-2.9,14.4-6.9,20.5-11.9h-17V243.7z M396.7,301.3l11.9,4.4
		c3.4-3,6.2-6.4,8.4-10.4h-16.9L396.7,301.3z M415,277.9h-5.8c-0.9,1.9-1.8,3.8-2.9,5.8h26.6v10.6c-3,6.2-6.7,11.7-11.1,16.5
		l11.3,4.5l-2.3,3.7c8.4-4.4,15.6-10,21.5-17c-3.7-7.6-6.6-16.2-8.5-25.6c-1.3,2.4-2.7,4.7-4,6.9c-1.7-3-3.8-6.2-6.1-9.4l-3.4,5.1
		c-4.7-3.2-9.8-6.4-15.3-9.7V277.9z M453.2,256.3c1.5,12.7,4.2,23.2,8,31.7c4.5-10,7.2-21.6,8.1-35h-14.8
		C454,254.2,453.6,255.3,453.2,256.3z"/>
	<path fill="#333333" d="M520,284.5c-0.1,5.9,0.4,11.7,1.4,17.6c-4.5,4.1-10.4,10.4-17.7,18.9l-8.1-11.1c1.9-2.2,2.9-5.4,3-9.7
		v-30.1h-7.1v-14.8h21.5V292C514.6,290.4,516.9,287.9,520,284.5z M506.8,222.6c5.3,6.8,9.9,13.4,13.8,19.6c-3.6,2.2-8.1,4.9-13.3,8
		c-3.9-7.3-8.1-14.1-12.8-20.4L506.8,222.6z M585,239.2h-47.1v41.3c0,23-3.4,41-10.1,54c-4.6-3.2-9.9-6.3-15.7-9.5
		c7.7-10.3,11.5-24.7,11.5-43.1v-56.2h75.8v91.1c0,10.2-4.4,15.5-13.3,16c-3.6,0.3-8.9,0.5-16.1,0.5c-1.1-5.2-2.2-10.3-3.4-15.2
		c5.1,0.4,9.3,0.5,12.5,0.5c4,0,5.9-1.9,5.9-5.7V239.2z M540.3,265.6h14.1V259h-12.2v-10.7h12.2v-7.1h13.9v7.1h12.4V259h-12.4v6.6
		h14.2v10.7h-42.3V265.6z M542.5,319.1v-36.8h37.2v31.2H555v5.6H542.5z M567.1,293H555v9.8h12.1V293z"/>
	<path fill="#333333" d="M630.6,273.1c0.2,28.5-3.6,48.9-11.4,61.3c-4.2-4-8.3-7.6-12.4-10.7c6.5-12.1,9.5-29.6,9.2-52.7v-39.8h45.4
		c-0.8-2.2-1.9-4.9-3.3-8l18.9-2.7c1.4,3.5,2.7,7.1,4.1,10.7h39.4v12.8h-89.9V273.1z M709.6,287.4v12.3c-6.1,7-12.2,12.6-18.2,16.9
		c8.4,1.6,18.4,2.6,30.1,3c-2.3,4.4-4.5,9-6.7,13.8c-16.8-2.1-30.3-4.9-40.5-8.5c-10.9,3.6-24.4,6.8-40.6,9.5
		c-1.9-4.3-4.4-8.5-7.4-12.7c12.3-0.6,23.2-2.2,32.8-4.7c-6.3-4.6-12.1-10.3-17.3-17.2h-7.3v-12.3H709.6z M633.1,251.1h12.4v-4.8
		h14.6v4.8h28.3v-4.8H703v4.8h15.5v12.3H703V282h-57.4v-18.6h-12.4V251.1z M674.9,311.4c6.9-3.2,12.8-7.1,17.7-11.7h-34.6
		C662.8,304.5,668.5,308.5,674.9,311.4z M688.4,270.4v-7h-28.3v7H688.4z"/>
	<path fill="#333333" d="M772.7,220.9H790v20.2h42.5V305h-16.9v-7.9H790v36.7h-17.3v-36.7h-25.6v8.2h-16.9v-64.3h42.5V220.9z
		 M747.1,281.4h25.6v-24.6h-25.6V281.4z M815.7,256.8H790v24.6h25.6V256.8z"/>
	<path fill="#333333" d="M853.9,253.6l15.6,3.5c-3.3,18.1-7.5,34.8-12.8,50.3l-15.2-5.6C845.9,288,850,271.9,853.9,253.6z
		 M918.2,292.7c6.8,2.8,12.6,5,17.2,6.5c-0.5,3.6-1.5,8.4-2.9,14.5c-1.4,6.1-3.1,10-5,11.8c-1.9,1.8-4.4,3.1-7.3,4
		c-2.9,0.9-6.4,1.3-10.5,1.3H891c-12.8,0-19.1-6.5-19.1-19.4v-65.6h16.9v60.4c0,6.5,3.4,9.8,10.1,9.8h5.8c3.4,0,6.1-0.6,8-1.7
		c1.9-1.2,3.1-2.8,3.5-5.1C916.6,306.9,917.3,301.5,918.2,292.7z M897,220.6c6.6,8.4,13.7,18.2,21.3,29.6l-15.2,9.3
		c-6.5-11.6-12.9-21.9-19.3-30.9L897,220.6z M939.2,255.5c6.1,12.5,11.4,25,16,37.5l-15.7,6.5c-4.3-12.4-9.4-25-15.4-37.8
		L939.2,255.5z"/>
</g>
</svg>
