<?xml version="1.0" encoding="UTF-8"?>
<svg width="18px" height="19px" viewBox="0 0 18 19" version="1.1" xmlns="http://www.w3.org/2000/svg" xmlns:xlink="http://www.w3.org/1999/xlink">
    <title>conditions</title>
    <g id="页面-1" stroke="none" stroke-width="1" fill="none" fill-rule="evenodd">
        <g id="工作流-1" transform="translate(-250.000000, -809.000000)">
            <g id="conditions" transform="translate(250.000000, 809.109215)">
                <g id="CONDITIONS">
                    <rect id="矩形备份-23" x="0" y="0" width="18" height="18"></rect>
                </g>
                <circle id="椭圆形" fill="#999999" cx="9" cy="4.18657576" r="2.76885608"></circle>
                <path d="M4.38123721,10.7811368 C5.98317877,10.7811368 7.28180899,12.079767 7.28180899,13.6817085 C7.28180899,15.2836501 5.98317877,16.5822803 4.38123721,16.5822803 C2.77929565,16.5822803 1.48066543,15.2836501 1.48066543,13.6817085 C1.48066543,12.079767 2.77929565,10.7811368 4.38123721,10.7811368 Z M4.38123721,11.9811368 C3.44203735,11.9811368 2.68066543,12.7425087 2.68066543,13.6817085 C2.68066543,14.6209084 3.44203735,15.3822803 4.38123721,15.3822803 C5.32043707,15.3822803 6.08180899,14.6209084 6.08180899,13.6817085 C6.08180899,12.7425087 5.32043707,11.9811368 4.38123721,11.9811368 Z" id="椭圆形备份-2" fill="#999999" fill-rule="nonzero"></path>
                <path d="M13.6187628,10.7811368 C15.2207044,10.7811368 16.5193346,12.079767 16.5193346,13.6817085 C16.5193346,15.2836501 15.2207044,16.5822803 13.6187628,16.5822803 C12.0168212,16.5822803 10.718191,15.2836501 10.718191,13.6817085 C10.718191,12.079767 12.0168212,10.7811368 13.6187628,10.7811368 Z M13.6187628,11.9811368 C12.6795629,11.9811368 11.918191,12.7425087 11.918191,13.6817085 C11.918191,14.6209084 12.6795629,15.3822803 13.6187628,15.3822803 C14.5579627,15.3822803 15.3193346,14.6209084 15.3193346,13.6817085 C15.3193346,12.7425087 14.5579627,11.9811368 13.6187628,11.9811368 Z" id="椭圆形备份-3" fill="#999999" fill-rule="nonzero"></path>
                <path d="M12.6187628,8.27703723 C13.4533264,8.27703723 14.1386526,8.91599875 14.2122241,9.73140462 L14.2187628,9.87703723 L14.2187628,11.3125268 L13.0187628,11.3125268 L13.0187628,9.87703723 C13.0187628,9.68373757 12.88165,9.52246232 12.6993767,9.48516381 L12.6187628,9.47703723 L5.38123721,9.47703723 C5.18793754,9.47703723 5.02666229,9.61415003 4.98936379,9.79642328 L4.98123721,9.87703723 L4.98123721,11.3125268 L3.78123721,11.3125268 L3.78123721,9.87703723 C3.78123721,9.04247361 4.42019872,8.35714745 5.23560459,8.28357591 L5.38123721,8.27703723 L12.6187628,8.27703723 Z" id="路径-16" fill="#999999" fill-rule="nonzero"></path>
                <polygon id="路径-17" fill="#979797" fill-rule="nonzero" points="9.6 6.47207661 9.6 8.50237166 8.4 8.50237166 8.4 6.47207661"></polygon>
            </g>
        </g>
    </g>
</svg>