<?xml version="1.0" encoding="UTF-8"?>
<svg width="18px" height="19px" viewBox="0 0 18 19" version="1.1" xmlns="http://www.w3.org/2000/svg" xmlns:xlink="http://www.w3.org/1999/xlink">
    <title>DataX备份</title>
    <g id="页面-1" stroke="none" stroke-width="1" fill="none" fill-rule="evenodd">
        <g id="工作流-1" transform="translate(-2059.000000, -749.000000)">
            <g id="DataX备份" transform="translate(2059.000000, 749.109215)">
                <g id="编组-10">
                    <rect id="矩形备份-22" x="0" y="0" width="18" height="18"></rect>
                    <text id="D" font-family="Arial-Black, Arial Black" font-size="5" font-weight="700" fill="#FFFFFF">
                        <tspan x="7.37348007" y="10.7628882">D</tspan>
                    </text>
                </g>
                <g id="DataX-2" transform="translate(0.500000, 0.500000)" fill="#288FFF" fill-rule="nonzero">
                    <path d="M8.46961175,0.868792167 C12.6559005,0.868792167 16.0492432,4.26213488 16.0492432,8.44842366 C16.0492432,12.6347124 12.6559005,16.0280552 8.46961175,16.0280552 C4.28332297,16.0280552 0.889980255,12.6347124 0.889980255,8.44842366 C0.889980255,4.26213488 4.28332297,0.868792167 8.46961175,0.868792167 Z M6.28492873,7.8607107 C5.86105242,7.8607107 5.86105242,7.8607107 5.61034153,8.07468952 C5.47040987,8.18896704 5.47040987,8.18896704 5.3771221,8.42626781 L5.34213918,8.52538607 L5.85638803,8.62625348 C5.95667238,8.26184812 5.95667238,8.26184812 6.29367446,8.26184812 C6.60560545,8.26184812 6.60560545,8.26184812 6.63650702,8.54579277 L6.64000532,8.61226031 L6.64000532,8.81282902 C5.94734361,8.83615096 5.94734361,8.83615096 5.69255138,8.94518105 C5.25060056,9.1270922 5.25060056,9.1270922 5.25060056,9.63725971 C5.25060056,10.3433315 5.25060056,10.3433315 5.97474689,10.3433315 C6.20271888,10.3433315 6.20271888,10.3433315 6.39454187,10.252376 C6.48608049,10.204566 6.48608049,10.204566 6.57878522,10.1054477 L6.64000532,10.0337327 L6.64000532,10.288525 L7.18224049,10.288525 C7.16008465,10.1246883 7.16008465,10.1246883 7.15600331,9.89088584 L7.15483721,9.76961173 L7.15483721,8.62625348 C7.15483721,8.17030949 7.15483721,8.17030949 6.85398414,7.98839833 C6.65807982,7.8607107 6.65807982,7.8607107 6.28492873,7.8607107 L6.28492873,7.8607107 Z M10.9493173,7.8607107 C10.525441,7.8607107 10.525441,7.8607107 10.2747301,8.07468952 C10.1347985,8.18896704 10.1347985,8.18896704 10.0415107,8.42626781 L10.0065278,8.52538607 L10.5207766,8.62625348 C10.621061,8.26184812 10.621061,8.26184812 10.9580631,8.26184812 C11.2699941,8.26184812 11.2699941,8.26184812 11.3008956,8.54579277 L11.3043939,8.61226031 L11.3043939,8.81282902 C10.6117322,8.83615096 10.6117322,8.83615096 10.35694,8.94518105 C9.91498917,9.1270922 9.91498917,9.1270922 9.91498917,9.63725971 C9.91498917,10.3433315 9.91498917,10.3433315 10.6391355,10.3433315 C10.8671075,10.3433315 10.8671075,10.3433315 11.0589305,10.252376 C11.1504691,10.204566 11.1504691,10.204566 11.2431738,10.1054477 L11.3043939,10.0337327 L11.3043939,10.288525 L11.8466291,10.288525 C11.8244733,10.1246883 11.8244733,10.1246883 11.8203919,9.89088584 L11.8192258,9.76961173 L11.8192258,8.62625348 C11.8192258,8.17030949 11.8192258,8.17030949 11.5183728,7.98839833 C11.3224684,7.8607107 11.3224684,7.8607107 10.9493173,7.8607107 L10.9493173,7.8607107 Z M8.83576625,7.3050654 L8.22065001,7.3050654 C8.24163976,7.47531559 8.24163976,7.47531559 8.24921939,7.64323358 L8.25271768,7.81056852 L8.25271768,7.92892738 L8.0608947,7.92892738 C7.8533294,7.92892738 7.8533294,7.92892738 7.70989945,7.91726641 L7.64226582,7.91143592 L7.64226582,8.38487137 C7.76587212,8.36621381 7.76587212,8.36621381 7.95711205,8.36271552 L8.05623031,8.36213247 L8.25271768,8.36213247 L8.25271768,9.63725971 C8.25271768,10.0879563 8.25271768,10.0879563 8.41597128,10.2068982 C8.59846548,10.3386671 8.59846548,10.3386671 8.99493852,10.3386671 C9.24623245,10.3386671 9.24623245,10.3386671 9.45146555,10.2832775 L9.55058381,10.252376 L9.46895701,9.79643197 C9.29112719,9.8879706 9.29112719,9.8879706 9.09055848,9.8879706 C8.94946073,9.8879706 8.94946073,9.8879706 8.87657965,9.84249281 C8.8182748,9.79876416 8.8182748,9.79876416 8.80661383,9.67923921 L8.80369858,9.61452081 L8.80369858,8.36213247 L9.03575192,8.36213247 C9.26547306,8.36213247 9.26547306,8.36213247 9.41648264,8.37670869 L9.48644847,8.38487137 L9.48644847,7.91085287 C9.34826595,7.92542909 9.34826595,7.92542909 9.13078883,7.92834433 L9.01767741,7.92892738 L8.80369858,7.92892738 L8.80369858,7.81056852 C8.80369858,7.62865736 8.80369858,7.62865736 8.81769175,7.46482071 L8.83518321,7.3050654 L8.83576625,7.3050654 Z M2.92773503,7.00421234 C2.94580954,7.17737776 2.94580954,7.17737776 2.95164002,7.35870587 L2.95513831,7.54178312 L2.95513831,9.74687284 C2.95513831,10.0424785 2.95513831,10.0424785 2.92773503,10.289108 C3.03384987,10.2809453 3.03384987,10.2809453 3.25074394,10.2797792 L3.76557583,10.2797792 C4.35795319,10.2838606 4.35795319,10.2838606 4.6174098,9.96085167 C4.94566615,9.54630413 4.94566615,9.54630413 4.94566615,8.63966359 C4.95033054,8.19771277 4.95033054,8.19771277 4.82730729,7.7971584 C4.73168732,7.47823083 4.73168732,7.47823083 4.50371533,7.264252 C4.27690944,7.04152745 4.27690944,7.04152745 3.86294495,7.01645636 L3.75683011,7.01354111 L3.34228257,7.01354111 C3.0414295,7.01354111 3.0414295,7.01354111 2.92773503,7.00421234 L2.92773503,7.00421234 Z M12.8302321,7.01354111 L12.1923769,7.01354111 C12.2588444,7.12315425 12.2588444,7.12315425 12.3958609,7.39252269 L12.4430878,7.48755961 L12.9485909,8.53471485 L12.3795355,9.78302185 C12.276919,9.99466849 12.276919,9.99466849 12.1743024,10.1678339 L12.1060857,10.2797792 L12.757351,10.2797792 C12.8092423,10.1217731 12.8092423,10.1217731 12.8669641,9.97192959 L12.925852,9.82383525 L13.2313695,9.08161441 L13.5456327,9.82849964 C13.6365882,10.0360649 13.6365882,10.0360649 13.6867304,10.2004846 L13.7094693,10.2797792 L14.3519888,10.2797792 C14.28144,10.1625865 14.28144,10.1625865 14.137427,9.87164524 L14.0872848,9.76961173 L13.5182294,8.58952142 L14.0237325,7.49164095 C14.1193525,7.2869909 14.1193525,7.2869909 14.210308,7.120239 L14.269779,7.01354111 L13.6365882,7.01354111 C13.6126832,7.10916108 13.6126832,7.10916108 13.5048193,7.38960745 L13.4727516,7.47356644 L13.2453626,8.06594379 L12.9987331,7.47356644 C12.8821234,7.17679472 12.8821234,7.17679472 12.84131,7.05085622 L12.8302321,7.01354111 L12.8302321,7.01354111 Z M6.64000532,9.17256999 L6.64000532,9.39995894 C6.64000532,9.69673066 6.64000532,9.69673066 6.48491439,9.82849964 C6.33040652,9.95618728 6.33040652,9.95618728 6.12050903,9.95618728 C5.78817135,9.95618728 5.78817135,9.95618728 5.78817135,9.60052765 C5.78817135,9.3323253 5.78817135,9.3323253 6.02955346,9.24545106 C6.13100391,9.20113937 6.13100391,9.20113937 6.53447352,9.17781743 L6.64000532,9.17256999 L6.64000532,9.17256999 Z M11.3043939,9.17256999 L11.3043939,9.39995894 C11.3043939,9.69673066 11.3043939,9.69673066 11.149303,9.82849964 C10.9947951,9.95618728 10.9947951,9.95618728 10.7848976,9.95618728 C10.45256,9.95618728 10.45256,9.95618728 10.45256,9.60052765 C10.45256,9.3323253 10.45256,9.3323253 10.6939421,9.24545106 C10.7953925,9.20113937 10.7953925,9.20113937 11.1988621,9.17781743 L11.3043939,9.17256999 L11.3043939,9.17256999 Z M3.74283694,7.47823083 C4.02095111,7.47823083 4.02095111,7.47823083 4.15738448,7.63332175 C4.39876659,7.92484604 4.39876659,7.92484604 4.39876659,8.59885019 C4.3941022,8.94926239 4.3941022,8.94926239 4.32122113,9.34107103 C4.27107895,9.56845998 4.27107895,9.56845998 4.17137764,9.67340872 C4.04835439,9.81917086 4.04835439,9.81917086 3.73817255,9.81917086 L3.49679044,9.81917086 L3.49679044,7.47823083 L3.74283694,7.47823083 L3.74283694,7.47823083 Z" id="形状"></path>
                </g>
            </g>
        </g>
    </g>
</svg>