<?xml version="1.0" encoding="UTF-8"?>
<svg width="18px" height="19px" viewBox="0 0 18 19" version="1.1" xmlns="http://www.w3.org/2000/svg" xmlns:xlink="http://www.w3.org/1999/xlink">
    <title>DEPENDENT</title>
    <g id="页面-1" stroke="none" stroke-width="1" fill="none" fill-rule="evenodd">
        <g id="工作流-1" transform="translate(-250.000000, -563.000000)">
            <g id="DEPENDENT" transform="translate(250.000000, 563.109215)">
                <rect id="矩形备份-15" x="0" y="0" width="18" height="18"></rect>
                <path d="M2.24517511,1.72557319 L10.0392038,1.72557319 L12.1176115,3.80398085 L10.5588057,3.80398085 L9.51960191,2.76477702 L2.24517511,2.76477702 L2.24517511,15.235223 L12.6372134,15.235223 L12.6372134,14.1960191 L13.6764172,14.1960191 L13.6764172,15.235223 C13.6764172,15.8067851 13.2087755,16.2744268 12.6372134,16.2744268 L2.24517511,16.2744268 C1.673613,16.2744268 1.20597128,15.8067851 1.20597128,15.235223 L1.20597128,2.76477702 C1.20597128,2.19321492 1.673613,1.72557319 2.24517511,1.72557319 Z M11.5980096,7.96079617 L14.7156211,7.96079617 L14.7156211,9 L11.5980096,9 L11.5980096,7.96079617 Z M13.6764172,10.0392038 L11.5980096,10.0392038 L11.5980096,11.0784077 L13.6764172,11.0784077 L13.6764172,10.0392038 Z M10.1254577,4.84317606 L14.6719745,4.84317606 L16.7940287,6.92159234 L16.7940287,12.5634299 C16.7889052,12.8938723 16.5186504,13.1585644 16.1881729,13.1568239 L10.1254577,13.1568239 C9.79498028,13.1585644 9.52472546,12.8938723 9.51960191,12.5634299 L9.51960191,11.0784077 L10.5588057,11.0784077 L10.5588057,12.1176115 L15.7548249,12.1176115 L15.7548249,7.44119426 L14.1960191,5.88238851 L10.5588057,5.88238851 L10.5588057,6.92159234 L9.51960191,6.92159234 L9.51960191,5.43657007 C9.52472546,5.10612769 9.79498028,4.84143557 10.1254577,4.84317606 Z M11.0784077,7.96079617 L8.13434321,7.96079617 L8.13434321,5.88238851 L3.97752789,9 L8.13434321,12.1176115 L8.13434321,10.0392038 L11.0784077,10.0392038 L11.0784077,7.96079617 Z" id="形状" fill="#999999" fill-rule="nonzero"></path>
            </g>
        </g>
    </g>
</svg>