<?xml version="1.0" encoding="UTF-8"?>
<svg width="18px" height="19px" viewBox="0 0 18 19" version="1.1" xmlns="http://www.w3.org/2000/svg" xmlns:xlink="http://www.w3.org/1999/xlink">
    <title>FLINK</title>
    <g id="页面-1" stroke="none" stroke-width="1" fill="none" fill-rule="evenodd">
        <g id="工作流-1" transform="translate(-250.000000, -437.000000)">
            <g id="FLINK" transform="translate(250.000000, 437.109215)">
                <rect id="矩形备份-12" x="0" y="0" width="18" height="18"></rect>
                <path d="M2.99720336,3.92962978 C3.86051964,4.1373872 4.42764123,4.96420555 4.30972486,5.84436702 C4.20724992,6.60240083 2.84700037,8.86948342 2.69258607,10.0781262 C2.24057332,13.5047198 3.79875392,15.3703252 7.32922618,15.7226705 C9.14148849,15.8363756 10.9593659,15.8363756 12.7716282,15.7226705 C13.3261158,15.6215994 13.0748417,14.9169087 13.0748417,14.8663731 C12.9737705,14.6656345 12.670557,14.5140277 12.1666049,14.3610172 C13.3261158,13.4555879 13.427187,12.4968156 12.4220903,11.4903151 C12.2213518,11.2881728 12.2213518,10.7842207 12.6775758,10.8852918 C13.1337999,10.986363 14.088361,12.043399 14.3410389,11.6910537 C14.4926456,11.4355682 14.1388965,10.5862896 13.234871,9.070222 C14.8983341,9.22182876 16.0073095,8.96915082 16.5112616,8.36412755 C16.8467617,7.73804777 16.7442868,6.9659763 16.2557761,6.4493903 C15.7343174,5.79713703 15.1415158,5.20527712 14.4884344,4.68485605 C14.2876958,4.48271371 13.7823399,3.77661925 13.4299946,3.42427391 C13.2783878,3.27266715 12.976578,3.27266715 12.9246387,3.52534509 C12.8965634,4.03631602 12.760398,4.53465306 12.5217578,4.98666581 C11.8866768,5.91251033 10.9933067,6.63111191 9.95286541,7.05300981 C8.1679468,7.99895804 6.8810182,9.67252855 6.42520068,11.6405181 C6.50942666,10.9484613 6.73402927,10.2788648 7.07935578,9.67524528 C7.71666569,8.59996029 8.25851948,7.46992841 8.6950908,6.29778354 C9.25027097,4.78100452 8.54700721,3.09219389 7.07935578,2.41777347 C5.46362076,1.86328578 4.10337121,2.31670229 2.99720336,3.92962978 L2.99720336,3.92962978 Z" id="路径" stroke="#999999" stroke-linejoin="round" fill-rule="nonzero"></path>
                <path d="M13.9230638,7.52646999 C13.5510642,7.52055741 13.2509272,7.22042043 13.2450147,6.8484208 C13.2450147,6.47394457 13.5485876,6.17037161 13.9230638,6.17037161 C14.2975401,6.17037161 14.601113,6.47394457 14.601113,6.8484208 C14.5935218,7.21918835 14.2938628,7.51745366 13.9230638,7.52331627 L13.9230638,7.52646999 L13.9230638,7.52646999 Z" id="路径" fill="#999999" fill-rule="nonzero"></path>
                <path d="M4,3 C5.72157012,3.15776173 6.66956047,3.85444797 6.84397103,5.09005873 C7.10558687,6.94347487 5.616293,8.12156809 5.43347924,9.55143581 C5.3116034,10.504681 5.64217722,11.2010417 6.42520068,11.6405181" id="路径-2" stroke="#979797" stroke-linecap="round"></path>
            </g>
        </g>
    </g>
</svg>