<?xml version="1.0" encoding="UTF-8"?>
<svg width="18px" height="19px" viewBox="0 0 18 19" version="1.1" xmlns="http://www.w3.org/2000/svg" xmlns:xlink="http://www.w3.org/1999/xlink">
    <title>FLINK备份</title>
    <g id="页面-1" stroke="none" stroke-width="1" fill="none" fill-rule="evenodd">
        <g id="工作流-1" transform="translate(-2059.000000, -539.000000)">
            <g id="FLINK备份" transform="translate(2059.000000, 539.109215)">
                <rect id="矩形备份-12" x="0" y="0" width="18" height="18"></rect>
                <path d="M2.58485807,3.64683771 C2.38666428,3.93582839 2.53952127,4.3337628 2.88021795,4.41575159 C3.49460926,4.56360511 3.89801582,5.15199421 3.81415242,5.77797455 L3.7991519,5.86846996 L3.77314432,5.96816723 C3.76736824,5.98682082 3.76074035,6.00681074 3.75306408,6.02861346 L3.6503633,6.28664778 L2.86871552,8.02079089 L2.65566899,8.51642213 C2.39844857,9.13867311 2.24796204,9.61287305 2.19661734,10.014762 C1.70867997,13.7136591 3.46194965,15.8391956 7.27957226,16.2201989 C9.1310315,16.3367027 10.9698228,16.3367027 12.8029376,16.2216893 C13.3460164,16.1262104 13.6013994,15.7706683 13.629057,15.3304634 C13.6351854,15.2329222 13.6306164,15.1378691 13.6178876,15.041564 L13.5753972,14.8163751 L13.5748417,14.8663731 C13.5748417,14.7882786 13.5565488,14.7112699 13.5214289,14.641518 L13.4615547,14.5387031 C13.3738356,14.4074714 13.2540529,14.2988289 13.0960069,14.2028219 L13.069,14.187 L13.1188089,14.1286606 C13.6654551,13.440739 13.760177,12.6963777 13.3896742,11.9594877 L13.364,11.914 L13.4399589,11.9657755 C13.5576967,12.0448836 13.6515648,12.099735 13.752629,12.1483496 C14.1252205,12.327576 14.4942182,12.3354274 14.747358,11.9824379 L14.7860637,11.9091799 C14.968634,11.5144414 14.8263283,10.9563313 14.3645825,10.057032 L14.125,9.612 L14.3070325,9.61126901 C15.5175057,9.58399642 16.3966627,9.282949 16.8954453,8.68413206 L16.9519722,8.60029309 C17.3892811,7.78422714 17.2553105,6.77865947 16.6190636,6.1058467 C16.1015625,5.45578373 15.4822848,4.83748978 14.800035,4.29382533 L14.2045611,3.54760161 C14.0401367,3.34670255 13.9046754,3.19184797 13.7835479,3.07072052 C13.3627137,2.64988631 12.5738351,2.74866764 12.4348786,3.42467217 C12.4011399,3.93929632 12.2834748,4.36705798 12.0795969,4.75322684 C11.5298408,5.54879485 10.7145193,6.20461623 9.76497561,6.58965528 L9.51274731,6.72896386 C9.34682178,6.82465441 9.18538364,6.92593278 9.02863724,7.0325079 L8.91,7.116 L8.96617008,6.98232654 L9.16364625,6.47229941 C9.80940607,4.7080757 8.99264355,2.74671029 7.28812992,1.9634461 C5.38117894,1.30636963 3.79787893,1.87810551 2.58485807,3.64683771 Z M12.607,15.073 L12.6285531,15.1917613 L12.63,15.233 L12.6819663,15.2307755 C10.9489089,15.3360485 9.15194548,15.3360485 7.36053565,15.2236518 C4.11450761,14.8993539 2.77513006,13.27559 3.18829177,10.1435163 C3.22203703,9.87940597 3.32817111,9.53051296 3.50897731,9.07414765 L3.68229436,8.65612845 L3.95186441,8.05152955 L4.54908379,6.7320526 L4.64930226,6.49542833 L4.71529626,6.32235767 L4.7561875,6.19001237 L4.78109769,6.07556418 L4.80521778,5.91135033 L4.82098388,5.74980884 C4.8703374,4.94524044 4.48158917,4.19365823 3.83712988,3.76058178 L3.783,3.727 L3.79526634,3.71284814 C4.67129756,2.71537819 5.67824795,2.46556528 6.91705707,2.8906996 C8.10137086,3.43767749 8.69113587,4.85393334 8.22555545,6.12592152 C7.8020489,7.26296601 7.27387132,8.36640011 6.64922826,9.4203133 C6.26552637,10.0908926 6.02080296,10.8246719 5.92886301,11.5801119 C5.85249975,12.2075633 6.76968139,12.3691193 6.91230577,11.7533394 C7.33543651,9.92647475 8.53007919,8.37291635 10.1870009,7.49480227 C11.272094,7.05760758 12.2435129,6.27622582 12.9340773,5.26949545 L13.0544054,5.02761296 C13.1659775,4.78537275 13.2514633,4.541958 13.3124981,4.29645609 L13.356,4.091 L13.9872066,4.87370971 L14.0898819,4.99134426 C14.1051434,5.00788655 14.1196485,5.02307477 14.1336512,5.03717541 C14.6895642,5.48374962 15.175498,5.95083551 15.6103261,6.45472893 L15.9581459,6.87176848 C16.2148109,7.21206827 16.2728373,7.63579555 16.1267967,8.00653268 L16.091,8.082 L16.1270779,8.04412303 C15.7500547,8.49676091 14.7795879,8.70893403 13.2802526,8.57228574 C12.8733453,8.53520052 12.5961612,8.975361 12.8054245,9.3262994 L12.9471714,9.56629496 L13.2007079,10.0096726 L13.4144204,10.404265 C13.4790363,10.5276693 13.5370387,10.6429493 13.5884513,10.7501115 L13.653,10.889 L13.4340234,10.7303325 C13.1337992,10.5176406 12.9898044,10.4423396 12.7857229,10.3971277 C12.3157828,10.2930179 11.9156462,10.5303383 11.8162349,10.9618488 C11.7457441,11.2678258 11.8459647,11.6197442 12.0673072,11.8426345 C12.8505089,12.6269327 12.7937115,13.2369457 11.8588755,13.9669327 C11.5396337,14.2162195 11.6337706,14.7217759 12.0213423,14.8394509 L12.2590191,14.9175994 L12.4360354,14.9862697 C12.4851859,15.0071526 12.5246089,15.0258146 12.5546873,15.0416143 L12.607,15.073 Z" id="路径" fill="#288FFF" fill-rule="nonzero"></path>
                <path d="M13.9230638,7.52646999 C13.5510642,7.52055741 13.2509272,7.22042043 13.2450147,6.8484208 C13.2450147,6.47394457 13.5485876,6.17037161 13.9230638,6.17037161 C14.2975401,6.17037161 14.601113,6.47394457 14.601113,6.8484208 C14.5935218,7.21918835 14.2938628,7.51745366 13.9230638,7.52331627 L13.9230638,7.52646999 L13.9230638,7.52646999 Z" id="路径" fill="#288FFF" fill-rule="nonzero"></path>
                <path d="M3.95539221,2.50190664 L4.04562796,2.50208626 C5.977105,2.6790835 7.12799801,3.52488465 7.33906318,5.02017483 C7.47407201,5.97664423 7.27988721,6.67955836 6.71295725,7.77828517 L6.3255063,8.5102159 L6.2592712,8.64358898 C6.07072685,9.02848679 5.96608497,9.3282457 5.92944203,9.61484645 C5.83285466,10.3702993 6.06866672,10.8670424 6.66991905,11.2044987 C6.91072592,11.3396529 6.99637431,11.6444296 6.86122008,11.8852365 C6.72606586,12.1260433 6.42128918,12.2116917 6.18048231,12.0765375 C5.21568771,11.535041 4.79035215,10.6390626 4.93751645,9.48802518 C4.98157287,9.14344033 5.08491165,8.81101759 5.25274709,8.43498049 L5.47197706,7.98358255 L5.704186,7.54795918 C6.27565837,6.4807485 6.45547368,5.91511301 6.34887887,5.15994263 C6.21112293,4.18401129 5.46603524,3.63643995 3.95437204,3.49791374 C3.67938188,3.47271411 3.47688664,3.2293622 3.50208626,2.95437204 C3.52448593,2.70993634 3.71925283,2.52278058 3.95539221,2.50190664 Z" id="路径-2" fill="#288FFF" fill-rule="nonzero"></path>
            </g>
        </g>
    </g>
</svg>