<?xml version="1.0" encoding="UTF-8"?>
<svg width="18px" height="19px" viewBox="0 0 18 19" version="1.1" xmlns="http://www.w3.org/2000/svg" xmlns:xlink="http://www.w3.org/1999/xlink">
    <title>HTTP</title>
    <g id="页面-1" stroke="none" stroke-width="1" fill="none" fill-rule="evenodd">
        <g id="工作流-1" transform="translate(-250.000000, -605.000000)">
            <g id="HTTP" transform="translate(250.000000, 605.109215)">
                <rect id="矩形备份-6" x="0" y="0" width="18" height="18"></rect>
                <path d="M14.4118017,1.91184832 C14.7314514,1.91184832 14.9807379,2.16615915 14.9807379,2.48760805 L14.9807379,2.48760805 L14.9803293,6.99384832 L13.7743293,6.99384832 L13.7745128,5.97830858 L2.11031581,5.97830858 L2.11031581,14.9142529 L13.7745128,14.9142529 L13.7743293,14.0498483 L14.9803293,14.0498483 L14.9807379,15.5368058 C14.9807379,15.8059684 14.7788158,16.0372285 14.5229935,16.0807889 L14.4359262,16.0881517 L1.5192655,16.0881517 C1.19961584,16.0881517 0.950329319,15.8338408 0.950329319,15.5123919 L0.950329319,15.5123919 L0.950329319,2.5567806 C0.950329319,2.18853851 1.24585447,1.91184832 1.60973239,1.91184832 L1.60973239,1.91184832 Z M2.79304511,3.52619339 L2.63232066,3.52619339 C2.33325112,3.5709521 2.10335412,3.82526294 2.12573347,4.14671184 C2.15014731,4.44578138 2.40242367,4.69805773 2.70149321,4.69805773 C3.02294211,4.69805773 3.2996323,4.42136754 3.2996323,4.09991864 C3.2996323,3.82322845 3.06973531,3.5709521 2.79304511,3.52619339 L2.79304511,3.52619339 Z M7.51101979,3.52619339 L7.32791598,3.52619339 C7.02884644,3.5709521 6.79894944,3.82526294 6.82132879,4.14671184 C6.84574263,4.44578138 7.09801898,4.69805773 7.39708853,4.69805773 C7.74091678,4.69805773 8.01760698,4.44578138 8.01760698,4.09991864 C8.01760698,3.82322845 7.81008933,3.5709521 7.51101979,3.52619339 L7.51101979,3.52619339 Z M5.16322213,3.52212442 L5.00249768,3.52212442 C4.70342813,3.54653826 4.49591049,3.79881461 4.49591049,4.09788416 C4.49591049,4.4437469 4.74818684,4.69602325 5.09404958,4.69602325 C5.39311912,4.69602325 5.64742996,4.4437469 5.66980932,4.14467735 C5.69218867,3.8456078 5.46229167,3.5709521 5.16322213,3.52212442 L5.16322213,3.52212442 Z" id="形状结合" fill="#999999" fill-rule="nonzero"></path>
                <path d="M4.45940494,12.6757729 L4.45940494,10.9293224 L6.01112933,10.9293224 L6.01112933,12.6757729 L6.94216396,12.6757729 L6.94216396,8.41005217 L6.01112933,8.41005217 L6.01112933,10.162588 L4.45940494,10.162588 L4.45940494,8.41005217 L3.5283703,8.41005217 L3.5283703,12.6757729 L4.45940494,12.6757729 Z M9.44317857,12.6757729 L9.44317857,9.17678658 L10.5020023,9.17678658 L10.5020023,8.41005217 L7.45332023,8.41005217 L7.45332023,9.17678658 L8.51214394,9.17678658 L8.51214394,12.6757729 L9.44317857,12.6757729 Z M12.5283718,12.6757729 L12.5283718,9.17678658 L13.5871955,9.17678658 L13.5871955,8.41005217 L10.5385134,8.41005217 L10.5385134,9.17678658 L11.5973371,9.17678658 L11.5973371,12.6757729 L12.5283718,12.6757729 Z M15.0293864,12.6757729 L15.0293864,11.1605597 L15.3823276,11.1605597 C16.6297923,11.1605597 17.0496707,10.4729328 17.0496707,9.67577246 C17.0496707,8.73256744 16.4228957,8.41005217 15.5587982,8.41005217 L14.0983517,8.41005217 L14.0983517,12.6757729 L15.0293864,12.6757729 Z M15.3336461,10.3999105 L15.0293864,10.3999105 L15.0293864,9.19504216 L15.4066684,9.19504216 C15.8813135,9.19504216 16.0882101,9.38368316 16.0882101,9.80356153 C16.0882101,10.132162 15.9543358,10.3999105 15.3336461,10.3999105 Z" fill="#999999" fill-rule="nonzero"></path>
            </g>
        </g>
    </g>
</svg>