<?xml version="1.0" encoding="UTF-8"?>
<svg width="18px" height="20px" viewBox="0 0 18 20" version="1.1" xmlns="http://www.w3.org/2000/svg" xmlns:xlink="http://www.w3.org/1999/xlink">
    <title>MR备份</title>
    <g id="页面-1" stroke="none" stroke-width="1" fill="none" fill-rule="evenodd">
        <g id="工作流-1" transform="translate(-2059.000000, -580.000000)">
            <g id="MR备份" transform="translate(2059.000000, 580.399538)">
                <rect id="矩形备份-14" x="0" y="0.709677295" width="18" height="18"></rect>
                <path d="M15,4.12617118 C15.5522847,4.12617118 16,4.57388643 16,5.12617118 L16,15.7096773 C16,16.261962 15.5522847,16.7096773 15,16.7096773 L3,16.7096773 C2.44771525,16.7096773 2,16.261962 2,15.7096773 L2,5.12617118 C2,4.57388643 2.44771525,4.12617118 3,4.12617118 L4,4.12571473 L4,5.12571473 L3,5.12617118 L3,15.7096773 L15,15.7096773 L15,5.12617118 L14,5.12571473 L14,4.12571473 L15,4.12617118 Z" id="形状结合" fill="#288FFF" fill-rule="nonzero"></path>
                <path d="M12.5625989,14.258066 C12.6035307,14.258066 12.6427861,14.2418059 12.6717292,14.2128627 C12.7006724,14.1839195 12.7169325,14.1446642 12.7169325,14.1037323 L12.7169325,13.0574921 L13.3805674,13.0574921 C13.4385968,13.0574921 13.4713156,12.9895853 13.4361275,12.9445199 L12.4625906,11.7147891 C12.449494,11.6979037 12.4293256,11.6880228 12.4079565,11.6880228 C12.3865874,11.6880228 12.366419,11.6979037 12.3533224,11.7147891 L11.3810202,12.9445199 C11.3643687,12.9656178 11.3613191,12.9944055 11.3731806,13.0185239 C11.3850422,13.0426423 11.4097047,13.057801 11.4365803,13.0574921 L12.0989805,13.0574921 L12.0989805,13.5617124 L6.60540106,13.5617124 C6.43517517,13.0608977 5.92752954,12.7568324 5.40565782,12.8431004 C4.8837861,12.9293684 4.50099921,13.3806266 4.50099921,13.9095806 C4.50099921,14.4385345 4.8837861,14.8897927 5.40565782,14.9760607 C5.92752954,15.0623287 6.43517517,14.7582634 6.60540106,14.2574487 L12.5625989,14.258066 Z M13.4144161,10.1657327 C13.4144161,9.58295692 12.9524334,9.10509002 12.3699904,9.08539696 C11.8946427,9.08539696 11.4921405,9.39221232 11.3464495,9.81817327 L6.60478373,9.81817327 C6.42778471,9.29588149 5.88599605,8.99056575 5.34754487,9.1096778 C4.80909369,9.22878985 4.44663358,9.73413659 4.50644396,10.2823519 C4.56625434,10.8305673 5.02915711,11.2458668 5.58062543,11.2460685 C6.05535583,11.2460685 6.4584754,10.9392531 6.6041664,10.5126748 L11.3452148,10.5126748 C11.4915231,10.9392531 11.8946427,11.2460685 12.3693731,11.2460685 C12.9524334,11.2263754 13.4144161,10.7485085 13.4144161,10.1657327 Z" id="形状" fill="#288FFF" fill-rule="nonzero"></path>
                <path d="M5.59385993,7.13227005 L5.59385993,3.84643672 L6.41958928,7.13227005 L7.23108191,7.13227005 L8.0596586,3.84643672 L8.0596586,7.13227005 L8.84267781,7.13227005 L8.84267781,2.95806584 L7.5784577,2.95806584 L6.82960661,5.80540841 L6.07221348,2.95806584 L4.81084072,2.95806584 L4.81084072,7.13227005 L5.59385993,7.13227005 Z M10.5254573,7.13227005 L10.5254573,5.38969639 L10.6962978,5.38969639 C10.8899171,5.38969639 11.0313351,5.40535678 11.1205519,5.43667755 C11.2097686,5.46799831 11.2942398,5.52589428 11.3739654,5.61036544 C11.4536909,5.69483661 11.6017528,5.89937071 11.8181508,6.22396777 L11.8181508,6.22396777 L12.4274821,7.13227005 L13.4354414,7.13227005 L12.9257671,6.31793007 C12.7245548,5.99333302 12.5646291,5.76744384 12.4459898,5.64026254 C12.3273506,5.51308124 12.176916,5.39634019 11.994686,5.2900394 C12.3610441,5.23688901 12.6362872,5.10828404 12.8204154,4.90422448 C13.0045435,4.70016493 13.0966076,4.44153132 13.0966076,4.12832363 C13.0966076,3.88155394 13.0358643,3.66230857 12.9143777,3.4705875 C12.7928911,3.27886643 12.6310671,3.14551589 12.4289058,3.07053587 C12.2267445,2.99555585 11.902622,2.95806584 11.4565383,2.95806584 L11.4565383,2.95806584 L9.68264387,2.95806584 L9.68264387,7.13227005 L10.5254573,7.13227005 Z M11.1490253,4.72341823 L10.5254573,4.72341823 L10.5254573,3.66420679 L11.3212605,3.66449734 C11.5806592,3.66565952 11.7396455,3.67030824 11.7982194,3.67844351 C11.9348918,3.70122225 12.0407181,3.75579631 12.1156981,3.8421657 C12.1906781,3.9285351 12.2281681,4.04195424 12.2281681,4.18242314 C12.2281681,4.30770622 12.1996947,4.41210878 12.1427478,4.49563083 C12.085801,4.57915287 12.0070245,4.63799795 11.9064184,4.67216607 C11.8058123,4.70633418 11.5533479,4.72341823 11.1490253,4.72341823 L11.1490253,4.72341823 Z" id="MR" fill="#288FFF" fill-rule="nonzero"></path>
                <g id="形状-2" transform="translate(4.500000, 8.684465)"></g>
            </g>
        </g>
    </g>
</svg>