<?xml version="1.0" encoding="UTF-8"?>
<svg width="18px" height="20px" viewBox="0 0 18 20" version="1.1" xmlns="http://www.w3.org/2000/svg" xmlns:xlink="http://www.w3.org/1999/xlink">
    <title>SQL备份 2</title>
    <g id="页面-1" stroke="none" stroke-width="1" fill="none" fill-rule="evenodd">
        <g id="工作流-1" transform="translate(-250.000000, -355.000000)">
            <g id="SQL备份-2" transform="translate(250.000000, 355.109215)">
                <rect id="矩形备份-7" x="0" y="0" width="18" height="18"></rect>
                <g id="shujuku-3" transform="translate(1.500000, 2.000000)" fill-rule="nonzero">
                    <path d="M-1.74686932e-11,2.81032364 C-1.74686932e-11,-0.610854001 12.6607313,-0.610854001 12.6607313,2.81032364 L12.6607313,2.81032364 L12.66,8.70244041 L11.651,8.70244041 L11.6511036,7.54813631 C10.5393254,8.2506669 8.63158317,8.63177827 6.69385423,8.674184 L6.33036566,8.67816165 C4.27072516,8.67816165 2.1908921,8.28420786 1.0096277,7.54813631 L1.0096277,7.54813631 L1.0096277,9.14468587 C1.0096277,9.67341333 2.88753521,10.7101338 6.33036566,10.7101338 L6.059,10.7064404 L6.05972423,11.744649 C4.21143402,11.7145345 2.3792852,11.3762511 1.22722682,10.7447826 L1.0096277,10.616829 L1.0096277,12.1200737 C1.0096277,12.6488012 2.88753521,13.6855216 6.33036566,13.6855216 L6.059,13.6824404 L6.05969045,14.7200362 C3.09460759,14.6717198 0.167531905,13.8303338 0.00692744961,12.2569739 L-1.74686932e-11,12.1200737 Z M11.6511036,4.28246674 C11.6309111,4.29283395 11.6107185,4.30320115 11.6006222,4.31356836 C11.4895632,4.37577159 11.3684079,4.43797482 11.2472525,4.50017805 C11.2169637,4.52091246 11.1866749,4.54164687 11.156386,4.55201407 C10.9847493,4.62458451 10.8131126,4.69715494 10.6313796,4.75935817 C10.6111871,4.76972538 10.6010908,4.76972538 10.5808983,4.78009258 C10.3991653,4.84229581 10.207336,4.90449904 10.0155067,4.95633507 C10.0054105,4.95633507 9.98521792,4.96670227 9.97512164,4.96670227 L9.60781936,5.05844279 C8.60988063,5.28962151 7.47012315,5.41249208 6.33036566,5.41249208 C5.04813848,5.41249208 3.76591131,5.25698401 2.68560967,4.96670227 C2.6755134,4.96670227 2.65532084,4.95633507 2.64522456,4.95633507 C2.4533953,4.90449904 2.27166232,4.84229581 2.08992933,4.78009258 C2.06973678,4.78009258 2.04954422,4.76972538 2.03944795,4.76972538 C1.85771496,4.69715494 1.68607825,4.63495171 1.51444154,4.55201407 C1.48415271,4.53127966 1.44376761,4.52091246 1.41347878,4.50017805 C1.27432556,4.43684866 1.13941288,4.36411884 1.0096277,4.28246674 L1.0096277,4.28246674 L1.0096277,6.0759932 C1.0096277,6.60472066 2.88753521,7.64144115 6.33036566,7.64144115 C9.7731961,7.64144115 11.6511036,6.60472066 11.6511036,6.0759932 L11.6511036,6.0759932 Z M6.33036566,1.24487569 C2.88753521,1.24487569 1.0096277,2.28159618 1.0096277,2.81032364 C1.0096277,3.33905109 2.88753521,4.37577159 6.33036566,4.37577159 C9.7731961,4.37577159 11.6511036,3.33905109 11.6511036,2.81032364 C11.6511036,2.28159618 9.7731961,1.24487569 6.33036566,1.24487569 Z" id="形状结合" fill="#999999"></path>
                    <path d="M10.6360517,9.23021192 C12.5690483,9.23021192 14.1360517,10.7972153 14.1360517,12.7302119 C14.1360517,14.6632085 12.5690483,16.2302119 10.6360517,16.2302119 C8.70305505,16.2302119 7.13605168,14.6632085 7.13605168,12.7302119 C7.13605168,10.7972153 8.70305505,9.23021192 10.6360517,9.23021192 Z M10.6360517,10.2302119 C9.2553398,10.2302119 8.13605168,11.3495 8.13605168,12.7302119 C8.13605168,14.1109238 9.2553398,15.2302119 10.6360517,15.2302119 C12.0167636,15.2302119 13.1360517,14.1109238 13.1360517,12.7302119 C13.1360517,11.3495 12.0167636,10.2302119 10.6360517,10.2302119 Z" id="椭圆形" fill="#979797"></path>
                    <polygon id="路径-15" fill="#979797" points="9.807 13.016 11.5704913 11.2984918 13.6725901 12.8941142 13.0679807 13.6906364 11.651 12.615 9.86576878 14.3549507 7.64097429 12.5384792 8.2734161 11.7638714"></polygon>
                </g>
            </g>
        </g>
    </g>
</svg>