<?xml version="1.0" encoding="UTF-8"?>
<svg width="18px" height="19px" viewBox="0 0 18 19" version="1.1" xmlns="http://www.w3.org/2000/svg" xmlns:xlink="http://www.w3.org/1999/xlink">
    <title>PYTHON</title>
    <g id="页面-1" stroke="none" stroke-width="1" fill="none" fill-rule="evenodd">
        <g id="工作流-1" transform="translate(-250.000000, -521.000000)">
            <g id="PYTHON" transform="translate(250.000000, 521.109215)">
                <rect id="矩形备份-13" x="0" y="0" width="18" height="18"></rect>
                <path d="M7.46284118,2.68940078 C7.11034436,2.68940078 6.75784754,3.0418976 6.84597174,3.39439442 C6.84597174,3.74689124 7.19846856,4.09938806 7.55096538,4.09938806 C7.9034622,4.09938806 8.25595903,3.74689124 8.25595903,3.39439442 C8.16783482,2.95377339 7.9034622,2.68940078 7.46284118,2.68940078 L7.46284118,2.68940078 Z" id="路径" fill="#999999" fill-rule="nonzero"></path>
                <path d="M16.4956053,7.10063217 C16.1431085,5.69064489 15.3499906,4.89752704 14.2925001,4.89752704 L13.3231339,4.89752704 L13.3231339,3.39941555 C13.3231339,2.25380088 12.4418918,1.28443463 11.1200288,1.10818621 C9.88628989,0.931937804 8.74067522,0.843813599 7.33068793,1.10818621 C5.48007963,1.46068304 5.1275828,2.25380088 5.1275828,3.39941555 L5.1275828,4.80940283 L4.15821655,4.80940283 C2.74822926,4.89752704 1.77886301,5.69064489 1.51449039,7.01250796 C1.16199357,8.51061945 1.16199357,9.47998571 1.51449039,10.889973 C1.86698721,12.2999603 2.66010506,13.0930781 3.89384393,13.0930781 L4.68696178,13.0930781 L4.68696178,14.5030654 C4.68696178,15.5605559 5.48007963,16.3536737 6.8019427,16.7942947 C7.50693635,16.9705432 8.12380578,17.0586674 8.74067522,17.0586674 C9.35754465,17.0586674 9.97441409,16.9705432 10.6794077,16.7942947 C12.4418918,16.2655495 12.7943887,15.2961833 12.7943887,14.5030654 L12.7943887,13.0930781 L14.2043759,13.0930781 C15.6143632,13.0930781 16.0549842,12.0355877 16.4074811,10.9780972 C16.8481021,9.83248253 16.8481021,8.59874366 16.4956053,7.10063217 Z M4.68696178,10.9780972 L4.68696178,12.2118361 L3.89384393,12.2118361 C3.10072609,12.2118361 2.66010506,11.6830908 2.39573244,10.7137246 C2.04323562,9.3918615 2.04323562,8.59874366 2.39573244,7.18875637 C2.66010506,5.9550175 3.71759552,5.69064489 4.24634075,5.69064489 L9.26942045,5.69064489 C9.53379306,5.69064489 9.71004148,5.51439647 9.71004148,5.25002386 C9.71004148,4.98565124 9.53379306,4.80940283 9.26942045,4.80940283 L6.00882486,4.80940283 L6.00882486,3.39941555 C6.00882486,2.6062977 6.09694906,2.16567668 7.41881214,1.98942827 C8.65255101,1.81317986 9.79816568,1.81317986 10.9437803,1.98942827 C11.648774,2.07755247 12.3537676,2.6062977 12.3537676,3.39941555 L12.3537676,6.83625955 C12.3537676,7.6293774 11.7368982,8.24624684 10.9437803,8.24624684 L7.41881214,8.24624684 C5.92070065,8.33437104 4.68696178,9.56810991 4.68696178,10.9780972 Z M15.6143632,10.7137246 C15.1737422,11.9474635 14.9093696,12.2999603 14.2043759,12.2999603 L8.74067522,12.2999603 C8.4763026,12.2999603 8.30005419,12.4762087 8.30005419,12.7405813 C8.30005419,13.0049539 8.4763026,13.1812023 8.74067522,13.1812023 L11.9131466,13.1812023 L11.9131466,14.5911896 C11.9131466,15.208059 11.3844014,15.7368043 10.4150351,16.0011769 C9.26942045,16.3536737 8.21192999,16.3536737 7.06631532,16.0011769 C6.36132168,15.8249285 5.56820383,15.3843075 5.56820383,14.5911896 L5.56820383,11.0662214 C5.56820383,10.0968551 6.44944588,9.21561309 7.41881214,9.21561309 L11.0319046,9.21561309 C12.2656434,9.21561309 13.3231339,8.15812263 13.3231339,6.92438376 L13.3231339,5.77876909 L14.2925001,5.77876909 C14.7331212,5.77876909 15.3499906,5.9550175 15.7024874,7.27688058 C15.96686,8.68686786 15.96686,9.74435832 15.6143632,10.7137246 Z" id="形状" stroke="#979797" stroke-width="0.2" fill="#999999" fill-rule="nonzero"></path>
                <path d="M10.4851236,15.147498 C10.8376204,15.147498 11.1901172,14.7950012 11.1901172,14.4425044 C11.1901172,14.0900076 10.8376204,13.7375108 10.4851236,13.7375108 C10.1326267,13.7375108 9.78012992,14.0900076 9.78012992,14.4425044 C9.78012992,14.7950012 10.1326267,15.147498 10.4851236,15.147498 Z" id="路径" fill="#999999" fill-rule="nonzero"></path>
            </g>
        </g>
    </g>
</svg>