<?xml version="1.0" encoding="UTF-8"?>
<svg width="18px" height="19px" viewBox="0 0 18 19" version="1.1" xmlns="http://www.w3.org/2000/svg" xmlns:xlink="http://www.w3.org/1999/xlink">
    <title>SHELL</title>
    <g id="页面-1" stroke="none" stroke-width="1" fill="none" fill-rule="evenodd">
        <g id="工作流-1" transform="translate(-250.000000, -229.000000)">
            <g id="SHELL" transform="translate(250.000000, 229.109215)">
                <rect id="矩形" x="0" y="0" width="18" height="18"></rect>
                <g id="IC14pingguo6" transform="translate(1.000000, 2.358404)" fill="#999999" fill-rule="nonzero">
                    <path d="M14.0992159,0.641290924 L1.7873585,0.641290924 C1.22135225,0.646039911 0.764220195,1.12365231 0.764220195,1.71252669 L0.764220195,12.3638259 C0.764220195,12.9520219 1.22065434,13.4289558 1.78666059,13.4343832 L14.098518,13.4343832 C14.6638263,13.4296343 15.1209584,12.9520219 15.1209584,12.3638259 L15.1209584,1.71252669 C15.1209584,1.12433074 14.6645242,0.647396764 14.098518,0.64196935 L14.0992159,0.641290924 Z M12.5540397,1.71252669 C12.8387876,1.7077777 13.072588,1.94319176 13.0774734,2.23898581 C13.0816608,2.53477985 12.8541417,2.77833503 12.5700917,2.78240559 C12.2860417,2.78715458 12.0515434,2.55174052 12.046658,2.25594647 L12.046658,2.24780535 C12.046658,1.95540344 12.2727814,1.71727567 12.5540397,1.71184826 L12.5540397,1.71252669 Z M10.5098568,1.71252669 C10.7946048,1.71252669 11.0249156,1.95201131 11.0249156,2.24780535 C11.0249156,2.54292097 10.7946048,2.78240559 10.5098568,2.78240559 C10.2258069,2.78240559 9.99479814,2.54292097 9.99479814,2.24780535 C9.99479814,1.95201131 10.2251089,1.71184826 10.5098568,1.71184826 L10.5098568,1.71252669 Z M8.45799694,1.71252669 C8.74204693,1.71252669 8.97305565,1.95201131 8.97305565,2.24780535 C8.97305565,2.54292097 8.74274485,2.78240559 8.45799694,2.78240559 C8.17324903,2.78240559 7.94293823,2.54224254 7.94293823,2.24712693 C7.94293823,1.95133288 8.17324903,1.71116983 8.45799694,1.71116983 L8.45799694,1.71252669 Z M14.1543509,11.8787508 C14.1543509,12.1928624 13.9093839,12.446594 13.6071882,12.446594 L2.26193835,12.446594 C1.95974265,12.446594 1.71547362,12.1928624 1.71547362,11.8787508 L1.71547362,3.86042562 L14.1543509,3.86042562 L14.1543509,11.8794292 L14.1543509,11.8787508 Z M3.60053267,11.1053444 C3.69250112,11.2073868 3.82528044,11.2659067 3.96484249,11.2659067 C4.10440453,11.2659067 4.23718386,11.2073868 4.32915231,11.1053444 L6.8883939,8.4459117 C7.08577989,8.23000664 7.08577989,7.90469256 6.8883939,7.6887875 L4.32915231,5.02935483 C4.22904175,4.93609723 4.093099,4.88822972 3.95477218,4.89752989 C3.81644536,4.90683005 3.68857622,4.9724345 3.6026264,5.07820155 C3.43850629,5.27604988 3.43107145,5.55624576 3.5844807,5.76205567 L5.7870895,8.04224781 L3.60053267,10.3556829 C3.40391441,10.5690233 3.40391441,10.892004 3.60053267,11.1053444 L3.60053267,11.1053444 Z M7.22967264,10.734245 C7.2331622,11.0266469 7.46277509,11.2613825 7.74403344,11.2613825 L11.8561282,11.2613825 C12.1387824,11.2980176 12.3956138,11.0897406 12.4312073,10.7966602 C12.4661029,10.5035799 12.2658023,10.2362798 11.983846,10.1996447 C11.9414622,10.1941325 11.898512,10.1941325 11.8561282,10.1996447 L7.74403344,10.1996447 C7.45998345,10.1996447 7.22897473,10.4391293 7.22897473,10.734245 L7.22967264,10.734245 Z" id="形状"></path>
                </g>
            </g>
        </g>
    </g>
</svg>