<?xml version="1.0" encoding="UTF-8"?>
<svg width="18px" height="19px" viewBox="0 0 18 19" version="1.1" xmlns="http://www.w3.org/2000/svg" xmlns:xlink="http://www.w3.org/1999/xlink">
    <title>编组 4</title>
    <g id="页面-1" stroke="none" stroke-width="1" fill="none" fill-rule="evenodd">
        <g id="工作流-1" transform="translate(-250.000000, -479.000000)">
            <g id="编组-4" transform="translate(250.000000, 479.109215)">
                <rect id="矩形" x="0" y="0" width="18" height="18"></rect>
                <g id="spark" transform="translate(0.500000, 1.000000)" fill="#999999" fill-rule="nonzero">
                    <path d="M12.7896161,8.08110697 C12.7896161,8.08110697 13.3891454,7.43818318 14.3906448,6.31335202 C15.3921442,5.18852086 16.1127213,4.06140578 15.6730665,3.57949842 C15.5520187,2.81438484 10.5468055,4.22242222 10.5468055,4.22242222 C10.5468055,4.22242222 9.62524336,2.69219506 8.62374394,1.16539379 C7.38129085,-0.241501629 6.54080787,1.80831759 6.54080787,1.80831759 L5.74029351,5.6681443 C5.74029351,5.6681443 2.61703137,6.59313236 1.41454689,7.11729226 C0.492984713,7.76021605 1.25467241,8.88504721 1.25467241,8.88504721 L4.4578718,10.3330532 L5.56041056,9.50165542 L2.21256578,8 L6.73529695,6.51378256 L7.71080656,2.11147788 L9.9714233,5.55378198 L14.5516612,4.43006197 L11.3443617,8.08110697 L13.2703815,12.0884267 L9.83058692,11.0091776 L10.0660401,12.4216991 C10.0660401,12.4216991 12.4687252,13.1445601 13.2703815,13.2267813 C14.7126777,13.3466871 14.5516612,11.7787753 14.5516612,11.7787753 L12.7896161,8.08110697 Z M5.2347924,14.30403 L5.70819715,10.8777775 L4.48185297,11.8290216 C4.48185297,11.8290216 4.19522087,14.0295796 4.14383264,14.6610838 C4.05590168,15.6865643 5.58270295,15.5061346 5.58270295,15.5061346 L8.3816483,12.9481429 L8,11.7088907 L5.2347924,14.30403 Z" id="形状"></path>
                </g>
            </g>
        </g>
    </g>
</svg>