<?xml version="1.0" encoding="UTF-8"?>
<svg width="18px" height="19px" viewBox="0 0 18 19" version="1.1" xmlns="http://www.w3.org/2000/svg" xmlns:xlink="http://www.w3.org/1999/xlink">
    <title>SQL备份</title>
    <g id="页面-1" stroke="none" stroke-width="1" fill="none" fill-rule="evenodd">
        <g id="工作流-1" transform="translate(-2059.000000, -497.000000)">
            <g id="SQL备份" transform="translate(2059.000000, 497.054271)">
                <rect id="矩形备份-7" x="0" y="0" width="18" height="18"></rect>
                <g id="shujuku-3" transform="translate(1.500000, 2.000000)" fill="#288FFF" fill-rule="nonzero">
                    <path d="M-1.59872116e-13,2.81032364 C-1.59872116e-13,-0.610854001 12.6607313,-0.610854001 12.6607313,2.81032364 L12.6607313,2.81032364 L12.66,9.03344041 L11.651,9.03344041 L11.6511036,7.54813631 C10.5393254,8.2506669 8.63158317,8.63177827 6.69385423,8.674184 L6.33036566,8.67816165 C4.27072516,8.67816165 2.1908921,8.28420786 1.0096277,7.54813631 L1.0096277,7.54813631 L1.0096277,9.14468587 C1.0096277,9.5381037 2.04935286,10.2127777 3.99986265,10.532331 L3.99985624,11.5782075 C2.80537959,11.3985944 1.73710506,11.0765206 1.0096277,10.616829 L1.0096277,10.616829 L1.0096277,12.1200737 C1.0096277,12.5134915 2.04935286,13.1881656 3.99986265,13.5077188 L4.00025818,14.5537635 C1.78582986,14.2212322 -1.59872116e-13,13.3998719 -1.59872116e-13,12.1200737 L-1.59872116e-13,12.1200737 Z M11.6511036,4.28246674 C11.6309111,4.29283395 11.6107185,4.30320115 11.6006222,4.31356836 C11.4895632,4.37577159 11.3684079,4.43797482 11.2472525,4.50017805 C11.2169637,4.52091246 11.1866749,4.54164687 11.156386,4.55201407 C10.9847493,4.62458451 10.8131126,4.69715494 10.6313796,4.75935817 C10.6111871,4.76972538 10.6010908,4.76972538 10.5808983,4.78009258 C10.3991653,4.84229581 10.207336,4.90449904 10.0155067,4.95633507 C10.0054105,4.95633507 9.98521792,4.96670227 9.97512164,4.96670227 L9.60781936,5.05844279 C8.60988063,5.28962151 7.47012315,5.41249208 6.33036566,5.41249208 C5.04813848,5.41249208 3.76591131,5.25698401 2.68560967,4.96670227 C2.6755134,4.96670227 2.65532084,4.95633507 2.64522456,4.95633507 C2.4533953,4.90449904 2.27166232,4.84229581 2.08992933,4.78009258 C2.06973678,4.78009258 2.04954422,4.76972538 2.03944795,4.76972538 C1.85771496,4.69715494 1.68607825,4.63495171 1.51444154,4.55201407 C1.48415271,4.53127966 1.44376761,4.52091246 1.41347878,4.50017805 C1.27432556,4.43684866 1.13941288,4.36411884 1.0096277,4.28246674 L1.0096277,4.28246674 L1.0096277,6.0759932 C1.0096277,6.60472066 2.88753521,7.64144115 6.33036566,7.64144115 C9.7731961,7.64144115 11.6511036,6.60472066 11.6511036,6.0759932 L11.6511036,6.0759932 Z M6.33036566,1.24487569 C2.88753521,1.24487569 1.0096277,2.28159618 1.0096277,2.81032364 C1.0096277,3.33905109 2.88753521,4.37577159 6.33036566,4.37577159 C9.7731961,4.37577159 11.6511036,3.33905109 11.6511036,2.81032364 C11.6511036,2.28159618 9.7731961,1.24487569 6.33036566,1.24487569 Z" id="形状结合"></path>
                </g>
                <path d="M8.96900672,14.1124254 C8.75093353,13.9854695 8.46863331,13.8807309 8.11911875,13.7997965 C7.6725168,13.6950579 7.46041822,13.5395369 7.48132935,13.3316466 C7.50373413,13.0999521 7.67102315,12.979344 7.98767737,12.9666484 C8.37901419,12.9666484 8.60306199,13.1523214 8.65683346,13.5220805 L9.45743092,13.3665595 C9.31553398,12.6254544 8.81516057,12.266804 7.95481703,12.2906082 C7.13778939,12.3366297 6.69716206,12.6778237 6.63144137,13.3141902 C6.60903659,13.9045351 6.93017177,14.2742942 7.5948469,14.4250544 C7.80097087,14.4599672 8.04144884,14.529793 8.3132935,14.6329447 C8.5746826,14.7487919 8.70014937,14.9106607 8.6896938,15.118551 C8.66728902,15.4200713 8.47759522,15.5755923 8.11762509,15.5867009 C7.63816281,15.5867009 7.36631815,15.3200935 7.30059746,14.7884656 L6.5,14.9614431 C6.67475728,15.8183954 7.2184466,16.2405238 8.13405527,16.2278282 C9.04817028,16.204024 9.52315161,15.8231563 9.55601195,15.0820512 C9.54555639,14.6678575 9.34988798,14.34412 8.96900672,14.1124254 L8.96900672,14.1124254 Z M13.4126214,14.2695334 C13.3364451,13.0190177 12.7479462,12.358847 11.6486184,12.2906082 C10.4940254,12.3493253 9.88909634,13.0079091 9.83532487,14.2695334 C9.87864078,15.3915062 10.401419,16.0405683 11.4036594,16.2135457 L12.1878267,17.289497 L13.0870052,17.0117809 L12.2371173,16.1437199 C12.9988798,15.8533083 13.3902166,15.2296374 13.4126214,14.2695334 Z M11.615758,15.5184621 C11.0168036,15.4724406 10.706124,15.055073 10.6852128,14.2679464 C10.7180732,13.4808198 11.0287528,13.0650392 11.615758,13.0174308 C12.2042569,13.0523436 12.5089619,13.4681242 12.529873,14.2679464 C12.5089619,15.0788773 12.2042569,15.4946579 11.615758,15.5184621 L11.615758,15.5184621 Z M14.6538462,15.4835492 L14.6538462,12.3413905 L13.8368185,12.3413905 L13.8368185,16.1611764 L16.5,16.1611764 L16.5,15.4835492 L14.6538462,15.4835492 Z" id="形状" fill="#288FFF" fill-rule="nonzero"></path>
            </g>
        </g>
    </g>
</svg>