<?xml version="1.0" encoding="UTF-8"?>
<svg width="18px" height="19px" viewBox="0 0 18 19" version="1.1" xmlns="http://www.w3.org/2000/svg" xmlns:xlink="http://www.w3.org/1999/xlink">
    <title>编组 3备份 10</title>
    <g id="页面-1" stroke="none" stroke-width="1" fill="none" fill-rule="evenodd">
        <g id="工作流-1" transform="translate(-2059.000000, -791.000000)">
            <g id="编组-3备份-10" transform="translate(2059.000000, 791.109215)">
                <rect id="矩形备份-21" x="0" y="0" width="18" height="18"></rect>
                <path d="M9,1.14850822 C13.3362592,1.14850822 16.8514918,4.66374083 16.8514918,9 C16.8514918,13.3362592 13.3362592,16.8514918 9,16.8514918 C4.66374083,16.8514918 1.14850822,13.3362592 1.14850822,9 C1.14850822,4.66374083 4.66374083,1.14850822 9,1.14850822 Z M8.99975203,3.61467762 C7.57080807,3.61091184 6.19972679,4.17889797 5.19206977,5.19207243 C4.17877258,6.19985082 3.61077625,7.57113577 3.61467363,9.00025197 C3.61467363,10.2484278 4.03688551,11.4324544 4.81314148,12.3882289 L4.9265216,12.5234894 L7.44077541,12.5060845 L7.61631568,13.0282298 L6.63766626,13.8273607 L6.62175326,13.8348199 C7.36155962,14.1986879 8.17530659,14.3870647 8.99975203,14.3853224 C10.4383866,14.3853224 11.7904942,13.8253716 12.8079316,12.8079342 C13.821106,11.8002772 14.3890922,10.4291959 14.3853264,9.00025197 C14.3853264,7.79882056 13.9944445,6.65756017 13.2728895,5.72117964 L13.1624931,5.58243818 L10.2434523,5.58243818 L10.0778577,5.09609715 L11.2683489,4.11346948 C10.5576386,3.7835646 9.78329816,3.61331834 8.99975203,3.61467762 Z" id="形状结合" fill="#288FFF" fill-rule="nonzero"></path>
            </g>
        </g>
    </g>
</svg>