<?xml version="1.0" encoding="UTF-8"?>
<svg width="18px" height="19px" viewBox="0 0 18 19" version="1.1" xmlns="http://www.w3.org/2000/svg" xmlns:xlink="http://www.w3.org/1999/xlink">
    <title>SUB</title>
    <g id="页面-1" stroke="none" stroke-width="1" fill="none" fill-rule="evenodd">
        <g id="工作流-1" transform="translate(-250.000000, -271.000000)">
            <g id="SUB" transform="translate(250.000000, 271.109215)">
                <rect id="矩形备份-3" x="0" y="0" width="18" height="18"></rect>
                <g id="sub-process" transform="translate(1.500000, 2.000000)" fill="#999999" fill-rule="nonzero">
                    <path d="M13.9433479,9.25074011 L12.9389648,9.25074011 L12.9389648,6.63968542 C12.9389648,6.30759443 12.6687674,6.03739701 12.3366764,6.03739701 L8.11766958,6.03739701 L8.11766958,4.02820388 L9.12205273,4.02820388 C9.45457056,4.02820388 9.72476798,3.75800646 9.72476798,3.42548862 L9.72476798,0.61338656 C9.72476798,0.280441872 9.45457056,0.0106713041 9.12205273,0.0106713041 L6.30995067,0.0106713041 C5.97743283,0.0106713041 5.70723541,0.280868724 5.70723541,0.61338656 L5.70723541,3.42548862 C5.70723541,3.75800646 5.97743283,4.02820388 6.30995067,4.02820388 L7.31433381,4.02820388 L7.31433381,6.03697016 L3.09618072,6.03697016 C2.76408974,6.03697016 2.49389232,6.30716758 2.49389232,6.63925856 L2.49389232,9.25074011 L1.48950917,9.25074011 C1.15656449,9.25074011 0.886793918,9.52093753 0.886793918,9.85388221 L0.886793918,12.6659843 C0.886793918,12.9985021 1.15699134,13.2686995 1.48950917,13.2686995 L4.30161123,13.2686995 C4.63412907,13.2686995 4.90432649,12.9985021 4.90432649,12.6659843 L4.90432649,9.85388221 C4.90432649,9.52093753 4.63412907,9.25116696 4.30161123,9.25116696 L3.29722809,9.25116696 L3.29722809,6.84030593 L7.31476066,6.84030593 L7.31476066,9.25074011 L6.31037752,9.25074011 C5.97785968,9.25074011 5.70766226,9.52093753 5.70766226,9.85345536 L5.70766226,12.6655574 C5.70766226,12.9980753 5.97785968,13.2682727 6.31037752,13.2682727 L9.12247958,13.2682727 C9.45499741,13.2682727 9.72519483,12.9980753 9.72519483,12.6655574 L9.72519483,9.85388221 C9.72519483,9.52093753 9.45499741,9.25116696 9.12247958,9.25116696 L8.11809643,9.25116696 L8.11809643,6.84030593 L12.135629,6.84030593 L12.135629,9.25074011 L11.1312459,9.25074011 C10.798728,9.25074011 10.5285306,9.52093753 10.5285306,9.85345536 L10.5285306,12.6655574 C10.5285306,12.9980753 10.798728,13.2682727 11.1312459,13.2682727 L13.9433479,13.2682727 C14.2762926,13.2682727 14.5460632,12.9980753 14.5460632,12.6655574 L14.5460632,9.85388221 C14.5460632,9.52093753 14.2758658,9.25116696 13.9433479,9.25116696 L13.9433479,9.25074011 Z M4.10099072,10.0545027 L4.10099072,12.4649369 L1.69012969,12.4649369 L1.69012969,10.0545027 L4.10099072,10.0545027 Z M8.92228591,12.4649369 L6.51142489,12.4649369 L6.51142489,10.0545027 L8.92228591,10.0545027 L8.92228591,12.4649369 Z M13.7431543,12.4649369 L11.3318664,12.4649369 L11.3318664,10.0545027 L13.7423006,10.0545027 L13.7423006,12.4649369 L13.7431543,12.4649369 Z" id="形状"></path>
                </g>
            </g>
        </g>
    </g>
</svg>