<?xml version="1.0" encoding="UTF-8"?>
<svg width="18px" height="19px" viewBox="0 0 18 19" version="1.1" xmlns="http://www.w3.org/2000/svg" xmlns:xlink="http://www.w3.org/1999/xlink">
    <title>waterdrop</title>
    <g id="页面-1" stroke="none" stroke-width="1" fill="none" fill-rule="evenodd">
        <g id="工作流-1" transform="translate(-250.000000, -271.000000)">
            <g id="waterdrop" transform="translate(250.000000, 271.109215)">
                <rect id="矩形" x="0" y="0" width="18" height="18"></rect>
                <path d="M9.49170526,1.40496167 L9.00200492,1.06110105 L8.51230457,1.40496167 C2.43252756,5.96747039 2.38436031,10.8711638 2.38436031,11.0865784 C2.38436031,14.311108 5.37474359,16.9388989 9.00066694,16.9388989 C12.6265903,16.9388989 15.6156376,14.313784 15.6156376,11.0865784 C15.6196495,5.96747039 9.73789341,1.57889895 9.49170526,1.40496167 Z M9.00069979,15.8388358 C6.02151669,15.8388358 3.60732688,13.7190594 3.60732688,11.0595251 C3.60732688,11.0146622 3.65779775,6.59565738 9.00069979,2.35750656 C10.3872467,3.52955224 14.3940727,7.13681724 14.3926711,11.0595251 C14.3926711,13.6755984 11.9826868,15.8402378 9.00069979,15.8402378 L9.00069979,15.8388358 Z M7.13461793,8.32250416 L6.28551548,7.68194603 C6.21411369,7.75053775 4.85973312,10.0014239 5.17814653,11.6730704 C5.30556653,12.674331 6.35310162,13.6496126 7.3477867,14.0949791 L7.90150779,13.2769238 C7.02176977,12.7838416 6.28551548,12.1265409 6.23855971,11.4584447 C5.99154809,10.2514518 7.13461793,8.32250416 7.13461793,8.32250416 Z" id="形状" fill="#999999" fill-rule="nonzero"></path>
            </g>
        </g>
    </g>
</svg>