<!-- Licensed to the Apache Software Foundation (ASF) under one or more
contributor license agreements.  See the NOTICE file distributed with
this work for additional information regarding copyright ownership.
The ASF licenses this file to You under the Apache License, Version 2.0
(the "License"); you may not use this file except in compliance with
the License.  You may obtain a copy of the License at

     http://www.apache.org/licenses/LICENSE-2.0

Unless required by applicable law or agreed to in writing, software
distributed under the License is distributed on an "AS IS" BASIS,
WITHOUT WARRANTIES OR CONDITIONS OF ANY KIND, either express or implied.
See the License for the specific language governing permissions and
limitations under the License. -->
<!--<?xml version="1.0" encoding="utf-8"?>-->
<!-- Generator: Adobe Illustrator 21.0.0, SVG Export Plug-In . SVG Version: 6.00 Build 0)  -->
<svg version="1.1" id="图层_1" xmlns="http://www.w3.org/2000/svg" xmlns:xlink="http://www.w3.org/1999/xlink" x="0px" y="0px"
	 viewBox="0 0 180 46" style="enable-background:new 0 0 180 46;" xml:space="preserve">
<style type="text/css">
	.st0{fill:#85CDF0;}
	.st1{fill:#0097E0;}
	.st2{fill:#FFFFFF;}
</style>
<g>
	<path class="st0" d="M29.9,25.6H14.5c-2.1,0-3.8,1.8-3.8,3.9c0,0.8,0.2,1.6,0.7,2.2c0.3-0.1,0.6-0.2,0.9-0.3l0,0l0,0
		c1-0.4,2.1-1.2,2.8-1.8c0.2-0.1,0.3-0.2,0.4-0.3c0.1-0.1,0.2-0.2,0.4-0.3c0.6-0.5,1.4-1.1,2.6-1.3c0.2,0,0.4,0,0.7,0
		c1,0,1.9,0.3,2.5,0.9c0.2-0.1,0.4-0.2,0.5-0.3c0.3-0.1,0.5-0.3,0.7-0.4s0.5-0.2,0.8-0.2c0.6,0,1.2,0.3,1.5,0.9
		c0.2,0.4,0.4,1.1-0.2,2.2c-0.1,0.2-0.3,0.4-0.4,0.7c-0.3,0.6-0.7,1.2-1.3,2h6.6c2.1,0,3.8-1.8,3.8-3.9C33.7,27.4,32,25.6,29.9,25.6
		z"/>
	<path class="st1" d="M5.7,20.3h1c0.6,0,1-0.4,1-1s-0.4-1-1-1h-1c-2.1,0-3.7-1.7-3.7-3.9c0-2.1,1.6-3.8,3.6-3.9v2.1l2.8-2.9l-2.8-3
		v1.7c-3,0.2-5.6,2.8-5.6,6C0,17.7,2.5,20.3,5.7,20.3z"/>
	<path class="st1" d="M38.4,18.6h-1c-0.6,0-1,0.4-1,1s0.4,1,1,1h1c2.1,0,3.7,1.7,3.7,3.9c0,2.1-1.6,3.8-3.6,3.9v-2.1L35.7,29l2.8,3
		v-1.7c3-0.1,5.5-2.6,5.5-5.9C44.1,21.1,41.6,18.6,38.4,18.6z"/>
	<path class="st0" d="M29.9,15.3H14.5c-2.1,0-3.8,1.8-3.8,3.9s1.7,3.9,3.8,3.9h15.4c2.1,0,3.8-1.8,3.8-3.9S32,15.3,29.9,15.3z"/>
	<path class="st0" d="M29.9,5.1H14.5c-2.1,0-3.8,1.8-3.8,3.9l0,0c0,2.2,1.7,3.9,3.8,3.9h15.4c2.1,0,3.8-1.8,3.8-3.9l0,0
		C33.7,6.8,32,5.1,29.9,5.1z"/>
	<path class="st1" d="M19.5,39c0.2,1.3-0.4,1-0.9,0.6c-0.3-0.2-1.2-0.7-1.7-1c0.8-0.4,1.5-0.9,2-1.3C19.2,37.8,19.4,38.4,19.5,39z
		 M18.4,31c-0.1,0-0.2,0.1-0.2,0.2s0.1,0.2,0.2,0.2s0.2-0.1,0.2-0.2S18.5,31,18.4,31z M24.2,30.3c-0.8,1.3-1.8,3.3-4.6,5.9
		c-0.6,0.6-1.9,1.5-3.2,2.1c-0.4,0.2-1,0.4-1.6,0.6c0.4-0.6,0.6-1.2,0.7-1.8h-0.3c-0.7,2.3-2.4,4.3-4.5,5c-1.3,0.4-1-0.3-0.8-0.9
		c0.2-0.4,0.7-2.4,0.9-3.4l-0.4-0.1c0,0,0,0.2-0.1,0.4s-0.1,0.5-0.2,0.8c-1.2-0.4-2.4-1-3.3-2.1c-1.3-1.6-1.9-3.1-2.2-5.9
		c-0.1-0.7-0.8-1.4-1.6-2.3c-1-1.1-1-2.7-0.4-2.9c0.4-0.1,2.5,0.9,3.2,1.4c0.8-0.6,2-1.6,2.4-1.3C8.5,26,8.6,27,7.9,28.5
		c-1.5,3.1,0.6,4,1.1,4.1c0.9,0.2,2.3,0.3,3.7-0.3c1.3-0.5,2.9-1.8,3.4-2.2c0.7-0.5,1.4-1.2,2.5-1.4c1.3-0.2,2.3,0.2,2.8,1.1
		c0.6-0.2,1.4-0.8,2-1C23.9,28.5,25,28.9,24.2,30.3z M18.8,31.4c0-0.3-0.2-0.6-0.5-0.6s-0.5,0.3-0.5,0.6S18,32,18.3,32
		C18.6,31.9,18.8,31.7,18.8,31.4z"/>
	<g>
		<path class="st2" d="M49,17.6h4.8c1.6,0,2.9,0.6,3.8,1.8c0.8,1.1,1.2,2.5,1.2,4.2c0,1.3-0.2,2.5-0.7,3.6c-0.8,1.9-2.3,2.8-4.3,2.8
			H49V17.6z M53.5,28.6c0.5,0,1-0.1,1.3-0.2c0.6-0.2,1.1-0.6,1.5-1.3c0.3-0.5,0.5-1.1,0.7-1.9c0.1-0.5,0.1-0.9,0.1-1.3
			c0-1.5-0.3-2.7-0.9-3.6c-0.6-0.8-1.5-1.3-2.8-1.3h-2.8v9.5L53.5,28.6L53.5,28.6z"/>
		<path class="st2" d="M67.3,21.9c0.8,0.8,1.2,1.9,1.2,3.4s-0.3,2.7-1,3.6c-0.7,1-1.7,1.4-3.2,1.4c-1.2,0-2.2-0.4-2.9-1.3
			c-0.7-0.8-1.1-2-1.1-3.4c0-1.5,0.4-2.7,1.1-3.6c0.7-0.9,1.7-1.4,3-1.4C65.5,20.7,66.5,21.1,67.3,21.9z M66.3,27.9
			c0.4-0.8,0.5-1.6,0.5-2.5c0-0.8-0.1-1.5-0.4-2.1c-0.4-0.8-1.1-1.2-2.1-1.2c-0.9,0-1.5,0.4-1.9,1.1s-0.6,1.6-0.6,2.6
			s0.2,1.8,0.6,2.4c0.4,0.6,1,1,1.9,1C65.3,29.1,66,28.7,66.3,27.9z"/>
		<path class="st2" d="M70.3,17.6h1.5V30h-1.5V17.6z"/>
		<path class="st2" d="M73.8,21h1.4v1.2c0.3-0.4,0.6-0.7,1-1c0.5-0.3,1.1-0.5,1.8-0.5c1,0,1.8,0.4,2.5,1.2c0.7,0.8,1,1.9,1,3.4
			c0,2-0.5,3.4-1.5,4.2c-0.6,0.5-1.4,0.8-2.2,0.8c-0.7,0-1.2-0.1-1.7-0.4c-0.3-0.2-0.6-0.5-0.9-0.9v4.6h-1.5L73.8,21L73.8,21z
			 M79.4,28.1c0.5-0.6,0.7-1.5,0.7-2.7c0-0.7-0.1-1.3-0.3-1.9c-0.4-1-1.1-1.5-2.1-1.5s-1.7,0.5-2.1,1.6c-0.2,0.6-0.3,1.3-0.3,2.1
			c0,0.7,0.1,1.3,0.3,1.8c0.4,0.9,1.1,1.4,2.1,1.4C78.4,29,78.9,28.7,79.4,28.1z"/>
		<path class="st2" d="M83.3,17.6h1.5v4.6c0.3-0.5,0.7-0.8,0.9-1c0.5-0.3,1.1-0.5,1.8-0.5c1.3,0,2.1,0.5,2.6,1.4
			c0.2,0.5,0.4,1.2,0.4,2.1V30H89v-5.7c0-0.7-0.1-1.2-0.2-1.5c-0.3-0.5-0.8-0.7-1.5-0.7c-0.6,0-1.2,0.2-1.7,0.7
			c-0.5,0.4-0.7,1.3-0.7,2.5V30h-1.5V17.6H83.3z"/>
		<path class="st2" d="M92.6,17.6h1.5v1.7h-1.5V17.6z M92.6,21h1.5v9h-1.5V21z"/>
		<path class="st2" d="M96.4,21h1.4v1.3c0.4-0.5,0.9-0.9,1.3-1.1c0.5-0.2,1-0.3,1.5-0.3c1.2,0,2.1,0.4,2.5,1.3
			c0.2,0.5,0.4,1.2,0.4,2.1V30H102v-5.7c0-0.6-0.1-1-0.2-1.3c-0.3-0.6-0.7-0.8-1.4-0.8c-0.3,0-0.6,0-0.9,0.1
			c-0.4,0.1-0.8,0.4-1.1,0.7c-0.2,0.3-0.4,0.6-0.5,0.9s-0.1,0.8-0.1,1.4V30h-1.5L96.4,21L96.4,21z"/>
		<path class="st2" d="M107,26c0,0.7,0.2,1.3,0.5,1.7c0.5,0.8,1.4,1.2,2.8,1.2c0.6,0,1.1-0.1,1.6-0.3c0.9-0.3,1.4-1,1.4-1.9
			c0-0.7-0.2-1.2-0.6-1.4c-0.4-0.3-1-0.5-1.9-0.7l-1.6-0.4c-1-0.2-1.8-0.5-2.2-0.8c-0.7-0.5-1.1-1.3-1.1-2.3c0-1.1,0.4-2,1.1-2.7
			s1.8-1.1,3.1-1.1c1.2,0,2.3,0.3,3.1,0.9c0.9,0.6,1.3,1.6,1.3,3H113c-0.1-0.7-0.2-1.2-0.5-1.5c-0.5-0.6-1.3-1-2.4-1
			c-0.9,0-1.6,0.2-2,0.6s-0.6,0.9-0.6,1.5s0.2,1.1,0.7,1.3c0.3,0.2,1,0.4,2.1,0.7l1.6,0.4c0.8,0.2,1.4,0.5,1.8,0.8
			c0.7,0.6,1.1,1.4,1.1,2.5c0,1.4-0.5,2.4-1.4,2.9c-0.9,0.6-2,0.9-3.3,0.9c-1.5,0-2.6-0.4-3.4-1.2c-0.8-0.8-1.2-1.8-1.2-3.2h1.5V26z
			"/>
		<path class="st2" d="M122.7,21.5c0.6,0.5,1,1.3,1.1,2.6h-1.4c-0.1-0.6-0.3-1-0.6-1.4c-0.3-0.4-0.8-0.6-1.5-0.6
			c-0.9,0-1.6,0.5-2,1.4c-0.3,0.6-0.4,1.4-0.4,2.3s0.2,1.7,0.6,2.3c0.4,0.6,1,0.9,1.8,0.9c0.6,0,1.1-0.2,1.5-0.6s0.6-0.9,0.7-1.6
			h1.4c-0.2,1.2-0.6,2.1-1.2,2.6c-0.7,0.6-1.5,0.8-2.5,0.8c-1.1,0-2.1-0.4-2.7-1.3c-0.7-0.9-1-1.9-1-3.2c0-1.6,0.4-2.8,1.1-3.7
			c0.7-0.9,1.7-1.3,2.9-1.3C121.3,20.7,122.1,21,122.7,21.5z"/>
		<path class="st2" d="M125.3,17.6h1.5v4.6c0.3-0.5,0.7-0.8,0.9-1c0.5-0.3,1.1-0.5,1.8-0.5c1.3,0,2.1,0.5,2.6,1.4
			c0.2,0.5,0.4,1.2,0.4,2.1V30H131v-5.7c0-0.7-0.1-1.2-0.2-1.5c-0.3-0.5-0.8-0.7-1.5-0.7c-0.6,0-1.2,0.2-1.7,0.7
			c-0.5,0.4-0.7,1.3-0.7,2.5V30h-1.5V17.6H125.3z"/>
		<path class="st2" d="M140,21.2c0.6,0.3,1,0.7,1.3,1.2s0.5,1,0.6,1.6c0.1,0.4,0.1,1.1,0.1,2h-6.4c0,0.9,0.2,1.7,0.6,2.2
			c0.4,0.6,1,0.8,1.8,0.8s1.4-0.3,1.8-0.8c0.3-0.3,0.4-0.7,0.5-1.1h1.5c0,0.3-0.2,0.7-0.4,1.1s-0.5,0.7-0.7,1
			c-0.4,0.5-1,0.8-1.7,0.9c-0.4,0.1-0.8,0.1-1.2,0.1c-1.1,0-2-0.4-2.8-1.2c-0.8-0.8-1.1-2-1.1-3.4c0-1.5,0.4-2.6,1.1-3.5
			c0.8-0.9,1.8-1.4,3-1.4C138.9,20.8,139.5,20.9,140,21.2z M140.6,24.8c-0.1-0.7-0.2-1.2-0.4-1.6c-0.4-0.7-1.1-1.1-2-1.1
			c-0.7,0-1.2,0.3-1.7,0.8s-0.7,1.1-0.7,1.9C135.8,24.8,140.6,24.8,140.6,24.8z"/>
		<path class="st2" d="M148.8,21.3c0.3,0.2,0.6,0.5,0.9,0.9v-4.6h1.4V30h-1.3v-1.3c-0.3,0.6-0.7,1-1.2,1.2s-1,0.4-1.6,0.4
			c-1,0-1.8-0.4-2.5-1.3c-0.7-0.8-1.1-2-1.1-3.4c0-1.3,0.3-2.5,1-3.4c0.7-1,1.6-1.4,2.8-1.4C147.8,20.8,148.3,21,148.8,21.3z
			 M145.5,28.1c0.4,0.7,1,1,1.9,1c0.7,0,1.2-0.3,1.7-0.9c0.4-0.6,0.7-1.5,0.7-2.6s-0.2-2-0.7-2.5s-1-0.8-1.7-0.8s-1.3,0.3-1.8,0.9
			s-0.7,1.4-0.7,2.6C144.9,26.6,145.1,27.4,145.5,28.1z"/>
		<path class="st2" d="M154.8,21v6c0,0.5,0.1,0.8,0.2,1.1c0.3,0.5,0.7,0.8,1.4,0.8c1,0,1.7-0.5,2-1.4c0.2-0.5,0.3-1.2,0.3-2.1V21
			h1.5v9h-1.4v-1.3c-0.2,0.3-0.4,0.6-0.7,0.9c-0.6,0.5-1.2,0.7-2,0.7c-1.2,0-2.1-0.4-2.5-1.3c-0.2-0.5-0.4-1.1-0.4-1.8V21H154.8z"/>
		<path class="st2" d="M162.7,17.6h1.5V30h-1.5V17.6z"/>
		<path class="st2" d="M171.8,21.2c0.6,0.3,1,0.7,1.3,1.2s0.5,1,0.6,1.6c0.1,0.4,0.1,1.1,0.1,2h-6.4c0,0.9,0.2,1.7,0.6,2.2
			c0.4,0.6,1,0.8,1.8,0.8s1.4-0.3,1.8-0.8c0.3-0.3,0.4-0.7,0.5-1.1h1.5c0,0.3-0.2,0.7-0.4,1.1s-0.5,0.7-0.7,1
			c-0.4,0.5-1,0.8-1.7,0.9c-0.4,0.1-0.8,0.1-1.2,0.1c-1.1,0-2-0.4-2.8-1.2c-0.8-0.8-1.1-2-1.1-3.4c0-1.5,0.4-2.6,1.1-3.5
			c0.8-0.9,1.8-1.4,3-1.4C170.6,20.8,171.2,20.9,171.8,21.2z M172.3,24.8c-0.1-0.7-0.2-1.2-0.4-1.6c-0.4-0.7-1.1-1.1-2-1.1
			c-0.7,0-1.2,0.3-1.7,0.8s-0.7,1.1-0.7,1.9C167.5,24.8,172.3,24.8,172.3,24.8z"/>
		<path class="st2" d="M175.7,21h1.4v1.6c0.1-0.3,0.4-0.7,0.8-1.1c0.4-0.4,1-0.7,1.5-0.7h0.1c0.1,0,0.2,0,0.3,0v1.6
			c-0.1,0-0.2,0-0.2,0c-0.1,0-0.2,0-0.2,0c-0.7,0-1.3,0.2-1.7,0.7s-0.6,1.1-0.6,1.7V30h-1.5L175.7,21L175.7,21z"/>
	</g>
</g>
</svg>
