<?xml version="1.0" encoding="utf-8"?>
<!-- Generator: Adobe Illustrator 24.0.1, SVG Export Plug-In . SVG Version: 6.00 Build 0)  -->
<svg version="1.1" id="图层_1" xmlns="http://www.w3.org/2000/svg" xmlns:xlink="http://www.w3.org/1999/xlink" x="0px" y="0px"
	 viewBox="0 0 139 74" style="enable-background:new 0 0 139 74;" xml:space="preserve">
<style type="text/css">
	.st0{fill:#003893;}
	.st1{fill-rule:evenodd;clip-rule:evenodd;fill:#FCCF00;}
	.st2{fill-rule:evenodd;clip-rule:evenodd;fill:#003893;}
	.st3{fill:url(#SVGID_1_);}
	.st4{fill:#231815;}
	.st5{fill:url(#SVGID_2_);}
	.st6{fill:url(#SVGID_3_);}
	.st7{fill:url(#SVGID_4_);}
	.st8{fill:#3AADDD;}
	.st9{fill:#1F4B95;}
	.st10{fill:#C11827;}
	.st11{opacity:0.5;fill:url(#SVGID_5_);}
	.st12{fill:#E62741;}
	.st13{fill:#009844;}
	.st14{fill:#0A0205;}
	.st15{fill:#F8B60E;}
	.st16{fill:#0079C4;}
</style>
<g>
	<g>
		<g>
			<path class="st0" d="M58.3,19.97c-0.88-0.46-2.42-0.29-2.76,0.61c-0.17,0.62,0.07,1.05,0.47,1.15c0.56,0.14,0.41-0.27,1.15-0.16
				c1.28,0.18,0.93,1.69,0.64,2.13c-0.85,1.27-2.91,0.91-4.06-0.34c-0.62-0.67-1.08-2.06-1.77-3.1c-0.69-1.04-1.67-2.33-2.98-3.09
				c-1.75-1.01-3.06-0.93-4.92-0.57c-1.39,0.27-2.75,0.65-3.88,0.9c-1.48,0.28-4.98,0.48-6.33-0.23c-1.6-0.84-5.53-4.2-6.3-4.68
				c-0.58-0.36-1.21-0.89-1.59-1.06l-0.29-0.24l0.16-0.71c0,0-0.97,0-1.23,0.22c-0.27,0.22-0.64,0.45-0.64,0.45
				s-0.84,0.03-1.24,0.07c-0.45,0.04-1.21,0.14-1.21,0.14l-0.44,0.69c-0.44,0.19-0.91,0.35-1.34,0.57c-0.54,0.23-0.8,0.53-0.8,0.53
				c0.08,0.88,0.41,1.31,0.41,1.31s-0.08,0.41,0.06,0.78c0,0,0,0.01,0,0.01c0.16,0.46,0.4,0.89,0.74,1.24c0,0-0.14,0.82,0.17,1.4
				c0.03,0.05,0.25,0.42,0.81,0.3l0,0c0.5-0.1,1.33-0.2,2.02-0.02c0.04,0.01,0.09,0.02,0.13,0.03c2.79,0.68,1.22,3.85,3.94,6.85
				c1.07,1.19-2.05,0.6-2.96,1.05c-0.47,0.23-0.77,0.74-0.79,1.31l-0.03,0.75c0,0,7.75,0.01,9.42,0c0.46-0.03,0.8-0.4,0.82-0.8
				c0-0.64,0.02-1.1,0.01-1.91c-0.01-0.82,0.44,1.19,0.58,1.64c0.1,0.32,0.24,0.54,0.56,0.55h4c0.43,0,0.56-0.22,0.7-0.57
				c0.28-0.82,1.13-1.66,2.4-1.66c0.38,0,0.46-0.01,0.46-0.01c0.65,0,0.57-0.16,0.33-0.44c-0.59-0.7-0.43-1.68-0.17-2.36
				c0.07-0.16,0.12-0.18,0.11,0.03c-0.22,1.97,0.93,2.68,1.51,3.08c0.19,0.14,0.03,0.24-0.09,0.24c-0.12,0-0.49,0-1.95,0
				c-1.45,0-1.65,1.4-1.65,2.04c0,0.2,0.14,0.17,0.32,0.17h6.31c0,0,2.55-3.27,3.62-3.27c1,0.8,2.07,2,5.25,2.2
				C60.39,27.2,61.91,21.55,58.3,19.97z"/>
			<g>
				<g id="XMLID_51_">
					<path id="XMLID_313_" class="st1" d="M32.98,16.73c-0.19-0.13-0.39-0.27-0.6-0.42c-0.07,0.65-0.14,1.31-0.19,1.96
						c-0.01,0.09-0.04,0.16-0.12,0.23c-0.07,0.07-0.16,0.1-0.27,0.1c-0.02,0-0.04,0-0.06,0c-0.11,0-0.19-0.03-0.25-0.09
						c-0.06-0.06-0.09-0.13-0.08-0.22c0.06-0.73,0.14-1.46,0.24-2.2c0.01-0.09,0.05-0.16,0.13-0.23c-0.15-0.12-0.31-0.23-0.47-0.35
						c-0.17,0.18-0.28,0.42-0.32,0.72c-0.09,0.66-0.17,1.32-0.24,1.98c-0.03,0.33,0.04,0.58,0.22,0.76
						c0.17,0.17,0.42,0.26,0.73,0.25c0.02,0,0.04,0,0.06,0c0.31-0.01,0.57-0.1,0.77-0.28c0.2-0.18,0.31-0.45,0.33-0.78
						C32.9,17.68,32.94,17.2,32.98,16.73z"/>
					<path id="XMLID_310_" class="st1" d="M35.06,17.63c-0.17,0.24-0.27,0.54-0.28,0.92c-0.04,0.95-0.06,1.91-0.07,2.86
						c0,0.47,0.13,0.83,0.39,1.08c0.26,0.25,0.62,0.38,1.05,0.38c0.03,0,0.05,0,0.08,0c0.44,0,0.79-0.13,1.05-0.37
						c0.26-0.25,0.4-0.62,0.4-1.09c0-0.96,0.01-1.92,0.02-2.88c0-0.3-0.05-0.55-0.14-0.76C36.69,17.78,35.8,17.75,35.06,17.63z
						 M36.79,21.56c0,0.14-0.05,0.25-0.16,0.36c-0.11,0.1-0.24,0.15-0.41,0.15c-0.03,0-0.05,0-0.08,0c-0.16,0-0.3-0.05-0.41-0.15
						c-0.11-0.1-0.16-0.22-0.16-0.35c0.01-1.06,0.03-2.12,0.06-3.17c0-0.14,0.06-0.25,0.17-0.36c0.11-0.1,0.24-0.15,0.4-0.16
						c0.03,0,0.05,0,0.08,0c0.16,0,0.29,0.05,0.39,0.15c0.1,0.1,0.15,0.22,0.15,0.35C36.81,19.44,36.8,20.5,36.79,21.56z"/>
					<path id="XMLID_309_" class="st1" d="M41.22,23.3c0,0-0.43,0-0.65,0c-0.02-1.42-0.07-2.74-0.18-4.11c-0.24,0-0.48,0-0.72-0.01
						c-0.28,0.12-0.55,0.24-0.83,0.35c0.01,0.24,0.02,0.48,0.03,0.73c0.28-0.11,0.56-0.23,0.84-0.34c0.05,1.12,0.1,2.22,0.12,3.37
						c-0.27,0-0.8,0-0.8,0s0.01,0.44,0.02,0.67c0.73,0,1.46,0,2.19-0.01C41.22,23.73,41.23,23.52,41.22,23.3z"/>
					<path id="XMLID_308_" class="st1" d="M50.89,20.33c-0.18,0-0.36-0.01-0.55-0.01c-0.06-0.79-0.15-1.57-0.28-2.36
						c-0.33-0.29-0.68-0.56-1.07-0.78c-0.01,0-0.01-0.01-0.02-0.01c-0.12,0.04-0.24,0.09-0.36,0.13c0.03,0.21,0.07,0.42,0.1,0.63
						c0.22-0.08,0.44-0.16,0.66-0.24c0.14,0.87,0.24,1.74,0.3,2.61c-0.22,0-0.44-0.01-0.67-0.01c0.01,0.19,0.02,0.39,0.03,0.58
						c0.63,0.01,1.26,0.02,1.88,0.03C50.92,20.71,50.9,20.52,50.89,20.33z"/>
					<path id="XMLID_307_" class="st1" d="M26.73,22c0.63-0.02,1.26-0.05,1.89-0.07c-0.02-0.18-0.03-0.38-0.03-0.57
						c-0.19,0.01-0.37,0.02-0.56,0.02c-0.02-1.11,0.1-2.24,0.31-3.36c-0.2,0.02-0.4,0.04-0.61,0.06c-0.26,0.12-0.52,0.24-0.78,0.36
						c-0.04,0.2-0.08,0.4-0.12,0.6c0.25-0.11,0.51-0.22,0.76-0.34c-0.16,0.91-0.25,1.82-0.22,2.71c-0.23,0.01-0.45,0.02-0.68,0.03
						C26.7,21.63,26.71,21.83,26.73,22z"/>
					<path id="XMLID_306_" class="st1" d="M35.92,23.72c-0.35,0.14-0.69,0.28-1.04,0.43c0.01,0.29,0.01,0.57,0.02,0.86
						c0.34-0.13,0.69-0.27,1.03-0.41c0.02,1.05,0.05,2.11,0.09,3.16h0.84c-0.04-1.34-0.06-2.69-0.07-4.03
						C36.51,23.72,36.21,23.72,35.92,23.72z"/>
					<path id="XMLID_305_" class="st1" d="M29.87,26.53c-0.18,0-0.35,0-0.53,0c-0.21-1.1-0.3-2.14-0.32-3.24c-0.22,0-0.43,0-0.65,0
						c-0.25,0.1-0.49,0.19-0.74,0.29c0.01,0.21,0.02,0.42,0.03,0.62c0.24-0.09,0.47-0.17,0.71-0.26c0.04,0.88,0.14,1.74,0.3,2.59
						c-0.22,0-0.43,0-0.65,0c0.03,0.19,0.05,0.4,0.08,0.59c0.61,0,1.24,0,1.83,0C29.92,26.92,29.89,26.72,29.87,26.53z"/>
					<path id="XMLID_56_" class="st1" d="M48.06,23.31c0.02-0.75,0.02-1.5,0-2.25c-0.01-0.38-0.14-0.67-0.36-0.87
						c-0.22-0.2-0.52-0.31-0.88-0.31c-0.02,0-0.04,0-0.06,0c-0.36-0.01-0.65,0.09-0.85,0.28c-0.21,0.2-0.3,0.49-0.29,0.88
						c0.02,0.77,0.02,1.53,0,2.3c-0.01,0.38,0.09,0.67,0.3,0.87c0.21,0.2,0.49,0.3,0.85,0.29c0.02,0,0.04,0,0.06,0
						c0.36-0.01,0.65-0.11,0.88-0.32C47.93,23.97,48.05,23.68,48.06,23.31z M47.31,23.43c0,0.1-0.05,0.19-0.13,0.27
						c-0.09,0.08-0.19,0.12-0.32,0.12c-0.02,0-0.04,0-0.07,0c-0.13,0-0.23-0.03-0.31-0.11c-0.08-0.08-0.12-0.16-0.11-0.27
						c0.02-0.84,0.02-1.68,0-2.52c0-0.1,0.03-0.19,0.11-0.27c0.08-0.08,0.18-0.11,0.31-0.11c0.02,0,0.04,0,0.07,0
						c0.13,0,0.24,0.04,0.32,0.12c0.09,0.08,0.13,0.17,0.13,0.27C47.33,21.76,47.33,22.6,47.31,23.43z"/>
					<path id="XMLID_53_" class="st1" d="M43.63,17.01c-0.3-0.01-0.53,0.07-0.69,0.24c-0.17,0.17-0.24,0.42-0.22,0.75
						c0.03,0.65,0.06,1.3,0.08,1.94c0.01,0.33,0.11,0.58,0.3,0.76c0.19,0.18,0.44,0.26,0.74,0.27c0.02,0,0.04,0,0.05,0
						c0.3,0,0.55-0.08,0.73-0.25c0.18-0.17,0.26-0.42,0.25-0.74c-0.03-0.64-0.07-1.28-0.12-1.92c-0.03-0.33-0.14-0.58-0.33-0.76
						c-0.19-0.18-0.44-0.27-0.73-0.28C43.67,17.01,43.65,17.01,43.63,17.01z M43.99,17.71c0.07,0.06,0.1,0.13,0.11,0.22
						c0.05,0.71,0.09,1.42,0.12,2.13c0,0.08-0.03,0.15-0.09,0.21c-0.06,0.06-0.15,0.09-0.25,0.09c-0.02,0-0.04,0-0.05,0
						c-0.1,0-0.19-0.03-0.26-0.1c-0.07-0.06-0.1-0.13-0.1-0.22c-0.02-0.71-0.06-1.43-0.1-2.14c-0.01-0.09,0.02-0.15,0.08-0.21
						c0.06-0.06,0.14-0.09,0.24-0.09c0.02,0,0.04,0,0.05,0C43.83,17.62,43.92,17.65,43.99,17.71z"/>
					<path id="XMLID_52_" class="st1" d="M32.09,23.66c-0.03-1.13-0.02-2.26,0.02-3.39c-0.21,0-0.43,0.01-0.64,0.01
						c-0.25,0.1-0.51,0.21-0.76,0.31c-0.01,0.21-0.01,0.43-0.02,0.64c0.24-0.1,0.49-0.19,0.73-0.29c-0.02,0.9-0.02,1.8,0,2.71
						c-0.22,0-0.44,0-0.67-0.01c0.01,0.2,0.01,0.4,0.02,0.6c0.63,0.01,1.25,0.02,1.88,0.03c-0.01-0.2-0.01-0.4-0.02-0.6
						C32.45,23.66,32.27,23.66,32.09,23.66z"/>
				</g>
			</g>
		</g>
		<polygon class="st2" points="35.68,34.16 43.6,34.16 43.6,35.39 45.8,35.39 45.8,34.16 45.8,33.14 45.8,32.86 40.79,32.86 
			40.79,31.68 38.48,31.68 38.48,32.86 33.48,32.86 33.48,33.14 33.48,34.16 33.48,35.39 35.68,35.39 		"/>
		<path class="st2" d="M42.3,40.53c0.69-0.8,1.22-1.8,1.6-3.05h2.17v-1.3h-6.61c0.24-0.55,0.44-1.11,0.59-1.63h-2.15
			c-0.22,0.52-0.47,1.07-0.75,1.63h-3.93v1.3h3.24c-0.45,0.79-0.93,1.56-1.42,2.23c0.92,0.26,2.04,0.65,3.19,1.11
			c-1.31,0.57-2.82,0.88-4.29,1l0.88,1.94c2.36-0.35,4.33-0.86,5.87-1.84c1.21,0.61,2.32,1.28,3.07,1.95l2.01-1.21
			C44.77,41.81,43.58,41.11,42.3,40.53z M37.85,39.08c0.34-0.48,0.68-1.03,0.99-1.61h2.76c-0.3,0.89-0.83,1.61-1.51,2.2
			C39.34,39.44,38.59,39.24,37.85,39.08z"/>
		<path class="st2" d="M29.99,34.91c-0.94-0.37-2.4-0.83-3.55-1.08c1.32,0,2.8,0,4.44,0v-1.32c-2,0-3.75,0-5.49,0
			c0.09-0.31,0.16-0.65,0.22-1.01h-2.23c-0.04,0.38-0.12,0.71-0.24,1.01c-1.44,0-2.93,0-4.61,0v1.32c0.61,0,1.81,0,3.6,0
			c-0.79,0.6-1.9,0.9-3.2,1.1l0.85,1.23c-0.57,0-1.13,0-1.71,0v1.32h9.57v3.7c0,0.74-0.04,0.98-0.84,1.04l-0.74,0.04v-4.14h-6.64
			v4.26h6.51l0.63,1.81l1.86-0.15c1.45-0.12,1.59-1.12,1.58-2.19v-4.37h1.34v-1.32c-0.68,0-1.35,0-2.01,0L29.99,34.91z M24.14,41.06
			h-2.78v-1.59h2.78V41.06z M21.47,36.17c1.18-0.33,2.07-0.79,2.72-1.46c1.29,0.41,2.74,0.93,3.92,1.46
			C25.88,36.17,23.7,36.17,21.47,36.17z"/>
		<polygon id="XMLID_50_" class="st2" points="57.57,33.05 57.57,31.68 55.31,31.68 55.31,33.05 51.89,33.05 51.89,34.24 
			60.87,34.24 60.87,33.05 		"/>
		<rect id="XMLID_49_" x="52.67" y="35.05" class="st2" width="7.42" height="1.19"/>
		<rect id="XMLID_48_" x="52.67" y="37.09" class="st2" width="7.42" height="1.19"/>
		<path id="XMLID_16_" class="st2" d="M52.51,43.4h7.75v-4.22h-7.75V43.4z M54.67,40.3h3.42v1.96h-3.42V40.3z"/>
		<path id="XMLID_15_" class="st2" d="M49.34,43.7h2.14v-9.91c0.37-0.67,0.62-1.38,0.73-2.1h-2.08c-0.3,1.13-1.44,2.58-2.81,3.31
			l0.94,2.05c0.35-0.19,0.69-0.42,1.02-0.67L49.34,43.7z"/>
	</g>
	
		<linearGradient id="SVGID_1_" gradientUnits="userSpaceOnUse" x1="-227.4365" y1="452.4748" x2="-226.8712" y2="452.4748" gradientTransform="matrix(0 92.0024 92.0024 0 -41559.0156 20926.3477)">
		<stop  offset="0" style="stop-color:#ACDDF7"/>
		<stop  offset="0.0429" style="stop-color:#9CCDED"/>
		<stop  offset="0.1969" style="stop-color:#6597CD"/>
		<stop  offset="0.33" style="stop-color:#3D71B5"/>
		<stop  offset="0.4354" style="stop-color:#2559A6"/>
		<stop  offset="0.5" style="stop-color:#1C50A1"/>
		<stop  offset="0.5646" style="stop-color:#2559A6"/>
		<stop  offset="0.67" style="stop-color:#3D71B5"/>
		<stop  offset="0.8031" style="stop-color:#6597CD"/>
		<stop  offset="0.9571" style="stop-color:#9CCDED"/>
		<stop  offset="1" style="stop-color:#ACDDF7"/>
	</linearGradient>
	<rect x="69.54" y="1.35" class="st3" width="0.43" height="52.35"/>
	<g>
		<g>
			<path class="st4" d="M18.55,66.72l-0.28-0.4l1.52-0.58v-1.47h-1.35v-0.44h1.35v-1.37h0.49v4.81H19.8v-1.08L18.55,66.72z
				 M21.85,67.11c-0.51,0.01-0.75-0.23-0.74-0.73v-3.93h0.48v1.72c0.48-0.28,0.88-0.56,1.22-0.84l0.34,0.3
				c-0.49,0.39-1.01,0.73-1.56,1.02v1.68c-0.01,0.22,0.1,0.32,0.32,0.31h0.43c0.2,0.01,0.33-0.1,0.38-0.32
				c0.05-0.18,0.08-0.34,0.1-0.47c0.11,0.12,0.24,0.21,0.38,0.27c-0.03,0.13-0.06,0.27-0.1,0.41c-0.1,0.38-0.34,0.57-0.71,0.57
				H21.85z"/>
			<path class="st4" d="M26.51,67.09c-0.13-0.14-0.26-0.24-0.4-0.3c0.51-0.3,0.93-0.66,1.26-1.07L27.73,66
				C27.39,66.43,26.98,66.8,26.51,67.09z M26.15,63.55v-0.42h2.2c-0.07-0.1-0.2-0.25-0.39-0.45c-0.05-0.06-0.09-0.11-0.12-0.14
				l0.51-0.13c0.25,0.26,0.43,0.47,0.54,0.64l-0.18,0.08h2.05v0.42H26.15z M26.86,65.54v-1.57h3.22v1.57h-1.29v1.09
				c0,0.4-0.21,0.61-0.62,0.61c-0.16,0-0.33-0.01-0.49-0.03c0-0.16-0.04-0.31-0.11-0.45c0.23,0.03,0.39,0.05,0.49,0.05
				c0.17,0,0.25-0.09,0.25-0.27v-1H26.86z M27.33,65.14h2.26v-0.76h-2.26V65.14z M30.53,67.09c-0.41-0.38-0.85-0.74-1.32-1.06
				l0.35-0.29c0.4,0.27,0.8,0.58,1.22,0.95L30.53,67.09z"/>
			<path class="st4" d="M36,66.73h-2.22v-0.3c0.28-0.38,0.68-0.87,1.2-1.49c0.33-0.38,0.49-0.72,0.48-1.05
				c0-0.37-0.21-0.55-0.63-0.56c-0.25,0-0.52,0.09-0.81,0.27l-0.11-0.41c0.33-0.21,0.67-0.31,1-0.31c0.68,0.02,1.02,0.36,1.04,1.01
				c0.01,0.44-0.19,0.88-0.6,1.33c-0.28,0.31-0.58,0.66-0.89,1.06H36V66.73z"/>
			<path class="st4" d="M40.21,62.87c0.79,0.02,1.19,0.67,1.2,1.95c-0.01,1.28-0.41,1.93-1.2,1.96c-0.79-0.02-1.19-0.67-1.2-1.96
				C39.02,63.55,39.42,62.9,40.21,62.87z M40.21,63.33c-0.47,0-0.71,0.5-0.71,1.5c0,1.01,0.23,1.51,0.71,1.5
				c0.47,0,0.71-0.5,0.71-1.5C40.91,63.83,40.68,63.33,40.21,63.33z"/>
			<path class="st4" d="M46.52,66.73H44.3v-0.3c0.28-0.38,0.68-0.87,1.2-1.49c0.33-0.38,0.49-0.72,0.48-1.05
				c0-0.37-0.21-0.55-0.63-0.56c-0.25,0-0.52,0.09-0.81,0.27l-0.11-0.41c0.33-0.21,0.67-0.31,1-0.31c0.68,0.02,1.02,0.36,1.04,1.01
				c0.01,0.44-0.19,0.88-0.6,1.33c-0.28,0.31-0.58,0.66-0.89,1.06h1.55V66.73z"/>
			<path class="st4" d="M51.78,66.73h-2.22v-0.3c0.28-0.38,0.68-0.87,1.2-1.49c0.33-0.38,0.49-0.72,0.48-1.05
				c0-0.37-0.21-0.55-0.63-0.56c-0.25,0-0.52,0.09-0.81,0.27l-0.11-0.41c0.33-0.21,0.67-0.31,1-0.31c0.68,0.02,1.02,0.36,1.04,1.01
				c0.01,0.44-0.19,0.88-0.6,1.33c-0.28,0.31-0.58,0.66-0.89,1.06h1.55V66.73z"/>
			<path class="st4" d="M54.81,66.13v-0.44h0.97v-1.42h1.53v-0.84h-1.17c-0.23,0.38-0.5,0.73-0.82,1.04
				c-0.12-0.12-0.28-0.2-0.47-0.24c0.57-0.5,0.99-1.11,1.26-1.84l0.45,0.2c-0.05,0.14-0.11,0.27-0.18,0.4h2.95v0.45h-1.54v0.84h1.38
				v0.44h-1.38v0.98h1.85v0.44h-1.85v1.16H57.3v-1.16H54.81z M56.25,64.7v0.98h1.05V64.7H56.25z"/>
			<path class="st4" d="M62.72,65.57c-0.06-0.16-0.16-0.3-0.29-0.42c0.83-0.14,1.53-0.35,2.11-0.64c-0.28-0.2-0.53-0.43-0.77-0.69
				c-0.2,0.21-0.41,0.39-0.63,0.55c-0.13-0.14-0.27-0.24-0.39-0.3c0.67-0.48,1.17-1.04,1.51-1.67l0.42,0.2
				c-0.07,0.14-0.16,0.27-0.25,0.41h2.03v0.37c-0.25,0.43-0.6,0.8-1.06,1.13c0.57,0.26,1.25,0.43,2.02,0.5
				c-0.13,0.13-0.22,0.3-0.27,0.48c-0.86-0.14-1.6-0.38-2.19-0.71C64.37,65.11,63.61,65.38,62.72,65.57z M66.04,67.38
				c-0.79-0.36-1.63-0.66-2.53-0.9l0.27-0.4c0.93,0.27,1.72,0.55,2.39,0.86L66.04,67.38z M64.13,63.41
				c-0.03,0.04-0.05,0.07-0.09,0.1c0.28,0.3,0.59,0.55,0.92,0.75c0.39-0.25,0.71-0.53,0.94-0.85H64.13z M65.83,66.29
				c-0.51-0.28-1.07-0.52-1.68-0.71l0.29-0.38c0.5,0.16,1.01,0.37,1.54,0.65L65.83,66.29z"/>
			<path class="st4" d="M70.28,66.08v-0.4h2.13c0.02-0.09,0.04-0.18,0.04-0.28l0.47,0.07c-0.01,0.07-0.02,0.14-0.04,0.21h2.19v0.4
				h-2.03c0.41,0.4,1.09,0.64,2.03,0.73c-0.13,0.15-0.22,0.3-0.27,0.46c-0.98-0.11-1.69-0.45-2.14-1.02c-0.31,0.55-1,0.9-2.06,1.05
				c-0.08-0.15-0.19-0.29-0.33-0.42c1.02-0.11,1.67-0.38,1.96-0.8H70.28z M70.87,65.5v-2.58h1.17c0.13-0.18,0.23-0.35,0.3-0.52
				l0.49,0.13c-0.06,0.13-0.14,0.26-0.22,0.39h1.89v2.58h-0.46V63.3h-2.72v2.19H70.87z M71.53,64.54v-0.33h0.95v-0.74h0.4v0.74h0.95
				v0.33h-0.95v0.8h-0.4v-0.57c-0.22,0.28-0.48,0.5-0.79,0.69c-0.09-0.1-0.19-0.18-0.32-0.24c0.36-0.18,0.67-0.4,0.91-0.67H71.53z
				 M72.1,64.16c-0.16-0.17-0.33-0.34-0.52-0.5l0.29-0.15c0.18,0.14,0.34,0.29,0.47,0.44L72.1,64.16z M73.71,65.43
				c-0.25-0.21-0.53-0.39-0.82-0.56l0.25-0.22c0.29,0.16,0.54,0.32,0.74,0.48L73.71,65.43z M73.26,64.15
				c-0.08-0.07-0.17-0.12-0.28-0.16c0.19-0.17,0.35-0.33,0.48-0.5l0.28,0.16C73.6,63.83,73.44,64,73.26,64.15z"/>
			<path class="st4" d="M82.62,64.62c-0.9-0.33-1.64-0.84-2.22-1.53c-0.56,0.7-1.27,1.24-2.15,1.6c-0.09-0.14-0.21-0.26-0.38-0.36
				c1.13-0.44,1.95-1.1,2.45-1.97l0.43,0.2c-0.01,0.02-0.03,0.05-0.05,0.08c-0.02,0.04-0.04,0.07-0.05,0.09
				c0.64,0.74,1.41,1.23,2.31,1.46C82.82,64.3,82.7,64.45,82.62,64.62z M78.3,65.62v-0.41h4.2v0.41h-2.13
				c-0.24,0.35-0.52,0.7-0.85,1.04l1.78-0.1c-0.17-0.2-0.34-0.38-0.51-0.56l0.4-0.21c0.4,0.39,0.76,0.8,1.08,1.22l-0.37,0.29
				c-0.08-0.11-0.18-0.23-0.28-0.36l-2.26,0.14c-0.18,0.01-0.38,0.05-0.59,0.1l-0.2-0.46c0.22-0.04,0.4-0.13,0.55-0.29
				c0.19-0.2,0.41-0.48,0.65-0.83H78.3z M79.18,64.63v-0.41h2.44v0.41H79.18z"/>
			<path class="st4" d="M85.93,64.11v-1.08h2.06c-0.12-0.22-0.24-0.39-0.35-0.53l0.5-0.1c0.19,0.27,0.32,0.48,0.39,0.63h1.81v1.06
				h-0.46v-0.67h-3.5v0.69H85.93z M89.43,67.27v-0.3H87.1v0.3h-0.48v-3.38h3.02v1.3H87.1v0.43h2.79v1.66H89.43z M87.1,64.29v0.52
				h2.07v-0.52H87.1z M89.43,66.01H87.1v0.57h2.33V66.01z"/>
			<path class="st4" d="M93.56,63.7v-0.45h2.28c-0.17-0.21-0.36-0.43-0.58-0.65l0.46-0.21c0.25,0.24,0.46,0.47,0.62,0.68l-0.27,0.18
				h2.14v0.45h-2.78c-0.01,0.26-0.02,0.52-0.04,0.79h2.21l-0.1,1.83c-0.03,0.58-0.31,0.86-0.83,0.86c-0.18,0-0.37-0.01-0.56-0.04
				c-0.01-0.17-0.05-0.32-0.11-0.47c0.21,0.04,0.41,0.05,0.58,0.05c0.28,0,0.43-0.16,0.44-0.47l0.07-1.34h-1.75
				c-0.12,1.04-0.57,1.84-1.33,2.39c-0.14-0.12-0.29-0.22-0.46-0.29c0.84-0.56,1.29-1.4,1.34-2.53c0.02-0.28,0.03-0.54,0.04-0.78
				H93.56z"/>
			<path class="st4" d="M101.29,64v-0.33h1.12v-0.38h-0.47c-0.06,0.12-0.12,0.22-0.19,0.31c-0.12-0.07-0.23-0.11-0.35-0.14
				c0.21-0.23,0.34-0.53,0.41-0.88l0.35,0.1c-0.02,0.09-0.05,0.18-0.07,0.27h0.33v-0.5h0.41v0.5h0.57v0.33h-0.57v0.38h0.63V64h-0.36
				v0.4l0.34-0.18l0.12,0.27l-0.53,0.29c-0.09,0.05-0.17,0.1-0.24,0.16l-0.18-0.26c0.07-0.07,0.11-0.16,0.11-0.29V64h-0.34
				c-0.01,0.49-0.29,0.88-0.86,1.16c-0.09-0.1-0.21-0.18-0.35-0.23c0.54-0.26,0.81-0.57,0.81-0.93H101.29z M101.63,67.32
				c-0.05-0.15-0.14-0.29-0.28-0.4c1.04-0.1,1.67-0.36,1.88-0.76c0.1-0.16,0.16-0.36,0.18-0.61l0.46,0.05
				c-0.02,0.19-0.06,0.36-0.11,0.52c0.84,0.29,1.47,0.54,1.91,0.77l-0.14,0.44c-0.61-0.3-1.26-0.58-1.96-0.83
				C103.28,66.92,102.63,67.19,101.63,67.32z M105.21,64.86c-0.28,0-0.42-0.13-0.42-0.4V64h-0.33c0,0.42-0.21,0.76-0.61,1.01h1.39
				v1.38h-0.48v-1h-2.3v1.03h-0.47v-1.41h1.85c-0.1-0.08-0.21-0.14-0.36-0.19c0.39-0.22,0.58-0.49,0.57-0.82h-0.44v-0.33h0.87v-0.38
				h-0.45c-0.05,0.1-0.11,0.19-0.17,0.28c-0.08-0.05-0.2-0.09-0.35-0.12c0.2-0.26,0.33-0.55,0.4-0.87l0.33,0.11
				c-0.02,0.1-0.04,0.19-0.07,0.27h0.31v-0.5h0.41v0.5h0.71v0.33h-0.71v0.38h0.98V64h-0.69v0.39c0,0.1,0.04,0.14,0.13,0.14h0.14
				c0.08,0,0.14-0.04,0.16-0.13c0.02-0.1,0.04-0.19,0.06-0.29c0.08,0.1,0.17,0.17,0.29,0.21c-0.01,0.09-0.03,0.17-0.05,0.22
				c-0.05,0.21-0.21,0.31-0.46,0.3H105.21z"/>
			<path class="st4" d="M109.03,66.89l-0.19-0.41l0.43-0.08v-3.64h1.8v3.28l0.27-0.05l0.1,0.3c0.32-0.49,0.49-1.23,0.54-2.22
				c0-0.04,0-0.07,0.01-0.12h-0.67v-0.42h0.69c0.01-0.49,0.01-0.85,0.01-1.08l0.46,0.03c0,0.22-0.01,0.57-0.02,1.05h1.09l-0.08,2.82
				c0,0.55-0.25,0.83-0.76,0.82c-0.12,0-0.27-0.01-0.43-0.03c-0.01-0.16-0.05-0.32-0.13-0.47c0.18,0.03,0.34,0.05,0.47,0.05
				c0.27,0.01,0.4-0.13,0.4-0.4l0.07-2.37h-0.66c0,0.02,0,0.04-0.01,0.08c0,0.03,0,0.05,0,0.06c-0.05,1.5-0.46,2.57-1.23,3.22
				c-0.14-0.1-0.29-0.17-0.46-0.21c0.29-0.25,0.51-0.5,0.66-0.74L109.03,66.89z M109.72,63.15v0.74h0.92v-0.74H109.72z
				 M109.72,64.29v0.74h0.92v-0.74H109.72z M109.72,65.42v0.88l0.92-0.19v-0.7H109.72z"/>
			<path class="st4" d="M116.72,63.34v-0.39h2.19c0-0.01-0.01-0.02-0.02-0.03c-0.16-0.2-0.28-0.33-0.36-0.41l0.5-0.13
				c0.19,0.21,0.35,0.4,0.46,0.56h1.9v0.39H116.72z M117.91,65.6c-0.1-0.1-0.2-0.18-0.31-0.23v1.92h-0.46v-3.26h1.1
				c-0.17-0.21-0.32-0.37-0.46-0.5l0.42-0.15c0.19,0.18,0.36,0.37,0.52,0.57l-0.14,0.07h0.76c0.22-0.25,0.39-0.47,0.5-0.67
				l0.44,0.17c-0.14,0.19-0.27,0.36-0.39,0.5h1.06v2.5c0,0.48-0.23,0.72-0.7,0.71c-0.15,0-0.3-0.01-0.44-0.02
				c-0.02-0.16-0.06-0.3-0.12-0.43c0.19,0.03,0.35,0.04,0.46,0.04c0.22,0.01,0.33-0.12,0.32-0.37V64.4h-2.9v0.94
				c0.36-0.25,0.67-0.53,0.91-0.84l0.32,0.21c-0.14,0.17-0.31,0.36-0.52,0.55h1.57c-0.19-0.18-0.4-0.36-0.63-0.55l0.33-0.21
				c0.31,0.24,0.59,0.5,0.85,0.77l-0.26,0.3c-0.08-0.09-0.17-0.18-0.27-0.28v1.25h-1.75v-1.15C118.09,65.47,118,65.54,117.91,65.6z
				 M118.56,66.21h0.98v-0.61h-0.98V66.21z"/>
		</g>
	</g>
	<g>
		<g>
			<path class="st4" d="M19.66,69.19c0.79,0,1.33,0.53,1.33,1.51c0,1.07-0.57,1.56-1.35,1.56c-0.79,0-1.35-0.5-1.35-1.56
				C18.29,69.71,18.86,69.19,19.66,69.19z M19.64,71.92c0.58,0,0.95-0.41,0.95-1.23c0-0.74-0.37-1.16-0.94-1.16
				c-0.59,0-0.96,0.42-0.96,1.16C18.69,71.51,19.07,71.92,19.64,71.92z"/>
			<path class="st4" d="M22.75,70.33h-0.83v1.87h-0.36v-1.87H21.3v-0.23l0.25-0.05v-0.24c0-0.34,0.15-0.58,0.52-0.58
				c0.1,0,0.2,0.02,0.3,0.04l-0.02,0.27c-0.05-0.02-0.12-0.03-0.19-0.03c-0.13,0-0.24,0.07-0.24,0.29v0.24h0.83v-0.27
				c0-0.34,0.15-0.59,0.52-0.59c0.1,0,0.2,0.01,0.3,0.04l-0.02,0.28c-0.05-0.02-0.12-0.03-0.19-0.03c-0.13,0-0.24,0.07-0.24,0.28
				v0.29h1.18v2.16h-0.36v-1.87h-0.82v1.87h-0.36V70.33z M24.12,69.24c0.14,0,0.23,0.08,0.23,0.22c0,0.14-0.09,0.22-0.23,0.22
				c-0.13,0-0.24-0.08-0.24-0.22C23.88,69.32,23.99,69.24,24.12,69.24z"/>
			<path class="st4" d="M26.6,71.95c-0.24,0.21-0.52,0.3-0.84,0.3c-0.6,0-0.98-0.41-0.98-1.13c0-0.71,0.42-1.12,1-1.12
				c0.53,0,0.81,0.29,0.83,0.81h-0.34c-0.04-0.33-0.21-0.49-0.49-0.49c-0.38,0-0.62,0.29-0.62,0.79c0,0.48,0.21,0.83,0.64,0.83
				c0.25,0,0.42-0.07,0.65-0.23L26.6,71.95z"/>
			<path class="st4" d="M27.22,69.25c0.14,0,0.23,0.08,0.23,0.21c0,0.12-0.1,0.2-0.23,0.2c-0.13,0-0.24-0.08-0.24-0.2
				C26.98,69.33,27.09,69.25,27.22,69.25z M27.4,72.2h-0.36v-2.16h0.36V72.2z"/>
			<path class="st4" d="M29.57,72.2h-0.3l-0.03-0.37c-0.15,0.28-0.4,0.42-0.72,0.42c-0.39,0-0.65-0.22-0.65-0.62
				c0-0.32,0.21-0.68,1-0.68c0.13,0,0.22,0.01,0.34,0.02v-0.21c0-0.31-0.17-0.47-0.46-0.47c-0.26,0-0.44,0.09-0.64,0.24l-0.17-0.22
				c0.22-0.2,0.52-0.32,0.83-0.32c0.49,0,0.8,0.22,0.8,0.76V72.2z M29.21,71.24c-0.08-0.01-0.16-0.02-0.33-0.02
				c-0.44,0-0.65,0.13-0.65,0.41c0,0.21,0.13,0.33,0.39,0.33c0.33,0,0.59-0.35,0.59-0.64V71.24z"/>
			<path class="st4" d="M30.12,72.2v-2.96h0.36v2.96H30.12z"/>
			<path class="st4" d="M31.88,71.55c0.27,0.23,0.55,0.38,0.85,0.38c0.35,0,0.61-0.18,0.61-0.51c0-0.3-0.14-0.42-0.67-0.58
				c-0.64-0.19-0.88-0.39-0.88-0.84c0-0.53,0.42-0.81,0.96-0.81c0.38,0,0.71,0.14,0.97,0.42l-0.21,0.23
				c-0.21-0.23-0.49-0.34-0.75-0.34c-0.33,0-0.58,0.15-0.58,0.45c0,0.33,0.25,0.42,0.74,0.58c0.6,0.2,0.82,0.41,0.82,0.85
				c0,0.53-0.41,0.86-1.01,0.86c-0.43,0-0.8-0.18-1.06-0.46L31.88,71.55z"/>
			<path class="st4" d="M34.19,73.02v-2.98h0.31l0.03,0.32c0.19-0.23,0.43-0.37,0.73-0.37c0.56,0,0.86,0.42,0.86,1.12
				c0,0.69-0.29,1.13-0.9,1.13c-0.37,0-0.59-0.2-0.67-0.3v1.08H34.19z M34.56,71.61c0.09,0.13,0.32,0.31,0.59,0.31
				c0.37,0,0.59-0.26,0.59-0.79c0-0.53-0.19-0.81-0.54-0.81c-0.28,0-0.51,0.19-0.65,0.35V71.61z"/>
			<path class="st4" d="M37.52,69.99c0.6,0,0.98,0.4,0.98,1.13c0,0.72-0.42,1.13-1.04,1.13c-0.61,0-0.98-0.41-0.98-1.12
				C36.49,70.4,36.9,69.99,37.52,69.99z M37.49,71.93c0.35,0,0.63-0.25,0.63-0.81c0-0.56-0.28-0.81-0.63-0.81
				c-0.36,0-0.62,0.26-0.62,0.81C36.87,71.68,37.13,71.93,37.49,71.93z"/>
			<path class="st4" d="M39.28,70.04l0.02,0.32c0.17-0.21,0.42-0.37,0.72-0.37c0.49,0,0.67,0.32,0.67,0.79v1.41h-0.37v-1.32
				c0-0.38-0.13-0.56-0.39-0.56c-0.29,0-0.53,0.23-0.61,0.33v1.55h-0.36v-2.16H39.28z"/>
			<path class="st4" d="M41.23,71.67c0.21,0.16,0.46,0.28,0.68,0.28c0.29,0,0.46-0.12,0.46-0.32c0-0.2-0.1-0.28-0.5-0.37
				c-0.49-0.12-0.7-0.29-0.7-0.63c0-0.39,0.31-0.63,0.78-0.63c0.32,0,0.58,0.11,0.79,0.32l-0.17,0.22
				c-0.19-0.17-0.42-0.25-0.61-0.25c-0.26,0-0.42,0.11-0.42,0.3c0,0.2,0.14,0.27,0.52,0.37c0.49,0.13,0.69,0.29,0.69,0.63
				c0,0.42-0.32,0.67-0.82,0.67c-0.36,0-0.68-0.15-0.88-0.35L41.23,71.67z"/>
			<path class="st4" d="M44.14,69.99c0.6,0,0.98,0.4,0.98,1.13c0,0.72-0.42,1.13-1.04,1.13c-0.61,0-0.98-0.41-0.98-1.12
				C43.11,70.4,43.52,69.99,44.14,69.99z M44.11,71.93c0.35,0,0.63-0.25,0.63-0.81c0-0.56-0.28-0.81-0.63-0.81
				c-0.36,0-0.62,0.26-0.62,0.81C43.49,71.68,43.75,71.93,44.11,71.93z"/>
			<path class="st4" d="M45.91,70.37c0.1-0.21,0.28-0.38,0.49-0.38c0.07,0,0.14,0.02,0.2,0.04l-0.04,0.35
				c-0.06-0.02-0.12-0.02-0.18-0.02c-0.19,0-0.36,0.19-0.43,0.35v1.49h-0.36v-2.16h0.3L45.91,70.37z"/>
			<path class="st4" d="M48.65,69.99c0.6,0,0.98,0.4,0.98,1.13c0,0.72-0.42,1.13-1.04,1.13c-0.61,0-0.98-0.41-0.98-1.12
				C47.62,70.4,48.03,69.99,48.65,69.99z M48.62,71.93c0.35,0,0.63-0.25,0.63-0.81c0-0.56-0.28-0.81-0.63-0.81
				c-0.36,0-0.62,0.26-0.62,0.81C48,71.68,48.26,71.93,48.62,71.93z"/>
			<path class="st4" d="M50.17,70.33h-0.25v-0.23l0.25-0.05v-0.28c0-0.34,0.15-0.59,0.52-0.59c0.1,0,0.2,0.01,0.3,0.04l-0.02,0.28
				c-0.05-0.02-0.12-0.03-0.19-0.03c-0.13,0-0.24,0.07-0.24,0.28v0.29h0.39v0.29h-0.39v1.87h-0.36V70.33z"/>
			<path class="st4" d="M52.48,70.34v1.43c0,0.14,0.07,0.18,0.16,0.18c0.07,0,0.12-0.01,0.19-0.04l0.04,0.27
				c-0.11,0.05-0.24,0.07-0.37,0.07c-0.25,0-0.38-0.14-0.38-0.42v-1.49h-0.27v-0.23l0.28-0.07l0.05-0.6h0.31v0.6h0.35v0.3H52.48z"/>
			<path class="st4" d="M53.61,69.24v1.1c0.17-0.19,0.41-0.35,0.7-0.35c0.46,0,0.66,0.3,0.66,0.79v1.41h-0.37v-1.33
				c0-0.28-0.04-0.55-0.39-0.55c-0.26,0-0.49,0.2-0.6,0.32v1.55h-0.36v-2.96H53.61z"/>
			<path class="st4" d="M57.24,71.96c-0.24,0.2-0.53,0.29-0.83,0.29c-0.61,0-1-0.37-1-1.12c0-0.69,0.39-1.14,1-1.14
				c0.56,0,0.87,0.34,0.87,1.05c0,0.04,0,0.16,0,0.19H55.8c0.01,0.41,0.19,0.71,0.64,0.71c0.23,0,0.43-0.07,0.65-0.23L57.24,71.96z
				 M56.93,70.94c0-0.35-0.13-0.64-0.51-0.64c-0.48,0-0.6,0.43-0.61,0.64H56.93z"/>
			<path class="st4" d="M59.81,69.19c0.79,0,1.33,0.53,1.33,1.51c0,1.07-0.57,1.56-1.35,1.56c-0.79,0-1.35-0.5-1.35-1.56
				C58.44,69.71,59.01,69.19,59.81,69.19z M59.8,71.92c0.58,0,0.95-0.41,0.95-1.23c0-0.74-0.37-1.16-0.94-1.16
				c-0.59,0-0.96,0.42-0.96,1.16C58.85,71.51,59.22,71.92,59.8,71.92z"/>
			<path class="st4" d="M61.63,72.2v-2.96h0.36v2.96H61.63z"/>
			<path class="st4" d="M64.21,70.04l-0.77,2.19c-0.21,0.58-0.29,0.8-0.72,0.8c-0.15,0-0.26-0.02-0.37-0.05l0.04-0.26
				c0.06,0.01,0.16,0.03,0.29,0.03c0.17,0,0.26-0.08,0.38-0.44l0.04-0.12l-0.77-2.16h0.39l0.56,1.74l0.56-1.74H64.21z"/>
			<path class="st4" d="M64.86,70.04l0.02,0.31c0.15-0.19,0.36-0.36,0.67-0.36c0.31,0,0.46,0.15,0.53,0.36
				c0.17-0.19,0.39-0.36,0.69-0.36c0.45,0,0.58,0.31,0.58,0.71v1.5H67v-1.44c0-0.27-0.07-0.44-0.32-0.44
				c-0.25,0-0.45,0.21-0.53,0.31v1.57h-0.37v-1.42c0-0.28-0.07-0.45-0.31-0.45c-0.25,0-0.46,0.21-0.55,0.32v1.56h-0.36v-2.16H64.86z
				"/>
			<path class="st4" d="M67.9,73.02v-2.98h0.31l0.03,0.32c0.19-0.23,0.43-0.37,0.73-0.37c0.56,0,0.86,0.42,0.86,1.12
				c0,0.69-0.29,1.13-0.9,1.13c-0.37,0-0.59-0.2-0.67-0.3v1.08H67.9z M68.27,71.61c0.09,0.13,0.32,0.31,0.59,0.31
				c0.37,0,0.59-0.26,0.59-0.79c0-0.53-0.19-0.81-0.54-0.81c-0.28,0-0.51,0.19-0.65,0.35V71.61z"/>
			<path class="st4" d="M70.51,69.25c0.14,0,0.23,0.08,0.23,0.21c0,0.12-0.1,0.2-0.23,0.2c-0.13,0-0.24-0.08-0.24-0.2
				C70.28,69.33,70.38,69.25,70.51,69.25z M70.69,72.2h-0.36v-2.16h0.36V72.2z"/>
			<path class="st4" d="M73,71.95c-0.24,0.21-0.52,0.3-0.84,0.3c-0.6,0-0.98-0.41-0.98-1.13c0-0.71,0.42-1.12,1-1.12
				c0.53,0,0.81,0.29,0.83,0.81h-0.34c-0.04-0.33-0.21-0.49-0.49-0.49c-0.38,0-0.62,0.29-0.62,0.79c0,0.48,0.21,0.83,0.64,0.83
				c0.25,0,0.42-0.07,0.65-0.23L73,71.95z"/>
			<path class="st4" d="M73.97,69.24h0.39l0.64,2.48l0.63-2.48h0.37l0.63,2.48l0.63-2.48h0.39l-0.78,2.96h-0.42l-0.63-2.39
				l-0.62,2.39h-0.44L73.97,69.24z"/>
			<path class="st4" d="M78.17,69.25c0.14,0,0.23,0.08,0.23,0.21c0,0.12-0.1,0.2-0.23,0.2c-0.13,0-0.24-0.08-0.24-0.2
				C77.93,69.33,78.04,69.25,78.17,69.25z M78.34,72.2h-0.36v-2.16h0.36V72.2z"/>
			<path class="st4" d="M79.24,70.04l0.02,0.32c0.17-0.21,0.42-0.37,0.72-0.37c0.49,0,0.67,0.32,0.67,0.79v1.41h-0.37v-1.32
				c0-0.38-0.13-0.56-0.39-0.56c-0.29,0-0.53,0.23-0.61,0.33v1.55h-0.36v-2.16H79.24z"/>
			<path class="st4" d="M81.65,70.34v1.43c0,0.14,0.07,0.18,0.16,0.18c0.07,0,0.12-0.01,0.19-0.04l0.04,0.27
				c-0.11,0.05-0.24,0.07-0.37,0.07c-0.25,0-0.38-0.14-0.38-0.42v-1.49h-0.27v-0.23l0.28-0.07l0.05-0.6h0.31v0.6H82v0.3H81.65z"/>
			<path class="st4" d="M84.14,71.96c-0.24,0.2-0.53,0.29-0.83,0.29c-0.61,0-1-0.37-1-1.12c0-0.69,0.39-1.14,1-1.14
				c0.56,0,0.87,0.34,0.87,1.05c0,0.04,0,0.16,0,0.19H82.7c0.01,0.41,0.19,0.71,0.64,0.71c0.23,0,0.43-0.07,0.65-0.23L84.14,71.96z
				 M83.83,70.94c0-0.35-0.13-0.64-0.51-0.64c-0.48,0-0.6,0.43-0.61,0.64H83.83z"/>
			<path class="st4" d="M84.95,70.37c0.1-0.21,0.28-0.38,0.49-0.38c0.07,0,0.14,0.02,0.2,0.04l-0.04,0.35
				c-0.06-0.02-0.12-0.02-0.18-0.02c-0.19,0-0.36,0.19-0.43,0.35v1.49h-0.36v-2.16h0.3L84.95,70.37z"/>
			<path class="st4" d="M88.11,70.66h1.02v1.12c-0.33,0.39-0.78,0.46-1.09,0.46c-0.99,0-1.36-0.66-1.36-1.54
				c0-0.9,0.45-1.52,1.34-1.52c0.81,0,1.08,0.43,1.1,0.9h-0.39c-0.01-0.3-0.21-0.55-0.72-0.55c-0.63,0-0.93,0.51-0.93,1.17
				c0,0.76,0.33,1.21,0.95,1.21c0.31,0,0.58-0.12,0.76-0.3v-0.63h-0.68V70.66z"/>
			<path class="st4" d="M91.23,72.2h-0.3l-0.03-0.37c-0.15,0.28-0.4,0.42-0.72,0.42c-0.39,0-0.65-0.22-0.65-0.62
				c0-0.32,0.21-0.68,1-0.68c0.13,0,0.22,0.01,0.34,0.02v-0.21c0-0.31-0.17-0.47-0.46-0.47c-0.26,0-0.44,0.09-0.64,0.24l-0.17-0.22
				c0.22-0.2,0.52-0.32,0.83-0.32c0.49,0,0.8,0.22,0.8,0.76V72.2z M90.87,71.24c-0.08-0.01-0.16-0.02-0.33-0.02
				c-0.44,0-0.65,0.13-0.65,0.41c0,0.21,0.13,0.33,0.39,0.33c0.33,0,0.59-0.35,0.59-0.64V71.24z"/>
			<path class="st4" d="M92.09,70.04l0.02,0.31c0.15-0.19,0.36-0.36,0.67-0.36c0.31,0,0.46,0.15,0.53,0.36
				c0.17-0.19,0.39-0.36,0.69-0.36c0.45,0,0.58,0.31,0.58,0.71v1.5h-0.36v-1.44c0-0.27-0.07-0.44-0.32-0.44
				c-0.25,0-0.45,0.21-0.53,0.31v1.57H93v-1.42c0-0.28-0.07-0.45-0.31-0.45c-0.25,0-0.46,0.21-0.55,0.32v1.56h-0.36v-2.16H92.09z"/>
			<path class="st4" d="M96.85,71.96c-0.24,0.2-0.53,0.29-0.83,0.29c-0.61,0-1-0.37-1-1.12c0-0.69,0.39-1.14,1-1.14
				c0.56,0,0.87,0.34,0.87,1.05c0,0.04,0,0.16,0,0.19h-1.47c0.01,0.41,0.19,0.71,0.64,0.71c0.23,0,0.43-0.07,0.65-0.23L96.85,71.96z
				 M96.53,70.94c0-0.35-0.13-0.64-0.51-0.64c-0.48,0-0.6,0.43-0.61,0.64H96.53z"/>
			<path class="st4" d="M97.33,71.67c0.21,0.16,0.46,0.28,0.68,0.28c0.29,0,0.46-0.12,0.46-0.32c0-0.2-0.1-0.28-0.5-0.37
				c-0.49-0.12-0.7-0.29-0.7-0.63c0-0.39,0.31-0.63,0.78-0.63c0.32,0,0.58,0.11,0.79,0.32l-0.17,0.22
				c-0.19-0.17-0.42-0.25-0.61-0.25c-0.26,0-0.42,0.11-0.42,0.3c0,0.2,0.14,0.27,0.52,0.37c0.49,0.13,0.69,0.29,0.69,0.63
				c0,0.42-0.32,0.67-0.82,0.67c-0.36,0-0.68-0.15-0.88-0.35L97.33,71.67z"/>
			<path class="st4" d="M100.13,69.24h1.03c0.67,0,0.95,0.26,0.95,0.73c0,0.29-0.16,0.61-0.54,0.67c0,0,0,0,0,0.01
				c0.5,0.05,0.67,0.41,0.67,0.7c0,0.65-0.49,0.86-1.14,0.86h-0.98V69.24z M100.51,69.58v0.94h0.54c0.36,0,0.67-0.11,0.67-0.5
				c0-0.33-0.22-0.44-0.61-0.44H100.51z M100.51,71.87h0.7c0.43,0,0.65-0.21,0.65-0.54c0-0.37-0.28-0.48-0.68-0.48h-0.67V71.87z"/>
			<path class="st4" d="M104.35,71.96c-0.24,0.2-0.53,0.29-0.83,0.29c-0.61,0-1-0.37-1-1.12c0-0.69,0.39-1.14,1-1.14
				c0.56,0,0.87,0.34,0.87,1.05c0,0.04,0,0.16,0,0.19h-1.47c0.01,0.41,0.19,0.71,0.64,0.71c0.23,0,0.43-0.07,0.65-0.23L104.35,71.96
				z M104.03,70.94c0-0.35-0.13-0.64-0.51-0.64c-0.48,0-0.6,0.43-0.61,0.64H104.03z"/>
			<path class="st4" d="M105.04,69.25c0.14,0,0.23,0.08,0.23,0.21c0,0.12-0.1,0.2-0.23,0.2c-0.13,0-0.24-0.08-0.24-0.2
				C104.8,69.33,104.91,69.25,105.04,69.25z M105.22,72.2h-0.36v-2.16h0.36V72.2z"/>
			<path class="st4" d="M106.19,72.48c0,0.35-0.12,0.56-0.49,0.56c-0.11,0-0.21-0.01-0.31-0.04l0.03-0.28
				c0.05,0.02,0.12,0.02,0.18,0.02c0.14,0,0.22-0.05,0.22-0.29v-2.41h0.36V72.48z M106.02,69.25c0.14,0,0.23,0.08,0.23,0.21
				c0,0.12-0.1,0.2-0.23,0.2c-0.14,0-0.24-0.08-0.24-0.2C105.78,69.33,105.88,69.25,106.02,69.25z"/>
			<path class="st4" d="M106.99,69.25c0.14,0,0.23,0.08,0.23,0.21c0,0.12-0.1,0.2-0.23,0.2c-0.13,0-0.24-0.08-0.24-0.2
				C106.75,69.33,106.85,69.25,106.99,69.25z M107.16,72.2h-0.36v-2.16h0.36V72.2z"/>
			<path class="st4" d="M108.06,70.04l0.02,0.32c0.17-0.21,0.42-0.37,0.72-0.37c0.49,0,0.67,0.32,0.67,0.79v1.41h-0.37v-1.32
				c0-0.38-0.13-0.56-0.39-0.56c-0.29,0-0.53,0.23-0.61,0.33v1.55h-0.36v-2.16H108.06z"/>
			<path class="st4" d="M111.86,72.13c0,0.72-0.3,0.94-0.94,0.94c-0.28,0-0.57-0.06-0.75-0.14l0.07-0.3
				c0.18,0.06,0.41,0.12,0.67,0.12c0.49,0,0.61-0.2,0.61-0.64v-0.2c-0.15,0.19-0.39,0.33-0.71,0.33c-0.6,0-0.88-0.46-0.88-1.1
				c0-0.65,0.28-1.14,0.91-1.14c0.34,0,0.57,0.21,0.69,0.36l0.02-0.31h0.31V72.13z M111.5,70.67c-0.09-0.13-0.32-0.35-0.6-0.35
				c-0.39,0-0.59,0.3-0.59,0.79c0,0.48,0.17,0.8,0.58,0.8c0.3,0,0.49-0.19,0.61-0.31V70.67z"/>
			<path class="st4" d="M113.07,71.95l1.07-1.33c0.19-0.23,0.27-0.39,0.27-0.59c0-0.27-0.2-0.46-0.51-0.46
				c-0.23,0-0.48,0.14-0.68,0.32l-0.2-0.24c0.25-0.25,0.58-0.41,0.94-0.41c0.43,0,0.81,0.26,0.81,0.74c0,0.31-0.09,0.5-0.32,0.79
				l-0.91,1.11h1.25v0.32h-1.73V71.95z"/>
			<path class="st4" d="M116.23,69.24c0.63,0,0.99,0.43,0.99,1.49c0,1.05-0.36,1.52-1,1.52c-0.63,0-0.98-0.46-0.98-1.5
				C115.23,69.69,115.59,69.24,116.23,69.24z M116.22,71.93c0.41,0,0.63-0.37,0.63-1.19c0-0.83-0.21-1.17-0.63-1.17
				c-0.42,0-0.63,0.34-0.63,1.18C115.59,71.56,115.81,71.93,116.22,71.93z"/>
			<path class="st4" d="M117.57,71.95l1.07-1.33c0.19-0.23,0.27-0.39,0.27-0.59c0-0.27-0.2-0.46-0.51-0.46
				c-0.23,0-0.48,0.14-0.68,0.32l-0.2-0.24c0.25-0.25,0.58-0.41,0.94-0.41c0.43,0,0.81,0.26,0.81,0.74c0,0.31-0.09,0.5-0.32,0.79
				l-0.91,1.11h1.25v0.32h-1.73V71.95z"/>
			<path class="st4" d="M119.63,71.95l1.07-1.33c0.19-0.23,0.27-0.39,0.27-0.59c0-0.27-0.2-0.46-0.51-0.46
				c-0.23,0-0.48,0.14-0.68,0.32l-0.2-0.24c0.25-0.25,0.58-0.41,0.94-0.41c0.43,0,0.81,0.26,0.81,0.74c0,0.31-0.09,0.5-0.32,0.79
				l-0.91,1.11h1.25v0.32h-1.73V71.95z"/>
		</g>
	</g>
	<g>
		<g>
			<linearGradient id="SVGID_2_" gradientUnits="userSpaceOnUse" x1="92.3858" y1="14.8267" x2="107.1997" y2="9.6969">
				<stop  offset="0" style="stop-color:#FCCF00"/>
				<stop  offset="0.1253" style="stop-color:#FACA01"/>
				<stop  offset="0.275" style="stop-color:#F6BB04"/>
				<stop  offset="0.4372" style="stop-color:#EEA309"/>
				<stop  offset="0.6083" style="stop-color:#E38210"/>
				<stop  offset="0.7863" style="stop-color:#D5561A"/>
				<stop  offset="0.9676" style="stop-color:#C42225"/>
				<stop  offset="1" style="stop-color:#C11827"/>
			</linearGradient>
			<path class="st5" d="M85.34,17.31l1.65,1.94c0,0,13.17-11.24,25.21-9.75l-0.01-0.1c-0.06-0.03-1.9-0.58-4.97-0.58
				C102.34,8.81,94.34,10.21,85.34,17.31"/>
			<linearGradient id="SVGID_3_" gradientUnits="userSpaceOnUse" x1="85.3244" y1="15.0107" x2="113.0406" y2="14.8655">
				<stop  offset="0" style="stop-color:#1C50A1"/>
				<stop  offset="0.1017" style="stop-color:#1957A7"/>
				<stop  offset="0.2472" style="stop-color:#116AB6"/>
				<stop  offset="0.4182" style="stop-color:#0488D0"/>
				<stop  offset="0.46" style="stop-color:#0091D7"/>
				<stop  offset="0.5203" style="stop-color:#1D9EDC"/>
				<stop  offset="0.638" style="stop-color:#50B4E6"/>
				<stop  offset="0.7488" style="stop-color:#78C6ED"/>
				<stop  offset="0.8494" style="stop-color:#95D3F3"/>
				<stop  offset="0.9365" style="stop-color:#A7DAF6"/>
				<stop  offset="1" style="stop-color:#ADDDF7"/>
			</linearGradient>
			<path class="st6" d="M112.96,10.63C112.96,10.63,112.96,10.63,112.96,10.63c-0.76,2.06-3.65,1.72-7.58,1.39
				c-2.15-0.18-4.61-0.37-7.21-0.16c-6.81,0.55-12.84,5.46-12.84,5.46l1.65,1.94c0,0,3.13-2.68,7.85-4.16
				c2.49-0.78,5.87-0.34,8.9,0.11c2.8,0.41,5.31,0.82,6.54,0.26c1.21-0.66,2.53-2.81,2.75-4.83C113,10.62,112.98,10.63,112.96,10.63
				"/>
			<linearGradient id="SVGID_4_" gradientUnits="userSpaceOnUse" x1="104.9181" y1="17.4657" x2="88.9642" y2="18.4415">
				<stop  offset="0" style="stop-color:#6EC8F2"/>
				<stop  offset="0.1158" style="stop-color:#6FC8EF"/>
				<stop  offset="0.1991" style="stop-color:#72C8E6"/>
				<stop  offset="0.2721" style="stop-color:#77C8D6"/>
				<stop  offset="0.3394" style="stop-color:#7DC8C0"/>
				<stop  offset="0.402" style="stop-color:#86C8A3"/>
				<stop  offset="0.43" style="stop-color:#8BC894"/>
				<stop  offset="0.523" style="stop-color:#A1C978"/>
				<stop  offset="0.7494" style="stop-color:#D2CC37"/>
				<stop  offset="0.9146" style="stop-color:#F0CE0F"/>
				<stop  offset="1" style="stop-color:#FCCF00"/>
			</linearGradient>
			<path class="st7" d="M87.67,19.22c5.43-2.14,11.26,0.09,11.26,0.09l4.66-1.65c-2.34-0.86-4.52-1.18-6.47-1.18
				C91.87,16.49,88.28,18.81,87.67,19.22"/>
			<path class="st8" d="M92.28,21.41c5.35-3.8,11.41-3.74,11.41-3.74c-5.93,2.54-8.18,6.62-8.18,6.62L92.28,21.41"/>
			<path class="st9" d="M103.28,7.52c-2.72-0.21-5.54-0.01-7.45,0.17c-5.17,3.36-8.16,7.67-8.16,7.67
				C95.71,8.8,103.28,7.52,103.28,7.52"/>
			<path class="st10" d="M101.47,4.94c0,0-2.16-0.57-4.73-0.48c-1.91,1.74-3.28,3.51-3.28,3.51s0.93-0.14,2.37-0.28
				c1.91-0.18,4.73-0.37,7.45-0.17L101.47,4.94z"/>
			<path class="st9" d="M91.65,5.38l1.81,2.59c0,0,1.37-1.78,3.28-3.51c1.02-0.93,2.2-1.85,3.41-2.48
				C100.14,1.97,94.67,2.92,91.65,5.38"/>
			<path class="st9" d="M100.94,29.77c-6.79-3.23-8.66-8.36-8.66-8.36c3.59,2.87,11.27,5.54,11.27,5.54S101.56,30.06,100.94,29.77"
				/>
			<linearGradient id="SVGID_5_" gradientUnits="userSpaceOnUse" x1="86.3531" y1="15.8927" x2="99.9257" y2="15.1339">
				<stop  offset="0" style="stop-color:#1C4C95"/>
				<stop  offset="0.5415" style="stop-color:#1CA2D9"/>
				<stop  offset="0.5839" style="stop-color:#34ABDC"/>
				<stop  offset="0.6875" style="stop-color:#69BDE2"/>
				<stop  offset="0.7845" style="stop-color:#92CCE7"/>
				<stop  offset="0.8719" style="stop-color:#B0D7EB"/>
				<stop  offset="0.9467" style="stop-color:#C2DEED"/>
				<stop  offset="1" style="stop-color:#C9E0EE"/>
			</linearGradient>
			<path class="st11" d="M99.25,11.79c-0.35,0.02-0.71,0.04-1.07,0.07c-6.05,0.49-11.48,4.41-12.62,5.28
				c-0.07,0.06-0.15,0.11-0.22,0.17l1.65,1.94c0,0,0,0,0,0C87.13,19.13,92.38,14.68,99.25,11.79"/>
		</g>
		<path class="st12" d="M108.08,40.79c-2.15,0-3.91,1.68-4.07,3.8c0.23,0.02,0.45,0.06,0.67,0.11c0.11-1.81,1.59-3.24,3.41-3.24
			c1.89,0,3.42,1.54,3.42,3.45c0,1.9-1.53,3.44-3.42,3.44c-0.12,0-0.24-0.01-0.36-0.02c-0.24-0.03-0.47-0.08-0.69-0.15
			c-1.21-0.4-2.13-1.46-2.32-2.76c-0.22-0.07-0.45-0.12-0.69-0.15c0.15,1.76,1.39,3.2,3.04,3.63c0.22,0.06,0.44,0.1,0.67,0.12
			c0.12,0.01,0.24,0.02,0.36,0.02c2.26,0,4.09-1.85,4.09-4.13C112.17,42.63,110.34,40.79,108.08,40.79"/>
		<path class="st13" d="M107.06,48.91c-0.11,1.8-1.59,3.23-3.41,3.23c-1.89,0-3.41-1.54-3.41-3.44c0-1.9,1.53-3.45,3.41-3.45
			c0.12,0,0.25,0.01,0.36,0.02c0.24,0.03,0.47,0.08,0.7,0.15c1.21,0.4,2.12,1.46,2.31,2.76c0.22,0.07,0.46,0.13,0.7,0.15
			c-0.15-1.76-1.4-3.2-3.05-3.63c-0.21-0.05-0.44-0.09-0.67-0.11c-0.12-0.01-0.24-0.02-0.36-0.02c-2.26,0-4.09,1.85-4.09,4.13
			c0,2.28,1.83,4.13,4.09,4.13c2.15,0,3.91-1.67,4.07-3.8C107.5,49,107.28,48.96,107.06,48.91"/>
		<path class="st4" d="M103.31,44.59c-0.16-2.13-1.93-3.8-4.08-3.8c-2.26,0-4.09,1.85-4.09,4.13c0,2.28,1.83,4.13,4.09,4.13
			c0.12,0,0.23-0.01,0.35-0.02c-0.01-0.1-0.01-0.22-0.01-0.32c0-0.12,0.01-0.24,0.02-0.36c-0.12,0.01-0.23,0.02-0.35,0.02
			c-1.88,0-3.41-1.54-3.41-3.44c0-1.9,1.53-3.45,3.41-3.45c1.82,0,3.3,1.43,3.41,3.23c0,0.07,0.01,0.14,0.01,0.21
			c0,0.17-0.01,0.34-0.04,0.5c-0.19,1.31-1.11,2.38-2.33,2.78c-0.02,0.16-0.04,0.33-0.04,0.51c0,0.07,0,0.14,0.01,0.21
			c1.66-0.43,2.91-1.88,3.06-3.64c0.01-0.12,0.02-0.24,0.02-0.36C103.32,44.8,103.32,44.7,103.31,44.59"/>
		<path class="st14" d="M95.15,44.59c0.23,0.02,0.45,0.06,0.67,0.12"/>
		<path class="st15" d="M98.17,48.9c-0.1,1.81-1.59,3.24-3.41,3.24c-1.89,0-3.42-1.54-3.42-3.44c0-1.91,1.53-3.45,3.42-3.45
			c0.13,0,0.26,0.01,0.38,0.02c0.24,0.03,0.47,0.08,0.7,0.15c1.2,0.4,2.1,1.46,2.3,2.75c0.22,0.08,0.45,0.13,0.69,0.16
			c-0.15-1.75-1.38-3.19-3.02-3.62c-0.22-0.06-0.44-0.1-0.67-0.12c-0.13-0.01-0.25-0.02-0.38-0.02c-2.26,0-4.09,1.85-4.09,4.13
			c0,2.28,1.83,4.12,4.09,4.12c2.15,0,3.91-1.68,4.07-3.8C98.61,49,98.39,48.96,98.17,48.9"/>
		<path class="st16" d="M94.42,44.59c-0.17-2.13-1.93-3.8-4.08-3.8c-2.26,0-4.09,1.85-4.09,4.13c0,2.28,1.83,4.13,4.09,4.13
			c0.12,0,0.23-0.01,0.35-0.02c-0.01-0.1-0.01-0.22-0.01-0.32c0-0.12,0.01-0.24,0.02-0.36c-0.11,0.01-0.23,0.02-0.35,0.02
			c-1.88,0-3.41-1.54-3.41-3.44c0-1.9,1.53-3.45,3.41-3.45c1.82,0,3.3,1.43,3.41,3.23c0,0.07,0.01,0.14,0.01,0.21
			c0,0.17-0.01,0.34-0.04,0.5c-0.19,1.31-1.11,2.38-2.33,2.78c-0.02,0.16-0.04,0.33-0.04,0.51c0,0.07,0,0.14,0.01,0.21
			c1.66-0.43,2.91-1.88,3.06-3.64c0.01-0.12,0.02-0.24,0.02-0.36C94.43,44.8,94.43,44.7,94.42,44.59"/>
		<g>
			<g>
				<g id="XMLID_3057_">
					<path id="XMLID_3070_" d="M86.48,35.74l-0.25-0.73c0,0-0.71-0.09-1.58,0.01c0.08-0.24,0.18-0.51,0.3-0.84
						c0.47-0.07,1.12-0.13,1.88-0.1l-0.23-0.77c-0.76-0.07-1.68-0.04-2.13,0l0,0.01c-0.05,0-0.09,0.01-0.09,0.01
						c-0.62,1.41-1.03,2.74-1.25,3.55l0.53,0.78h0.34c0,0,0,0,0,0c1.03-0.01,1.12-0.04,2.34-0.13l-0.26-0.82
						c-0.85,0.14-1.46,0.15-1.92,0.11c0.07-0.36,0.13-0.64,0.2-0.89C84.81,35.85,85.49,35.76,86.48,35.74z"/>
					<path id="XMLID_3067_" d="M82.24,34.88c0.27-0.18,0.5-0.44,0.61-0.83l-0.24-0.75c0,0.01,0,0.01-0.01,0.02L82.6,33.3
						c-1.87-0.63-3.55-0.2-4.05-0.05l0.57,0.84c0.25-0.09,0.5-0.16,0.74-0.21c-0.8,2.03-1.14,3.67-1.14,3.67
						c3.76,0.56,4.24-1.57,4.24-1.57l-0.25-0.75C82.7,35.23,82.6,35.05,82.24,34.88z M79.99,36.66c0.17-0.69,0.44-1.73,0.83-2.89
						c0.54-0.02,1.02,0.04,1.37,0.11c-0.6,0.55-1.48,0.72-1.48,0.72l0.25,0.75c0,0,0.88,0,1.46,0.39
						C81.82,36.53,80.76,36.67,79.99,36.66z"/>
					<path id="XMLID_3066_" d="M88.96,33.3h-0.88c-1.03,2.31-1.45,4.35-1.45,4.35h1.07C87.7,37.65,88.09,35.64,88.96,33.3z"/>
					<path id="XMLID_3065_" d="M91.85,33.3c-1.03,2.31-1.45,4.35-1.45,4.35h1.07c0,0,0.39-2.01,1.26-4.35H91.85z"/>
					<path id="XMLID_3064_" d="M96.17,33.3c-0.44,1-0.77,1.94-1.01,2.69c-0.26-0.8-0.51-1.78-0.58-2.69H93.7
						c-1.03,2.31-1.45,4.35-1.45,4.35h1.07c0,0,0.2-1.06,0.65-2.53c0.16,0.8,0.39,1.74,0.74,2.53h1.07c0,0,0.39-2.01,1.26-4.35
						H96.17z"/>
					<path id="XMLID_3063_" d="M118.98,36.45c-0.62-0.24-1.37-0.26-2.08-0.17c0.48-0.56,0.97-1.22,1.35-1.95l-0.31-0.92
						c-0.75-0.18-2.02-0.14-3.02,0.42l0.31,0.91c0,0,0.8-0.46,1.99-0.49c-0.3,0.52-0.97,1.33-2.4,2.37l-0.33-0.32
						c-0.51-0.19-1.06-0.24-1.58-0.21c0.48-0.58,0.97-1.27,1.36-2.05l-0.3-0.91c-0.75-0.16-1.98-0.14-2.97,0.44l0.33,0.93
						c0,0,0.94-0.61,2.01-0.62c-0.3,0.57-1.03,1.53-2.82,2.81c-0.02,0.01-0.03,0.01-0.03,0.01l0.75,1.07c0,0,1.39-0.86,3.13-0.83
						c-0.01,0-0.02,0.01-0.02,0.01l0.73,1.09c0,0,2.58-1.54,5.12-0.67L118.98,36.45z"/>
					<path id="XMLID_3060_" d="M110.17,33.58c0,0-0.94-0.3-0.94-0.3s-1.04,0.27-1.82,1.21c-0.73,0.88-0.74,1.65-0.56,2.2l-0.2-0.19
						c-0.52-0.2-1.06-0.25-1.58-0.23c0.49-0.58,1.01-1.28,1.41-2.07l-0.31-0.91c-0.79-0.17-2.04-0.09-3.03,0.47l0.31,0.91
						c0.3-0.2,1.25-0.52,2.06-0.58c-0.32,0.57-1.07,1.51-2.84,2.73c-0.02,0.01-0.02,0.01-0.02,0.01l0.66,0.97l0.07,0.11l0,0l0,0
						c0,0,1.71-1.02,3.68-0.75c0.16,0.26,0.33,0.41,0.33,0.41l1.02,0.31c0,0,1.14-0.19,1.82-1.21
						C111.57,34.69,110.17,33.58,110.17,33.58z M109.29,36.38c-0.35,0.41-0.85,0.72-1.25,0.93c-0.3-0.61-0.56-1.6,0.23-2.53
						c0.36-0.42,0.87-0.72,1.27-0.92C109.82,34.47,110.05,35.48,109.29,36.38z"/>
					<path id="XMLID_3059_" d="M89.74,33.3c0,0-0.55,2.01-1.27,4.25c-0.25,0.76-0.61,1.23-1.03,1.39c-0.26,0.1-0.46,0.06-0.65,0.03
						v0l1.09,0.42c1.12-0.18,1.45-1.05,1.69-1.67c0.27-0.7,1.25-4.42,1.25-4.42H89.74z"/>
					<path id="XMLID_3058_" d="M100.79,34.15l-0.3-0.91c-2.75-0.02-3.99,1.74-3.91,3.27c0.01,0.15,0.03,0.28,0.06,0.4l0.42,0.61
						c0.45,0.28,1.2,0.16,2.13-0.4c-0.24,0.43-0.58,0.81-1.05,0.91c0.03,0,0.75,0.37,0.92,0.3c0.49-0.23,1.4-0.92,1.57-2.3v0l0,0
						l-0.98-0.37c0,0,0,0,0,0.01l0,0c-0.62,0.97-1.89,1.33-2.3,1.12C96.72,36.44,97.99,34.04,100.79,34.15z"/>
				</g>
			</g>
			<g>
				<path class="st4" d="M120.25,33.52h-0.23v-0.08h0.57v0.08h-0.24v0.69h-0.1V33.52z"/>
				<path class="st4" d="M121.32,33.87c-0.01-0.11-0.01-0.24-0.01-0.33h0c-0.03,0.09-0.06,0.19-0.1,0.29l-0.14,0.37H121l-0.13-0.37
					c-0.04-0.11-0.07-0.21-0.09-0.3h0c0,0.1-0.01,0.22-0.01,0.34l-0.02,0.33h-0.09l0.05-0.77h0.13l0.13,0.37
					c0.03,0.09,0.06,0.18,0.08,0.26h0c0.02-0.08,0.05-0.16,0.08-0.26l0.14-0.37h0.13l0.05,0.77h-0.1L121.32,33.87z"/>
			</g>
		</g>
	</g>
</g>
</svg>
