<?xml version="1.0" encoding="utf-8"?>
<!-- Generator: Adobe Illustrator 18.0.0, SVG Export Plug-In . SVG Version: 6.00 Build 0)  -->
<!DOCTYPE svg PUBLIC "-//W3C//DTD SVG 1.1//EN" "http://www.w3.org/Graphics/SVG/1.1/DTD/svg11.dtd">
<svg version="1.1" id="图层_1" xmlns="http://www.w3.org/2000/svg" xmlns:xlink="http://www.w3.org/1999/xlink" x="0px" y="0px"
	 viewBox="0 0 960 560" enable-background="new 0 0 960 560" xml:space="preserve">
<g>
	<g>
		<polygon fill="#00A0E9" points="65,383.4 0,345.6 0,209 119.1,141.7 235,211.3 235,348.7 171.2,382.8 159.9,362.3 211,334.8 
			211,224.4 118.2,168.6 23,222.5 23,332.2 76.6,363.3 		"/>
		<path fill="#00A0E9" d="M100,217.7c1.9-12.5,30.5-32.4,49.7-1.7c22.4-2.7,26.9,20.7,22,26c17.7-6.1,50.3,32,10.3,52H58.2
			c-34.1-5-28-57,7.1-58.1C72.2,212.4,92.3,213.5,100,217.7z"/>
		<polygon fill="#EEAF00" points="126.6,409 117,414.4 107.2,408.6 107,244.2 126.4,244.2 		"/>
		<g>
			<circle fill="#FFFFFF" cx="116.8" cy="248.9" r="14.7"/>
			<path fill="#EEAF00" d="M116.8,266.7c-9.8,0-17.8-8-17.8-17.8c0-9.8,8-17.8,17.8-17.8s17.8,8,17.8,17.8
				C134.6,258.7,126.6,266.7,116.8,266.7z M116.8,237.3c-6.4,0-11.6,5.2-11.6,11.6c0,6.4,5.2,11.6,11.6,11.6
				c6.4,0,11.6-5.2,11.6-11.6C128.4,242.5,123.2,237.3,116.8,237.3z"/>
		</g>
		<polygon fill="#EEAF00" points="80.3,394 61.7,382.4 61.7,269.1 80.3,269.1 		"/>
		<polygon fill="#EEAF00" points="174.8,381.7 156.2,391.6 156.2,268.3 174.8,268.3 		"/>
		<g>
			<circle fill="#FFFFFF" cx="165.4" cy="269" r="14.7"/>
			<path fill="#EEAF00" d="M165.4,286.9c-9.8,0-17.8-8-17.8-17.8s8-17.8,17.8-17.8c9.8,0,17.8,8,17.8,17.8S175.2,286.9,165.4,286.9z
				 M165.4,257.4c-6.4,0-11.6,5.2-11.6,11.6s5.2,11.6,11.6,11.6c6.4,0,11.6-5.2,11.6-11.6S171.8,257.4,165.4,257.4z"/>
		</g>
		<rect x="68" y="344.4" fill="none" width="101.9" height="89.9"/>
		<g>
			<circle fill="#FFFFFF" cx="71.1" cy="269" r="14.7"/>
			<path fill="#EEAF00" d="M71.1,286.9c-9.8,0-17.8-8-17.8-17.8s8-17.8,17.8-17.8s17.8,8,17.8,17.8S80.9,286.9,71.1,286.9z
				 M71.1,257.4c-6.4,0-11.6,5.2-11.6,11.6s5.2,11.6,11.6,11.6c6.4,0,11.6-5.2,11.6-11.6S77.5,257.4,71.1,257.4z"/>
		</g>
	</g>
	<g>
		<path fill="#FFFFFF" d="M274.1,338.3v-50.8c-1.3,0.5-2.5,1.1-3.9,1.6c-2.8-4-5.7-7.6-8.5-10.6c11.6-4.6,18.8-9.5,21.5-14.8h-20.5
			v-11.2h7.1c-2.3-3.6-4.5-6.8-6.7-9.5c4.1-4,8.2-9.8,12.4-17.7h14.7c-1.3,2.8-2.6,5.5-3.9,8h31.9v11.3h-15.9
			c-0.2,2.8-0.5,5.4-0.9,7.9h20.2v11.2h-17.7l16.2,10.8l-7.4,8.4h48.8v55.4h-15.3v-5h-56.8v5H274.1z M272.3,252.5h14.4
			c0.4-2.4,0.6-5,0.8-7.9h-8.3C277,247.6,274.7,250.2,272.3,252.5z M282.8,282.9h26.2c-4.8-4.5-9.3-8.5-13.4-12
			C292.7,275.4,288.4,279.4,282.8,282.9z M346.2,294.9h-56.8v8h56.8V294.9z M289.4,321.4h56.8v-7.4h-56.8V321.4z M323.4,233.8h45.5
			v42.6h-45.5V233.8z M354.7,264.4v-18.5h-17.2v18.5H354.7z"/>
		<path fill="#FFFFFF" d="M380.4,248.3h8.9c-2-4.1-4.7-8.4-8.1-13l10.3-6.4c2.4,2.8,5.5,7.2,9.6,13.2l-10.3,6.2h12.8V226H418v22.3
			h12l-9.5-6.2c3.8-4.6,7-9.2,9.6-13.6l10.7,6.4c-2.5,4.3-5.7,8.8-9.5,13.3h6.6v11.6H418v8l3.9-5.2c4.7,2.5,9.2,5.1,13.5,7.5
			c6.2-11.5,11.6-26.5,16.1-44.8l15.6,1.5c-1.5,5.9-3.1,11.5-4.8,16.9h28.5v13.9h-4.6c-1.6,20.1-5.9,36.7-12.8,49.6
			c4.9,5.7,10.8,10.5,17.9,14.6c-2.7,3.1-6,8.2-9.9,15.2c-6.6-4.4-12.4-9.8-17.3-16.2c-6.3,7.4-13.5,13.3-21.8,17.9
			c-3.1-4.4-6.5-8.5-10.2-12.3l-4,6.7c-4.6-2.6-9.5-5.3-14.9-8c-8.3,5.5-18.3,9.5-29.9,11.9c-1.4-4.2-3.4-8.9-6-14
			c7.9-0.8,14.9-2.4,21-4.8c-5.2-2.3-10.8-4.7-16.6-7.1c2.6-3.8,4.9-7.5,7-11.3h-9.3v-11.6h15c1.3-3,2.3-6,3.2-9l6.2,0.6v-10.9
			c-5.6,5.9-12.7,11.4-21.2,16.5c-1.6-5.1-3.4-9.6-5.4-13.7c7.6-2.9,14.4-6.9,20.5-11.9h-17V248.3z M399.7,305.9l11.9,4.4
			c3.4-3,6.2-6.4,8.4-10.4h-16.9L399.7,305.9z M418,282.5h-5.8c-0.9,1.9-1.8,3.8-2.9,5.8h26.6v10.6c-3,6.2-6.7,11.7-11.1,16.5
			l11.3,4.5l-2.3,3.7c8.4-4.4,15.6-10,21.5-17c-3.7-7.6-6.6-16.2-8.5-25.6c-1.3,2.4-2.7,4.7-4,6.9c-1.7-3-3.8-6.2-6.1-9.4l-3.4,5.1
			c-4.7-3.2-9.8-6.4-15.3-9.7V282.5z M456.2,260.9c1.5,12.7,4.2,23.2,8,31.7c4.5-10,7.2-21.6,8.1-35h-14.8
			C457,258.8,456.6,259.8,456.2,260.9z"/>
		<path fill="#FFFFFF" d="M523,289.1c-0.1,5.9,0.4,11.7,1.4,17.6c-4.5,4.1-10.4,10.4-17.7,18.9l-8.1-11.1c1.9-2.2,2.9-5.4,3-9.7
			v-30.1h-7.1v-14.8h21.5v36.7C517.6,295,519.9,292.4,523,289.1z M509.8,227.2c5.3,6.8,9.9,13.4,13.8,19.6c-3.6,2.2-8.1,4.9-13.3,8
			c-3.9-7.3-8.1-14.1-12.8-20.4L509.8,227.2z M588,243.7h-47.1V285c0,23-3.4,41-10.1,54c-4.6-3.2-9.9-6.3-15.7-9.5
			c7.7-10.3,11.5-24.7,11.5-43.1v-56.2h75.8v91.1c0,10.2-4.4,15.5-13.3,16c-3.6,0.3-8.9,0.5-16.1,0.5c-1.1-5.2-2.2-10.3-3.4-15.2
			c5.1,0.4,9.3,0.5,12.5,0.5c4,0,5.9-1.9,5.9-5.7V243.7z M543.3,270.2h14.1v-6.6h-12.2v-10.7h12.2v-7.1h13.9v7.1h12.4v10.7h-12.4
			v6.6h14.2v10.7h-42.3V270.2z M545.5,323.6v-36.8h37.2V318H558v5.6H545.5z M570.1,297.5H558v9.8h12.1V297.5z"/>
		<path fill="#FFFFFF" d="M633.6,277.7c0.2,28.5-3.6,48.9-11.4,61.3c-4.2-4-8.3-7.6-12.4-10.7c6.5-12.1,9.5-29.6,9.2-52.7v-39.8
			h45.4c-0.8-2.2-1.9-4.9-3.3-8l18.9-2.7c1.4,3.5,2.7,7.1,4.1,10.7h39.4v12.8h-89.9V277.7z M712.6,292v12.3
			c-6.1,7-12.2,12.6-18.2,16.9c8.4,1.6,18.4,2.6,30.1,3c-2.3,4.4-4.5,9-6.7,13.8c-16.8-2.1-30.3-4.9-40.5-8.5
			c-10.9,3.6-24.4,6.8-40.6,9.5c-1.9-4.3-4.4-8.5-7.4-12.7c12.3-0.6,23.2-2.2,32.8-4.7c-6.3-4.6-12.1-10.3-17.3-17.2h-7.3V292H712.6
			z M636.1,255.7h12.4v-4.8h14.6v4.8h28.3v-4.8H706v4.8h15.5V268H706v18.6h-57.4V268h-12.4V255.7z M677.9,316
			c6.9-3.2,12.8-7.1,17.7-11.7h-34.6C665.8,309.1,671.5,313,677.9,316z M691.4,275v-7h-28.3v7H691.4z"/>
		<path fill="#FFFFFF" d="M775.7,225.5H793v20.2h42.5v63.9h-16.9v-7.9H793v36.7h-17.3v-36.7h-25.6v8.2h-16.9v-64.3h42.5V225.5z
			 M750.1,286h25.6v-24.6h-25.6V286z M818.7,261.4H793V286h25.6V261.4z"/>
		<path fill="#FFFFFF" d="M856.9,258.2l15.6,3.5c-3.3,18.1-7.5,34.8-12.8,50.3l-15.2-5.6C848.9,292.6,853,276.5,856.9,258.2z
			 M921.2,297.3c6.8,2.8,12.6,5,17.2,6.5c-0.5,3.6-1.5,8.4-2.9,14.5c-1.4,6.1-3.1,10-5,11.8c-1.9,1.8-4.4,3.1-7.3,4
			c-2.9,0.9-6.4,1.3-10.5,1.3H894c-12.8,0-19.1-6.5-19.1-19.4v-65.6h16.9v60.4c0,6.5,3.4,9.8,10.1,9.8h5.8c3.4,0,6.1-0.6,8-1.7
			c1.9-1.2,3.1-2.8,3.5-5.1C919.6,311.5,920.3,306,921.2,297.3z M900,225.2c6.6,8.4,13.7,18.2,21.3,29.6l-15.2,9.3
			c-6.5-11.6-12.9-21.9-19.3-30.9L900,225.2z M942.2,260c6.1,12.5,11.4,25,16,37.5l-15.7,6.5c-4.3-12.4-9.4-25-15.4-37.8L942.2,260z
			"/>
	</g>
</g>
</svg>
