<!--
  ~ Licensed to the Apache Software Foundation (ASF) under one
  ~ or more contributor license agreements.  See the NOTICE file
  ~ distributed with this work for additional information
  ~ regarding copyright ownership.  The ASF licenses this file
  ~ to you under the Apache License, Version 2.0 (the
  ~ "License"); you may not use this file except in compliance
  ~ with the License.  You may obtain a copy of the License at
  ~
  ~   http://www.apache.org/licenses/LICENSE-2.0
  ~
  ~ Unless required by applicable law or agreed to in writing,
  ~ software distributed under the License is distributed on an
  ~ "AS IS" BASIS, WITHOUT WARRANTIES OR CONDITIONS OF ANY
  ~ KIND, either express or implied.  See the License for the
  ~ specific language governing permissions and limitations
  ~ under the License.
  ~
-->
<svg xmlns="http://www.w3.org/2000/svg" viewBox="0 0 204.85 127.79">
  <defs>
    <style>
      .cls-1{fill:#f11d07;}.cls-2{fill:#ffde00;}.cls-2,.cls-3{stroke:#fff;stroke-miterlimit:10;stroke-width:2px;}.cls-3{fill:url(#xxxxxx);}
    </style>
    <linearGradient id="xxxxxx" x1="103.68" y1="127.03" x2="103.68" y2="1" gradientUnits="userSpaceOnUse">
      <stop offset="0" stop-color="#fff33b"/>
      <stop offset="0.1" stop-color="#fee72e"/>
      <stop offset="0.28" stop-color="#fed51b"/>
      <stop offset="0.47" stop-color="#fdca10"/>
      <stop offset="0.67" stop-color="#fdc70c"/>
      <stop offset="0.95" stop-color="#f3903f"/>
    </linearGradient>
  </defs>
  <g >
    <g >
      <path class="cls-1"
            d="M94.32,10.92a5.7,5.7,0,0,1,7.26,0L152,52.46,193.8,86.88A5.71,5.71,0,0,1,190.17,97H5.72A5.71,5.71,0,0,1,2.09,86.88L43.88,52.46Z"/>
      <polygon class="cls-2"
               points="34 36.23 87.53 32.38 76.92 50.38 64 50.38 34 97.45 13.7 97.45 40.46 51.3 26.16 51.3 34 36.23"/>
      <polygon class="cls-3"
               points="122.6 1 154.91 1 106.28 55.45 134.14 55.45 52.46 127.03 95.38 72.06 75.53 72.99 122.6 1"/>
      <polygon class="cls-2"
               points="202.75 31.93 157.21 36.99 134.6 75.3 160.44 75.3 155.91 83.14 129.52 83.14 121.22 97.45 165.13 97.45 183.59 61.09 158.13 61.09 163.67 51.3 189.05 51.3 202.75 31.93"/>
    </g>
  </g>
</svg>
